<svg fill="none" version="1.1" viewBox="0 0 142 142" xmlns="http://www.w3.org/2000/svg">
 <g transform="matrix(1.0021 0 0 1.0377 6.94e-7 -.00025317)" clipPath="url(#clip0_0_812)">
  <path d="m141.7 68.418c0 7.4632-4.567 14.112-6.748 20.838-2.263 6.9789-2.552 15.028-6.776 20.838-4.267 5.868-11.856 8.611-17.719 12.881-5.805 4.228-10.734 10.628-17.706 12.895-6.7286 2.186-14.446-0.021-21.902-0.021s-15.173 2.207-21.9 0.021c-6.9735-2.267-11.903-8.667-17.708-12.895-5.8629-4.27-13.452-7.013-17.718-12.881-4.2242-5.808-4.5134-13.858-6.7768-20.838-2.1844-6.734-6.7479-13.383-6.7479-20.838 0-7.4556 4.5674-14.112 6.7479-20.838 2.2634-6.979 2.5526-15.029 6.7768-20.838 4.2666-5.8657 11.855-8.6113 17.718-12.879 5.8052-4.2276 10.735-10.63 17.708-12.895 6.7267-2.1861 14.444 0.019295 21.9 0.019295s15.173-2.2054 21.9-0.019295c6.9735 2.2652 11.903 8.6673 17.708 12.895 5.863 4.268 13.452 7.0136 17.719 12.879 4.224 5.8097 4.513 13.86 6.776 20.838 2.181 6.7262 6.748 13.377 6.748 20.838z" fill="#326ce5"/>
  <g stroke="#fff">
   <path d="m13.588 60.53c8.1804 0 8.1804 3.859 16.359 3.859 8.1784 0 8.1804-3.859 16.361-3.859 8.1804 0 8.1785 3.859 16.359 3.859s8.1785-3.859 16.359-3.859 8.1803 3.859 16.359 3.859 8.1805-3.859 16.36-3.859c8.181 0 8.181 3.859 16.361 3.859" strokeMiterlimit="10"/>
   <path d="m13.588 68.248c8.1804 0 8.1804 3.859 16.359 3.859 8.1784 0 8.1804-3.859 16.361-3.859 8.1804 0 8.1785 3.859 16.359 3.859s8.1785-3.859 16.359-3.859 8.1803 3.859 16.359 3.859 8.1805-3.859 16.36-3.859c8.181 0 8.181 3.859 16.361 3.859" strokeMiterlimit="10"/>
   <path d="m13.588 77.51c8.1804 0 8.1804 3.859 16.359 3.859 8.1784 0 8.1804-3.859 16.361-3.859 8.1804 0 8.1785 3.859 16.359 3.859s8.1785-3.859 16.359-3.859 8.1803 3.859 16.359 3.859 8.1805-3.859 16.36-3.859c8.181 0 8.181 3.859 16.361 3.859" strokeMiterlimit="10"/>
  </g>
  <g fill="#fff">
   <path d="m70.847 8.1868c-33.238 0-60.184 26.967-60.184 60.231 0 33.264 26.945 60.231 60.184 60.231 33.239 0 60.184-26.959 60.184-60.231 0-33.272-26.945-60.231-60.184-60.231zm-0.0154 115.22c-30.354 0-54.926-24.603-54.932-54.981 0-30.411 24.636-55.048 55.011-54.99 30.375 0.0579 54.911 24.659 54.884 55.033s-24.609 54.948-54.963 54.938z"/>
   <path d="m43.084 95.708c-0.1928-0.6656-1.1086-1.3275-1.82-1.2387-1.0102 0.1293-2.0166 0.2971-3.2313 0.4785 0.4473-1.1866 0.8252-2.1996 1.2108-3.2126 0.3335-0.8799-0.3856-1.3063-0.8367-1.7771-0.4512-0.4708-0.804 0.1235-1.1106 0.3666-1.633 1.2947-3.2158 2.6531-4.8642 3.9266-0.7828 0.6039-0.1928 0.9551 0.1234 1.3892 0.3161 0.4341 0.6381 0.9223 1.284 0.3531 0.7442-0.6541 1.5308-1.2619 2.3136-1.8967 0.0289 0.0733 0.0559 0.1081 0.0482 0.1312-0.1543 0.4477-0.322 0.8914-0.4724 1.341-0.3143 0.9493 0.293 1.642 1.2898 1.4857 0.4145-0.0656 0.8368-0.1929 1.3303 0.0193-0.802 0.658-1.498 1.2754-2.2422 1.8253-0.6112 0.4515-0.3181 0.82 0.0501 1.1581 0.3683 0.337 0.5225 1.217 1.311 0.578 1.7725-1.4299 3.5391-2.8648 5.3-4.3042 0.1813-0.1486 0.4145-0.2875 0.3162-0.6233z"/>
   <path d="m75.31 30.802c1.2609 0.5209 1.7603 0.2817 2.0205-1.0226 0.0579-0.2837 0.1099-0.5654 0.1793-0.8452 0.056-0.2276 0-0.6116 0.349-0.5634 0.349 0.0483 0.7963-0.0231 0.9235 0.4978 0.1273 0.521 0.2854 0.9822 0.428 1.4722 0.401 1.3507 0.6767 1.561 2.0514 1.6324 0.5167 0.027 0.6324-0.1486 0.4955-0.6097-0.2159-0.7352-0.403-1.4799-0.6324-2.2112-0.106-0.3338-0.1928-0.5306 0.2641-0.7217 1.1144-0.4707 1.4152-1.4818 1.4942-2.5218 0-1.285-0.7712-2.2247-2.2133-2.6106-1.1722-0.3126-2.3753-0.5075-3.5629-0.7718-0.4435-0.0965-0.6652 0.083-0.7481 0.5075-0.455 2.3154-0.9177 4.6462-1.3669 6.9731-0.0598 0.3145-0.1041 0.6213 0.3181 0.795zm3.3817-5.9814c0.9736-0.0984 1.9126 0.465 1.9029 1.0419-0.0096 0.5769-0.347 0.8567-1.0006 0.8741-0.403-0.3396-1.338 0.2122-1.4749-0.6503-0.0579-0.3647-0.1928-1.1789 0.5726-1.258z"/>
   <path d="m62.615 106.29c-0.5475-0.18-1.1066-0.405-1.2994 0.505-0.2102 1.002-0.5302 1.978-0.8618 3.184-0.5071-1.509-0.9775-2.801-1.3689-4.117-0.2564-0.861-0.9929-0.853-1.6137-0.965-0.6844-0.112-0.5611 0.579-0.669 0.965-0.5784 1.999-1.0758 4.025-1.6966 6.012-0.3047 0.98 0.4183 0.891 0.9003 1.059 0.5129 0.176 1.0546 0.386 1.2494-0.463 0.2332-1.017 0.5437-2.016 0.8579-3.153 0.1292 0.297 0.2179 0.467 0.2776 0.645 0.3856 1.157 0.7886 2.302 1.1568 3.461 0.2642 0.857 1.0354 0.805 1.6504 0.89s0.4878-0.579 0.5899-0.928c0.5784-2.003 1.0662-4.031 1.6967-6.015 0.2872-0.96-0.3779-0.918-0.8696-1.08z"/>
   <path d="m109.05 94.082c-0.632-0.0907-1.255-0.2779-1.889-0.3377-0.523-0.0482-0.654-0.2296-0.671-0.7718-0.043-1.3506-1.263-2.4582-2.592-2.4736-0.912-0.0251-1.609 0.4322-2.169 1.0728-0.696 0.7969-1.293 1.6786-1.9912 2.4736-0.4743 0.5422-0.4145 0.8779 0.1504 1.3043 1.6888 1.2773 3.3648 2.5759 5.0008 3.9169 0.579 0.463 0.87 0.4148 1.296-0.166 0.771-1.0515 0.802-1.0264-0.237-1.833-0.228-0.1775-0.467-0.3434-0.675-0.5422-0.16-0.1524-0.557-0.2141-0.334-0.5614 0.182-0.2798 0.338-0.6464 0.803-0.5519 0.464 0.0946 0.964 0.1081 1.413 0.2721 1.035 0.3859 1.679-0.0174 2.242-0.876 0.372-0.5576 0.391-0.822-0.347-0.9261zm-5.784 1.0477c-0.145 0.0115-1.182-0.8799-1.172-1.0092 0.025-0.3395 1.211-1.476 1.542-1.476 0.446 0.0887 0.771 0.3106 0.808 0.8007 0.021 0.2991-0.958 1.6652-1.178 1.6845z"/>
   <path d="m61.123 30.993c0.0675 0.3859 0.1928 0.6946 0.6728 0.6193 1.7352-0.301 3.482-0.5614 5.2056-0.9203 0.91-0.193 0.2834-0.8799 0.293-1.3507 0.0097-0.5036-0.2641-0.656-0.7577-0.5595-0.9427 0.1833-1.899 0.3087-2.8418 0.4959-0.4897 0.0964-0.6189-0.1274-0.6652-0.5461-0.0404-0.3724-0.0944-0.6618 0.4435-0.7216 0.7962-0.0849 1.5751-0.3107 2.3714-0.3956 0.8618-0.0926 0.7037-0.6348 0.6111-1.1827-0.0925-0.548-0.2082-0.9976-0.9639-0.7892-0.7076 0.1929-1.4576 0.2238-2.1709 0.4033-0.5013 0.1273-0.7462 0.0964-0.8503-0.4901-0.1137-0.6329 0.2372-0.685 0.6845-0.7525 0.7924-0.1177 1.5809-0.2702 2.3733-0.3859 0.5071-0.0772 0.8965-0.2181 0.6921-0.8567-0.1638-0.5133 0.0694-1.3236-0.989-1.1037-1.5058 0.3145-3.0231 0.5789-4.5462 0.7718-0.7287 0.0926-0.829 0.4187-0.721 1.0246 0.3913 2.2517 0.775 4.5015 1.1587 6.7397z"/>
   <path d="m86.846 107.2c-0.5623 0.228-1.1363 0.425-1.7197 0.592-0.4839 0.154-0.8329 0.351-0.5437 0.965 0.2294 0.474 0.1677 1.264 1.0835 0.897 0.1678-0.068 0.3471-0.226 0.5109-0.021 0.1639 0.204 0.0559 0.447-0.025 0.64-0.2352 0.554-0.7288 0.791-1.2821 0.888-0.5534 0.096-1.0103-0.168-1.286-0.65-0.3865-0.668-0.6479-1.4-0.7712-2.161-0.1793-1.125 0.8907-2.109 1.9106-1.617 0.8406 0.405 1.473 0.081 2.1864-0.128 0.4877-0.142 0.4897-0.434 0.2082-0.789-0.6517-0.822-1.5424-1.082-2.5527-1.125-1.0631-3e-3 -2.0912 0.381-2.8919 1.081-0.964 0.864-1.3496 1.96-0.964 3.212 0.4878 1.639 0.7712 3.474 2.8071 4.014 1.5617 0.411 2.9383-0.074 4.0488-1.181 1.2011-1.204 0.91-2.607 0.3856-4.037-0.2295-0.609-0.4531-0.868-1.1048-0.58z"/>
   <path d="m98.803 103.55c-0.7057 0.552-1.473 1.024-2.1806 1.576-0.3856 0.301-0.5784 0.207-0.8271-0.156s-0.3258-0.579 0.0887-0.851c0.642-0.423 1.2571-0.886 1.8817-1.333 0.2044-0.147 0.4512-0.267 0.4281-0.622-0.1642-0.438-0.4432-0.825-0.8079-1.119-0.3586-0.252-0.6362 0.133-0.9158 0.326-0.5784 0.402-1.1838 0.772-1.7236 1.224-0.4492 0.374-0.5784 0.033-0.8001-0.234-0.2661-0.31-0.2699-0.503 0.1022-0.746 0.723-0.473 1.392-1.029 2.1208-1.488 0.5976-0.3744 0.4704-0.7372 0.1195-1.1694-0.3104-0.3859-0.4994-0.9647-1.1857-0.4438-1.2571 0.9378-2.5488 1.8312-3.8348 2.7342-0.4049 0.284-0.4222 0.565-0.1388 0.965 1.3303 1.846 2.6433 3.704 3.9601 5.562 0.2391 0.336 0.4723 0.469 0.8676 0.182 1.3187-0.965 2.6484-1.914 3.989-2.846 0.6308-0.438 0.2488-0.803-0.0212-1.198-0.2699-0.396-0.5264-0.832-1.1221-0.363z"/>
   <path d="m49.003 100.42c-0.27-0.193-0.5553-0.102-0.7982 0.087-1.9511 1.518-3.9003 3.038-5.8476 4.561-0.2564 0.193-0.4473 0.477-0.0771 0.683 0.6825 0.386 1.3072 1.351 2.2153 0.332 0.0441-0.067 0.1129-0.114 0.1915-0.131 0.0787-0.017 0.1608-2e-3 0.2287 0.041 0.725 0.474 1.4557 0.939 2.1787 1.414 0.1928 0.131 0.1291 0.336 0.106 0.525-0.1022 0.828 0.4704 1.759 1.2937 1.804 0.8598 0.044 0.455-0.865 0.7249-1.291 0.0318-0.056 0.054-0.118 0.0655-0.181 0.5013-2.055 1.0026-4.112 1.5424-6.339-0.2159-0.833-1.1703-1.007-1.8238-1.505zm-1.234 5.156c-1.5057-0.886-1.5057-0.886-0.2834-1.862 0.2468-0.193 0.5013-0.386 0.8638-0.664-0.0921 0.862-0.2869 1.71-0.5804 2.526z"/>
   <path d="m46.514 35.383c0.9639 1.3391 2.4446 1.7365 4.014 1.1577 1.6311-0.5904 2.892-2.1842 2.8264-3.641-0.0342-0.3493-0.1146-0.6925-0.2391-1.0207-0.0174-0.0955-0.0684-0.1816-0.1437-0.2428s-0.1699-0.0935-0.2669-0.091c-0.5591 0-1.5867 1.0014-1.5944 1.6015-0.0097 0.8085-0.5264 1.2137-1.1723 1.4722-0.6111 0.2431-1.1567 0-1.5173-0.5074-0.4301-0.5963-0.813-1.2253-1.1452-1.8813-0.2699-0.5538-0.2198-1.1577 0.2834-1.588 0.5032-0.4302 1.126-0.7216 1.8412-0.3299 0.5013 0.2759 1.8528-0.193 2.1401-0.6811 0.1928-0.3126-0.054-0.4882-0.2102-0.6618-0.2597-0.294-0.5809-0.5273-0.9407-0.6834-0.3598-0.156-0.7495-0.231-1.1415-0.2196-2.5796 0.0096-4.5905 1.997-4.3186 4.1696 0.1542 1.2233 0.9119 2.188 1.5848 3.147z"/>
   <path d="m73.905 108.66c-0.6535-1.702-1.1028-1.929-2.8514-1.543-0.1427 0.015-0.2779 0.071-0.3897 0.161s-0.1954 0.21-0.2408 0.346c-0.7326 2.346-1.4627 4.696-2.1901 7.05-0.0637 0.207-0.1562 0.45 0.0906 0.612 0.5263 0.347 1.9087-0.139 2.1458-0.751 0.0983-0.254 0.1003-0.565 0.5225-0.557 0.7712 0.015 1.5424 0 2.3135-0.037 0.2738-0.011 0.4435 0.093 0.4917 0.34 0.1484 0.772 0.6111 0.999 1.2493 0.833 1.3052-0.032 1.311-0.036 0.883-1.157-0.6735-1.77-1.3483-3.536-2.0244-5.297zm-2.0359 3.487c-0.5784 0-0.6632-0.162-0.4897-0.654 0.2102-0.602 0.3856-1.216 0.6304-1.999 0.2565 0.656 0.4454 1.128 0.6247 1.603 0.401 1.075 0.3914 1.038-0.7654 1.05z"/>
   <path d="m90.848 36.411c0.4512 0.247 0.8811 0.905 1.4017 0.0348 0.6882-1.1577 1.4344-2.2749 2.1516-3.4114 0.8637-1.3661 0.8868-1.4066 2.275-0.5325 0.7384 0.4669 0.9331-0.0367 1.2435-0.4862 0.3316-0.4824 0.4627-0.8509-0.1928-1.2368-1.5424-0.9198-3.0558-1.8794-4.5403-2.8788-0.6305-0.4207-0.9428-0.3088-1.3496 0.3164-0.4512 0.6888-0.3586 1.0554 0.3393 1.4259 0.4049 0.2142 0.8579 0.411 1.1375 0.8123-0.1427 0.2296-0.2584 0.4226-0.3856 0.6117-0.8734 1.3815-1.7217 2.7784-2.6259 4.1387-0.4858 0.7486 0.0752 0.9474 0.5456 1.2059z"/>
   <path d="m92.67 78.424c-0.4955-2.0337-0.9852-4.0365-1.4807-6.0625-0.0254-0.1057-0.0782-0.2029-0.1531-0.2816-0.0749-0.0788-0.1693-0.1364-0.2736-0.1669-0.1043-0.0306-0.2147-0.033-0.3203-0.0071-0.1055 0.0259-0.2023 0.0793-0.2806 0.1546l-4.766 4.5652c-0.0744 0.0717-0.1287 0.1617-0.1574 0.261-0.0288 0.0993-0.0309 0.2045-0.0064 0.3049 0.0246 0.1004 0.0751 0.1926 0.1465 0.2673s0.1611 0.1294 0.2602 0.1586c0.1774 0.0501 0.3509 0.0984 0.5283 0.135 0.3856 0.083 0.347 0.2123 0.1677 0.4843-0.9987 1.5223-2.314 2.811-3.8559 3.778l-0.0386 0.0231c-1.3291 0.6324-2.7358 1.0866-4.1837 1.3507-1.4971 0.2873-3.0134 0.4627-4.5365 0.5248-0.0481 0.0016-0.0959-0.0066-0.1407-0.0241s-0.0855-0.044-0.1198-0.0777c-0.0342-0.0338-0.0613-0.0741-0.0795-0.1186-0.0182-0.0446-0.0271-0.0923-0.0263-0.1404v-21.298c0-0.0274 0.0054-0.0545 0.0158-0.0798 0.0105-0.0253 0.0258-0.0482 0.0452-0.0676 0.0193-0.0193 0.0423-0.0347 0.0675-0.0451 0.0253-0.0105 0.0524-0.0159 0.0797-0.0159 0.1928 0 0.428 0.0386 0.9929 0.0328 1.1105-0.0116 2.2673-0.0116 3.3817-0.0772 0.3624-0.0212 0.5649-0.0096 0.7962 0.164 0.4699 0.3716 1.0624 0.5523 1.6595 0.5062s1.1549-0.3158 1.5622-0.7551c0.4023-0.4411 0.6271-1.0156 0.631-1.6128s-0.2133-1.1747-0.6098-1.621c-0.3982-0.447-0.9505-0.7268-1.5462-0.7834-0.5957-0.0565-1.1908 0.1144-1.6658 0.4785-0.1335 0.124-0.306 0.1977-0.4878 0.2084-1.5527-0.0077-3.104-0.0077-4.6541 0-0.0953 0.0123-0.1915-0.0134-0.268-0.0714v-2.435c-0.0011-0.0831 0.0276-0.1639 0.081-0.2277 0.1099-0.1146 0.2408-0.2069 0.3855-0.272 2.5064-1.2735 3.8059-3.3651 3.8078-6.1493 0-4.405-4.2936-7.6099-8.539-6.4561-3.3662 0.9146-5.5526 4.2603-4.9183 7.6736 0.4666 2.5083 1.9415 4.2642 4.3399 5.1942 0.09 0.0326 0.176 0.0753 0.2564 0.1273 0.0436 0.0332 0.0787 0.0761 0.1024 0.1254 0.0238 0.0493 0.0356 0.1035 0.0345 0.1583v1.9912c0 0.0454-9e-3 0.0904-0.0265 0.1323s-0.0431 0.08-0.0754 0.1119c-0.0322 0.032-0.0705 0.0572-0.1126 0.0742s-0.0871 0.0255-0.1325 0.025c-1.6677-0.0193-3.3373-0.0115-5.0128 0-0.2304-0.0011-0.4543-0.0769-0.6381-0.2161-0.4763-0.3617-1.072-0.529-1.6668-0.4681-0.5948 0.0608-1.1443 0.3454-1.5375 0.7962-0.3943 0.443-0.6096 1.0171-0.6039 1.6104s0.232 1.1632 0.6348 1.5986c0.4027 0.4353 0.9531 0.705 1.5437 0.7563s1.1792-0.1194 1.6509-0.4788c0.181-0.1421 0.4063-0.2158 0.6362-0.2083 1.6176 0 3.2371 0.0231 4.8547 0 0.1455-0.0215 0.294 0.01 0.4183 0.0887 0.0198 0.0188 0.0353 0.0416 0.0456 0.0669 0.0104 0.0253 0.0152 0.0525 0.0142 0.0798v21.188c-1e-4 0.0492-0.0104 0.0979-0.0302 0.143s-0.0488 0.0856-0.085 0.1189c-0.0362 0.0334-0.0789 0.0588-0.1255 0.0749-0.0465 0.016-0.0958 0.0222-0.1449 0.0182-1.9646-0.1661-3.9129-0.4887-5.8263-0.9647-1.1737-0.2833-2.3158-0.6848-3.4087-1.1983-0.019-0.0084-0.0371-0.0187-0.054-0.0308-1.5418-1.0832-2.8277-2.4913-3.7672-4.1253-0.0265-0.0381-0.0425-0.0825-0.0465-0.1288-4e-3 -0.0462 0.0042-0.0927 0.0236-0.1348 0.0195-0.0421 0.0497-0.0784 0.0875-0.1053 0.0378-0.0268 0.082-0.0433 0.1282-0.0478l0.5109-0.1042c0.1014-0.0229 0.1951-0.072 0.2716-0.1424s0.1332-0.1597 0.1644-0.2589c0.0313-0.0992 0.0359-0.2049 0.0135-0.3065s-0.071-0.1955-0.141-0.2724l-4.4845-4.8913c-0.0684-0.0777-0.1564-0.1356-0.2548-0.1677s-0.2036-0.0371-0.3047-0.0147c-0.101 0.0225-0.1941 0.0717-0.2697 0.1425-0.0756 0.0707-0.1308 0.1605-0.1599 0.2599-0.6632 2.1012-1.3091 4.1542-1.9646 6.2361-0.0344 0.1086-0.0396 0.2244-0.015 0.3357 0.0247 0.1112 0.0783 0.214 0.1554 0.2978s0.175 0.1458 0.2838 0.1796c0.1087 0.0337 0.2244 0.0381 0.3354 0.0127l0.3471-0.0791c0.2134-0.0488 0.437-0.0253 0.6356 0.0669 0.1985 0.0922 0.3609 0.2479 0.4614 0.4425 2.5796 5.0167 6.4587 8.646 11.591 10.94 2.0051 0.8972 2.7994 1.1577 4.5307 1.422 0.0732 0.0112 0.1408 0.0457 0.1928 0.0984l2.6356 2.6145c0.1767 0.1722 0.4136 0.2685 0.6603 0.2685s0.4836-0.0963 0.6603-0.2685l2.5604-2.5083c0.0586-0.0569 0.1347-0.0922 0.2159-0.1004 2.5642-0.2412 3.7075-0.876 6.4664-2.1398 4.2705-1.9546 7.6618-5.3562 9.8443-9.5162 0.1928-0.3705 0.3624-0.4149 0.6902-0.3049 0.1253 0.0425 0.2525 0.083 0.3856 0.1216 0.1354 0.0422 0.2796 0.0473 0.4176 0.0149 0.1381-0.0324 0.2649-0.1012 0.3674-0.1993 0.1025-0.098 0.1769-0.2217 0.2155-0.3583s0.04-0.281 4e-3 -0.4182zm-21.998-25.436c-0.451-0.0158-0.8943-0.1209-1.3044-0.3092s-0.7789-0.456-1.0851-0.7877-0.5436-0.7208-0.6987-1.1449-0.2247-0.8747-0.2048-1.3258c0.0925-2.0182 1.7699-3.5078 3.6631-3.3631 1.9936 0.1544 3.3663 1.7578 3.266 3.6062-0.1079 2.0105-1.7544 3.4654-3.6361 3.3245z"/>
  </g>
 </g>
</svg>
