<svg viewBox="0 0 892.911 467.774" fill="none" stroke-linecap="square" stroke-miterlimit="10" xmlns="http://www.w3.org/2000/svg">
  <clipPath id="a">
    <path d="M0 0h892.91v467.774H0V0z"/>
  </clipPath>
  <g clip-path="url(#a)">
    <path fill="none" d="M0 0h892.91v467.774H0z"/>
    <path fill="#ffd966" d="M96.451 15.74h178.961v48.693H96.452z" fill-rule="evenodd"/>
    <path stroke="#000" stroke-linejoin="round" stroke-linecap="butt" d="M96.451 15.74h178.961v48.693H96.452z"/>
    <path fill="#000" d="M120.12 33.853v12.094h-1.062V33.853h1.063zm5.919 4.406q1.64 0 2.61 1.094.984 1.078.984 2.812v.328h-6.235q.125 1.172.89 1.938.767.75 1.86.75.719 0 1.36-.344.656-.344 1.047-.953l.812.672q-1.281 1.578-3.219 1.578-1.672 0-2.781-1.11-1.094-1.124-1.094-2.827 0-1.641 1.078-2.782 1.094-1.156 2.688-1.156zm2.437 3.375q0-1.11-.671-1.75-.657-.656-1.75-.656-.985 0-1.797.719-.797.703-.828 1.687h5.046zm4.787-5.281v2.11h2.172v.952h-2.172V43.9q0 .61.234.953.235.328.86.328.547 0 1.094-.297l.046.984q-.625.266-1.437.266-.875 0-1.36-.5-.484-.516-.484-1.437v-4.782h-1.594v-.953h1.594v-2.11h1.047zm6.015 1.906q1.86 0 2.5 1.344l-.937.625q-.532-1-1.625-1-.672 0-1.11.312-.437.297-.437.813 0 .484.344.75.359.265 1.39.484 1.36.297 1.813.656.468.36.64.797.172.422.172.797 0 1.063-.797 1.688-.797.61-2.11.61-1.905 0-2.874-1.454l.906-.625q.735 1.125 1.969 1.125.781 0 1.266-.344.5-.344.5-.937 0-.485-.422-.782-.407-.296-1.594-.53-2.36-.47-2.36-2.063 0-1.032.766-1.64.781-.626 2-.626zm7.785 0q1.64 0 2.61 1.094.984 1.078.984 2.812v.328h-6.235q.125 1.172.89 1.938.767.75 1.86.75.72 0 1.36-.344.656-.344 1.047-.953l.812.672q-1.281 1.578-3.219 1.578-1.672 0-2.78-1.11-1.095-1.124-1.095-2.827 0-1.641 1.078-2.782 1.094-1.156 2.688-1.156zm2.437 3.375q0-1.11-.671-1.75-.657-.656-1.75-.656-.985 0-1.797.719-.797.703-.828 1.687h5.046zm6.678-3.375q1.406 0 2.11.766.702.75.702 2.11v4.812h-1.047v-4.22q0-1.265-.468-1.874-.47-.625-1.5-.625-1.032 0-1.688.781-.656.781-.656 2.156v3.782h-1.047V40.04q0-.906-.078-1.578h1.078q.047.438.047 1.203h.031q.36-.625 1.063-1.015.703-.39 1.453-.39zm8.818 0q1.703 0 2.796 1.297l-.859.656q-.687-.984-1.906-.984-1.25 0-2.016.828-.765.828-.765 2.14 0 1.344.765 2.172.766.813 1.969.813 1.281 0 1.953-1l.86.656q-1.063 1.297-2.829 1.297-1.734 0-2.812-1.11-1.063-1.124-1.063-2.827 0-1.72 1.078-2.829 1.094-1.109 2.829-1.109zm7.712 0q.421 0 .78.11l-.202 1.03q-.172-.077-.594-.077-1.016 0-1.688.703-.656.687-.656 1.765v4.157h-1.047v-5.204q-.015-1.343-.062-2.28h1.031v1.39h.031q.625-1.594 2.407-1.594zm2.218.203l2.36 6.188 2.28-6.188h1.282l-3.64 9.219q-.438 1.11-.985 1.61-.532.5-1.485.5-.515 0-.953-.11l.11-1.031q.343.172.796.172.922 0 1.36-1.141l.625-1.64-3.078-7.579h1.328zm11.29-.203q1.703 0 2.844 1.125 1.14 1.11 1.14 2.813 0 1.718-1.14 2.828-1.125 1.11-2.844 1.11-.86 0-1.656-.376-.797-.39-1.266-1.062h-.031v5.859h-1.047V38.462h1.047v1.25h.031q.469-.672 1.25-1.062.797-.39 1.672-.39zm-3 3.938q0 1.25.86 2.125.859.859 2.14.859 1.266 0 2.047-.844.781-.844.781-2.14 0-1.329-.812-2.141-.797-.828-2.032-.828-1.28 0-2.14.875-.844.86-.844 2.094zm10.48-5.844v2.11h2.171v.952h-2.172V43.9q0 .61.235.953.234.328.859.328.547 0 1.094-.297l.047.984q-.625.266-1.438.266-.875 0-1.36-.5-.484-.516-.484-1.437v-4.782h-1.593v-.953h1.593v-2.11h1.047zm7.17 5.219v1.062h-4.109v-1.062h4.11zm4.172-3.313q1.86 0 2.5 1.344l-.937.625q-.531-1-1.625-1-.672 0-1.11.312-.437.297-.437.813 0 .484.344.75.36.265 1.39.484 1.36.297 1.813.656.469.36.64.797.172.422.172.797 0 1.063-.797 1.688-.796.61-2.109.61-1.906 0-2.875-1.454l.906-.625q.735 1.125 1.97 1.125.78 0 1.265-.344.5-.344.5-.937 0-.485-.422-.782-.406-.296-1.594-.53-2.36-.47-2.36-2.063 0-1.032.766-1.64.782-.626 2-.626zm6.113-1.906v2.11h2.172v.952h-2.172V43.9q0 .61.235.953.234.328.859.328.547 0 1.094-.297l.047.984q-.625.266-1.438.266-.875 0-1.36-.5-.484-.516-.484-1.437v-4.782h-1.593v-.953h1.593v-2.11h1.047zm6.703 1.906q1.297 0 2.031.734.734.72.734 1.875v3.485q0 .734.125 1.594h-1.03q-.095-.5-.095-1.22h-.03q-.47.735-1.11 1.079-.625.328-1.531.328-1.157 0-1.875-.61-.704-.609-.704-1.577 0-1.344 1.125-1.97 1.141-.624 3.579-.624h.484v-.156q0-1.032-.469-1.5-.469-.47-1.453-.47-1.312 0-2.281.876l-.64-.75q1.046-1.094 3.14-1.094zm-2.328 5.547q0 .64.484 1.016.484.359 1.281.359 1.016 0 1.64-.625.626-.64.626-1.938v-.406h-.734q-1.5 0-2.407.39-.89.391-.89 1.204zm10.96-5.547q1.89 0 2.875 1.438h.047v-1.235h1.062v7.485q0 1.828-1.047 2.828-1.046 1.015-2.968 1.015-2.188 0-3.61-1.5l.797-.843q.453.625 1.203 1t1.672.375q1.406 0 2.14-.766.75-.766.75-2.11V44.54h-.03q-.907 1.407-2.797 1.407-1.594 0-2.75-1.079-1.157-1.093-1.157-2.734 0-1.656 1.094-2.766 1.094-1.109 2.719-1.109zm-2.656 3.844q0 1.203.812 2.047.828.843 1.969.843 1.172 0 2-.796.828-.797.828-2 0-1.297-.781-2.125-.781-.844-2.063-.844-1.156 0-1.968.844-.797.843-.797 2.03zm9.776-7.297q.297 0 .531.234.234.235.234.532 0 .328-.234.562-.234.219-.531.219-.297 0-.532-.219-.234-.234-.234-.562 0-.313.234-.532.235-.234.532-.234zm.531 3.656v7.485h-1.063v-7.485h1.063zm6.137-.203q1.406 0 2.11.766.702.75.702 2.11v4.812h-1.047v-4.22q0-1.265-.468-1.874-.469-.625-1.5-.625-1.032 0-1.688.781-.656.781-.656 2.156v3.782h-1.047V40.04q0-.906-.078-1.578h1.078q.047.438.047 1.203h.031q.36-.625 1.063-1.015.703-.39 1.453-.39zm8.724 0q1.89 0 2.875 1.438h.047v-1.235h1.062v7.485q0 1.828-1.046 2.828-1.047 1.015-2.97 1.015-2.187 0-3.609-1.5l.797-.843q.453.625 1.203 1t1.672.375q1.407 0 2.14-.766.75-.766.75-2.11V44.54h-.03q-.907 1.407-2.797 1.407-1.594 0-2.75-1.079-1.156-1.093-1.156-2.734 0-1.656 1.093-2.766 1.094-1.109 2.719-1.109zm-2.656 3.844q0 1.203.812 2.047.828.843 1.969.843 1.172 0 2-.796.828-.797.828-2 0-1.297-.781-2.125-.781-.844-2.063-.844-1.156 0-1.968.844-.797.843-.797 2.03z"/>
    <path fill="#ffd966" d="M298.207 15.74h178.961v48.693h-178.96z" fill-rule="evenodd"/>
    <path stroke="#000" stroke-linejoin="round" stroke-linecap="butt" d="M298.207 15.74h178.961v48.693h-178.96z"/>
    <path fill="#000" d="M331.205 33.853v12.094h-1.063V33.853h1.063zm5.918 4.406q1.64 0 2.61 1.094.984 1.078.984 2.812v.328h-6.235q.125 1.172.89 1.938.766.75 1.86.75.719 0 1.36-.344.656-.344 1.046-.953l.813.672q-1.281 1.578-3.219 1.578-1.672 0-2.781-1.11-1.094-1.124-1.094-2.827 0-1.641 1.078-2.782 1.094-1.156 2.688-1.156zm2.437 3.375q0-1.11-.672-1.75-.656-.656-1.75-.656-.984 0-1.796.719-.797.703-.829 1.687h5.047zm4.787-5.281v2.11h2.172v.952h-2.172V43.9q0 .61.234.953.235.328.86.328.547 0 1.093-.297l.047.984q-.625.266-1.437.266-.875 0-1.36-.5-.484-.516-.484-1.437v-4.782h-1.594v-.953h1.594v-2.11h1.047zm6.015 1.906q1.86 0 2.5 1.344l-.937.625q-.532-1-1.625-1-.672 0-1.11.312-.437.297-.437.813 0 .484.343.75.36.265 1.391.484 1.36.297 1.813.656.468.36.64.797.172.422.172.797 0 1.063-.797 1.688-.797.61-2.11.61-1.905 0-2.874-1.454l.906-.625q.734 1.125 1.969 1.125.781 0 1.265-.344.5-.344.5-.937 0-.485-.421-.782-.407-.296-1.594-.53-2.36-.47-2.36-2.063 0-1.032.766-1.64.781-.626 2-.626zm7.785 0q1.64 0 2.61 1.094.984 1.078.984 2.812v.328h-6.235q.125 1.172.89 1.938.766.75 1.86.75.719 0 1.36-.344.656-.344 1.046-.953l.813.672q-1.281 1.578-3.219 1.578-1.672 0-2.781-1.11-1.094-1.124-1.094-2.827 0-1.641 1.078-2.782 1.094-1.156 2.688-1.156zm2.437 3.375q0-1.11-.672-1.75-.656-.656-1.75-.656-.984 0-1.796.719-.797.703-.829 1.687h5.047zm6.678-3.375q1.406 0 2.109.766.703.75.703 2.11v4.812h-1.047v-4.22q0-1.265-.469-1.874-.468-.625-1.5-.625-1.03 0-1.687.781-.656.781-.656 2.156v3.782h-1.047V40.04q0-.906-.078-1.578h1.078q.047.438.047 1.203h.031q.36-.625 1.062-1.015.704-.39 1.454-.39zm8.817 0q1.704 0 2.797 1.297l-.859.656q-.688-.984-1.906-.984-1.25 0-2.016.828t-.766 2.14q0 1.344.766 2.172.766.813 1.969.813 1.281 0 1.953-1l.86.656q-1.063 1.297-2.829 1.297-1.734 0-2.812-1.11-1.063-1.124-1.063-2.827 0-1.72 1.078-2.829 1.094-1.109 2.828-1.109zm7.713 0q.421 0 .78.11l-.202 1.03q-.172-.077-.594-.077-1.016 0-1.688.703-.656.687-.656 1.765v4.157h-1.047v-5.204q-.015-1.343-.062-2.28h1.031v1.39h.031q.625-1.594 2.407-1.594zm2.218.203l2.36 6.188 2.28-6.188h1.282l-3.641 9.219q-.437 1.11-.984 1.61-.532.5-1.485.5-.515 0-.953-.11l.11-1.031q.343.172.796.172.922 0 1.36-1.141l.625-1.64-3.078-7.579h1.328zm11.29-.203q1.703 0 2.844 1.125 1.14 1.11 1.14 2.813 0 1.718-1.14 2.828-1.125 1.11-2.844 1.11-.86 0-1.656-.376-.797-.39-1.266-1.062h-.031v5.859H393.3V38.462h1.047v1.25h.031q.469-.672 1.25-1.062.797-.39 1.672-.39zm-3 3.938q0 1.25.86 2.125.859.859 2.14.859 1.266 0 2.047-.844.781-.844.781-2.14 0-1.329-.812-2.141-.797-.828-2.032-.828-1.28 0-2.14.875-.844.86-.844 2.094zm10.48-5.844v2.11h2.17v.952h-2.17V43.9q0 .61.233.953.235.328.86.328.547 0 1.094-.297l.046.984q-.625.266-1.437.266-.875 0-1.36-.5-.484-.516-.484-1.437v-4.782h-1.594v-.953h1.594v-2.11h1.047zm7.17 5.219v1.062h-4.109v-1.062h4.11zm5.766-3.313q1.703 0 2.844 1.125 1.14 1.11 1.14 2.813 0 1.718-1.14 2.828-1.125 1.11-2.844 1.11-.86 0-1.656-.376-.797-.39-1.266-1.062h-.031v5.859h-1.047V38.462h1.047v1.25h.031q.469-.672 1.25-1.062.797-.39 1.672-.39zm-3 3.938q0 1.25.86 2.125.859.859 2.14.859 1.266 0 2.047-.844.781-.844.781-2.14 0-1.329-.812-2.141-.797-.828-2.032-.828-1.28 0-2.14.875-.844.86-.844 2.094zm12.292-3.938q.421 0 .78.11l-.202 1.03q-.172-.077-.594-.077-1.016 0-1.688.703-.656.687-.656 1.765v4.157h-1.047v-5.204q-.015-1.343-.062-2.28h1.031v1.39h.031q.625-1.594 2.407-1.594zm5.086 0q1.703 0 2.844 1.11 1.14 1.109 1.14 2.828 0 1.703-1.109 2.828-1.11 1.11-2.875 1.11-1.719 0-2.844-1.11-1.125-1.125-1.125-2.828 0-1.657 1.125-2.797 1.125-1.14 2.844-1.14zm-2.812 3.938q0 1.296.765 2.14.781.844 2.047.844 1.281 0 2.047-.86.781-.859.781-2.124 0-1.329-.797-2.141-.797-.828-2.047-.828-1.265 0-2.03.86-.766.843-.766 2.109zm16.19-8.344v12.094h-1.062v-1.25h-.031q-.469.687-1.281 1.062-.797.375-1.625.375-1.75 0-2.875-1.125-1.11-1.14-1.11-2.812 0-1.657 1.11-2.797 1.125-1.14 2.875-1.14.86 0 1.656.39.797.39 1.25 1.062h.031v-5.86h1.063zm-6.827 8.344q0 1.328.796 2.156.797.828 2.032.828 1.281 0 2.125-.86.86-.874.86-2.124 0-1.235-.86-2.094-.844-.875-2.14-.875-1.22 0-2.017.844-.796.828-.796 2.125z"/>
    <path fill="#ffd966" d="M499.963 15.74h178.96v48.693h-178.96z" fill-rule="evenodd"/>
    <path stroke="#000" stroke-linejoin="round" stroke-linecap="butt" d="M499.963 15.74h178.96v48.693h-178.96z"/>
    <path fill="#000" d="M554.192 38.462l2.406 6.328 2.39-6.328h1.204l-3.031 7.485h-1.188l-3.047-7.485h1.266zm10.477-.203q1.297 0 2.032.734.734.72.734 1.875v3.485q0 .734.125 1.594h-1.031q-.094-.5-.094-1.22h-.031q-.469.735-1.11 1.079-.625.328-1.53.328-1.157 0-1.876-.61-.703-.609-.703-1.577 0-1.344 1.125-1.97 1.14-.624 3.578-.624h.485v-.156q0-1.032-.47-1.5-.468-.47-1.452-.47-1.313 0-2.282.876l-.64-.75q1.047-1.094 3.14-1.094zm-2.328 5.547q0 .64.485 1.016.484.359 1.281.359 1.016 0 1.64-.625.626-.64.626-1.938v-.406h-.735q-1.5 0-2.406.39-.89.391-.89 1.204zm8.586-5.344v4.219q0 1.297.468 1.906.485.594 1.547.594.985 0 1.64-.797.657-.797.657-2.016v-3.906h1.047v5.906q.031.891.078 1.579h-1.078q-.047-.61-.047-1.204h-.031q-.406.657-1.11 1.032-.703.36-1.406.36-1.453 0-2.14-.782-.672-.781-.672-2.078v-4.813h1.047zm9.146-4.61v12.095h-1.063V33.853h1.063zm4.262 2.5v2.11h2.172v.953h-2.172V43.9q0 .61.234.953.235.328.86.328.547 0 1.093-.297l.047.984q-.625.266-1.437.266-.875 0-1.36-.5-.484-.516-.484-1.437v-4.782h-1.594v-.953h1.594v-2.11h1.047zm7.171 5.22v1.062h-4.11v-1.062h4.11zm5.766-3.313q1.703 0 2.844 1.125 1.14 1.11 1.14 2.813 0 1.718-1.14 2.828-1.125 1.11-2.844 1.11-.86 0-1.656-.376-.797-.39-1.266-1.062h-.031v5.859h-1.047V38.462h1.047v1.25h.031q.469-.672 1.25-1.062.797-.39 1.672-.39zm-3 3.938q0 1.25.86 2.125.859.859 2.14.859 1.265 0 2.047-.844.781-.844.781-2.14 0-1.329-.813-2.141-.796-.828-2.03-.828-1.282 0-2.141.875-.844.86-.844 2.094zm12.291-3.938q.422 0 .782.11l-.203 1.03q-.172-.077-.594-.077-1.016 0-1.688.703-.656.687-.656 1.765v4.157h-1.047v-5.204q-.015-1.343-.062-2.28h1.031v1.39h.031q.625-1.594 2.406-1.594zm5.087 0q1.703 0 2.844 1.11 1.14 1.109 1.14 2.828 0 1.703-1.109 2.828-1.11 1.11-2.875 1.11-1.719 0-2.844-1.11-1.125-1.125-1.125-2.828 0-1.657 1.125-2.797 1.125-1.14 2.844-1.14zm-2.813 3.938q0 1.296.766 2.14.781.844 2.047.844 1.281 0 2.047-.86.781-.859.781-2.124 0-1.329-.797-2.141-.797-.828-2.047-.828-1.265 0-2.03.86-.767.843-.767 2.109zm16.192-8.344v12.094h-1.063v-1.25h-.031q-.469.687-1.281 1.062-.797.375-1.625.375-1.75 0-2.875-1.125-1.11-1.14-1.11-2.812 0-1.657 1.11-2.797 1.125-1.14 2.875-1.14.859 0 1.656.39.797.39 1.25 1.062h.031v-5.86h1.063zm-6.829 8.344q0 1.328.797 2.156.797.828 2.032.828 1.28 0 2.125-.86.859-.874.859-2.124 0-1.235-.86-2.094-.843-.875-2.14-.875-1.219 0-2.016.844-.797.828-.797 2.125z"/>
    <path fill="#6d9eeb" d="M336.255 270.606h140.011v60.892c0 6.727-5.454 12.18-12.18 12.18h-140.01l-.001-.002.001-60.891c0-6.726 5.453-12.179 12.179-12.179z" fill-rule="evenodd"/>
    <path stroke="#000" stroke-linejoin="round" stroke-linecap="butt" d="M336.255 270.606h140.011v60.892c0 6.727-5.454 12.18-12.18 12.18h-140.01l-.001-.002.001-60.891c0-6.726 5.453-12.179 12.179-12.179z"/>
    <path fill="#000" d="M355.437 293.234q.531 0 1.062.125l-.218 1.125q-.5-.125-.954-.125-.796 0-1.187.484-.39.484-.39 1.672v2.312h2.062v1.125h-2.063v7.61h-1.234v-7.61h-1.844v-1.125h1.844v-2.484q0-1.469.719-2.281.734-.828 2.203-.828zm6.006 5.375q1.985 0 3.313 1.296 1.344 1.282 1.344 3.297 0 1.97-1.297 3.282-1.297 1.296-3.36 1.296-2.015 0-3.328-1.296-1.297-1.313-1.297-3.282 0-1.953 1.297-3.265 1.313-1.328 3.328-1.328zm-3.28 4.593q0 1.5.905 2.485.907.984 2.375.984 1.5 0 2.407-1 .906-1 .906-2.469 0-1.547-.938-2.5-.937-.968-2.39-.968-1.469 0-2.375 1-.89.984-.89 2.468zm14.344-4.593q1.984 0 3.312 1.296 1.344 1.282 1.344 3.297 0 1.97-1.297 3.282-1.297 1.296-3.36 1.296-2.015 0-3.328-1.296-1.296-1.313-1.296-3.282 0-1.953 1.296-3.265 1.313-1.328 3.329-1.328zm-3.282 4.593q0 1.5.907 2.485.906.984 2.375.984 1.5 0 2.406-1 .906-1 .906-2.469 0-1.547-.937-2.5-.938-.968-2.391-.968-1.469 0-2.375 1-.89.984-.89 2.468zm11.423 2.453q.422 0 .703.297.297.297.297.72 0 .405-.297.702-.281.297-.703.297-.453 0-.735-.297-.28-.297-.28-.703 0-.422.296-.719.297-.297.719-.297zm5.17-12.203v6.828h.032q.547-.78 1.469-1.218.922-.453 1.922-.453 2.046 0 3.343 1.312 1.313 1.297 1.313 3.281 0 1.985-1.328 3.282-1.313 1.296-3.328 1.296-.985 0-1.922-.437-.922-.453-1.47-1.234h-.03v1.453h-1.235v-14.11h1.235zm-.062 9.75q0 1.453 1 2.47 1 1 2.485 1 1.484 0 2.39-.985.922-.985.922-2.485 0-1.547-.953-2.5-.938-.968-2.375-.968-1.484 0-2.484 1-.985 1-.985 2.468zm13.852-4.593q1.5 0 2.344.843.86.828.86 2.203v4.047q0 .86.156 1.86h-1.204q-.109-.578-.109-1.422h-.031q-.547.86-1.281 1.25-.735.39-1.797.39-1.344 0-2.188-.703-.828-.703-.828-1.843 0-1.579 1.313-2.297 1.328-.735 4.171-.735h.563v-.187q0-1.188-.547-1.735-.547-.546-1.687-.546-1.532 0-2.672 1.015l-.75-.875q1.234-1.265 3.687-1.265zm-2.734 6.453q0 .75.562 1.187.578.422 1.5.422 1.188 0 1.907-.734.734-.75.734-2.25v-.469h-.86q-1.75 0-2.796.453-1.047.438-1.047 1.39zm12.901-6.453q.485 0 .906.109l-.234 1.219q-.219-.094-.703-.094-1.172 0-1.953.812-.766.813-.766 2.063v4.844h-1.234v-6.063q-.016-1.562-.063-2.672h1.203v1.625h.047q.72-1.843 2.797-1.843zm1.617 7.046q.422 0 .704.297.296.297.296.72 0 .405-.296.702-.282.297-.704.297-.453 0-.734-.297-.281-.297-.281-.703 0-.422.297-.719t.718-.297zm8.046-7.046q1.969 0 3.266 1.515l-1.016.766q-.797-1.156-2.219-1.156-1.453 0-2.359.968-.89.97-.89 2.5 0 1.563.89 2.516.906.953 2.297.953 1.5 0 2.281-1.156l1.016.765q-1.25 1.5-3.313 1.5-2.015 0-3.265-1.296-1.25-1.313-1.25-3.282 0-2.015 1.265-3.297 1.282-1.296 3.297-1.296zm9.055 0q1.984 0 3.313 1.296 1.343 1.282 1.343 3.297 0 1.97-1.297 3.282-1.296 1.296-3.359 1.296-2.016 0-3.328-1.296-1.297-1.313-1.297-3.282 0-1.953 1.297-3.265 1.312-1.328 3.328-1.328zm-3.281 4.593q0 1.5.906 2.485.906.984 2.375.984 1.5 0 2.406-1 .907-1 .907-2.469 0-1.547-.938-2.5-.937-.968-2.39-.968-1.47 0-2.376 1-.89.984-.89 2.468zm14.25-4.593q2.079 0 2.782 1.812.39-.86 1.187-1.328.813-.484 1.703-.484 1.625 0 2.438.875.828.875.828 2.468v5.61h-1.219v-5.188q0-1.36-.515-2-.516-.64-1.688-.64-1.219 0-1.844.875-.625.859-.625 2.234v4.719h-1.234v-5.188q0-1.36-.5-2-.5-.64-1.672-.64-1.11 0-1.797.921-.687.907-.687 2.47v4.437h-1.235v-6.907q0-1.046-.093-1.828h1.328v1.328h.03q.407-.687 1.188-1.109.797-.437 1.625-.437zM362.8 314.335l-1.61 7.547h-.78l1.609-7.547h.781zm2.876 2.437q1.234 0 1.453.891l-.703.422q-.203-.672-.937-.672-.438 0-.782.203-.343.188-.406.531-.078.328.11.516.203.172.874.312.86.204 1.11.438.25.234.312.531.063.281 0 .531-.156.72-.78 1.125-.61.407-1.485.407-1.266 0-1.703-.969l.687-.406q.344.734 1.156.734.532 0 .89-.219.376-.234.454-.625.078-.328-.156-.515-.235-.203-1-.36-1.485-.312-1.266-1.375.14-.687.75-1.093.61-.407 1.422-.407zm4.54 0q1.234 0 1.453.891l-.703.422q-.203-.672-.938-.672-.437 0-.781.203-.344.188-.406.531-.078.328.109.516.203.172.875.312.86.204 1.11.438.25.234.312.531.062.281 0 .531-.156.72-.781 1.125-.61.407-1.485.407-1.265 0-1.703-.969l.688-.406q.343.734 1.156.734.531 0 .89-.219.376-.234.454-.625.078-.328-.157-.515-.234-.203-1-.36-1.484-.312-1.265-1.375.14-.687.75-1.093.61-.407 1.422-.407zm3.602.125l-.594 2.813q-.187.86.031 1.265.235.391.953.391.657 0 1.204-.516.546-.53.734-1.359l.547-2.594h.703l-.844 3.922q-.11.61-.172 1.063h-.718q.062-.407.14-.797h-.031q-.36.437-.89.687-.516.235-.985.235-.969 0-1.313-.516-.328-.531-.156-1.39l.688-3.204h.703zm7.503-.125q1.094 0 1.578.72.5.718.25 1.874l-.047.219h-4.156q-.063.765.328 1.281.406.5 1.14.5.47 0 .954-.219.484-.234.828-.64l.453.453q-1.094 1.047-2.375 1.047-1.11 0-1.688-.735-.578-.75-.328-1.89.235-1.094 1.11-1.844.89-.766 1.953-.766zm1.14 2.235q.157-.735-.187-1.157-.344-.437-1.078-.437-.656 0-1.297.469-.64.468-.797 1.125h3.36zm4.879-2.235q.28 0 .515.063l-.297.687q-.11-.047-.39-.047-.672 0-1.22.47-.53.452-.671 1.171l-.594 2.766h-.703l.735-3.469q.171-.89.28-1.516h.688l-.203.922h.031q.641-1.047 1.829-1.047zm1.897.063q.234 0 .36.172.14.172.093.406-.047.234-.266.406-.203.172-.437.172-.266 0-.39-.172-.11-.172-.063-.406.047-.234.25-.406.203-.172.453-.172zm-.844 3.953q.234 0 .36.172.14.172.093.406-.047.234-.265.406-.204.172-.438.172-.266 0-.39-.172-.11-.172-.063-.406.047-.234.25-.406.203-.172.453-.172zm6.253-3.89l.703 4.218 2.5-4.219h.797l-3.078 4.985h-.797l-.953-4.985h.828zm7.199-.126q1.094 0 1.578.72.5.718.25 1.874l-.047.219h-4.156q-.062.765.328 1.281.406.5 1.14.5.47 0 .954-.219.484-.234.828-.64l.453.453q-1.094 1.047-2.375 1.047-1.11 0-1.687-.735-.578-.75-.328-1.89.234-1.094 1.109-1.844.89-.766 1.953-.766zm1.14 2.235q.157-.735-.187-1.157-.344-.437-1.078-.437-.656 0-1.297.469-.64.468-.797 1.125h3.36zm4.941-2.235q.938 0 1.297.5.36.5.172 1.407l-.688 3.203h-.703l.594-2.813q.188-.844-.047-1.25-.219-.406-.906-.406-.688 0-1.234.516-.547.515-.75 1.437l-.532 2.516h-.703l.844-3.938q.125-.61.172-1.047h.719q-.032.297-.141.797h.016q.328-.422.859-.672.531-.25 1.031-.25zm5.581 0q.875 0 1.25.485.391.468.22 1.25l-.5 2.312q-.095.485-.141 1.063h-.672q-.016-.328.093-.813h-.015q-.422.5-.89.719-.47.219-1.063.219-.782 0-1.172-.407-.375-.406-.235-1.046.188-.907 1.032-1.313.843-.422 2.468-.422h.329l.015-.11q.14-.671-.11-.984-.25-.312-.89-.312-.875 0-1.656.578l-.313-.5q.86-.719 2.25-.719zm-2.343 3.688q-.078.422.187.672.266.234.797.234.688 0 1.188-.422t.687-1.281l.063-.266h-.5q-1 0-1.657.266-.64.25-.765.797zm8.562-6.766q.296 0 .593.078l-.25.641q-.281-.078-.531-.078-.453 0-.75.281-.281.281-.422.953l-.281 1.328h1.187l-.14.641h-1.188l-.922 4.344h-.703l.922-4.344h-1.047l.14-.64h1.048l.297-1.423q.187-.843.687-1.312.516-.469 1.36-.469zm1.25.766q.203 0 .328.156t.078.36q-.047.218-.235.374-.187.141-.39.141-.188 0-.328-.14-.125-.157-.078-.376.046-.218.234-.359.203-.156.39-.156zm-.172 2.437l-1.063 4.985h-.703l1.063-4.985h.703zm3.8 2.078l-.156.704h-2.734l.156-.704h2.734zm3.049-3.484l-.297 1.406h1.437l-.14.641h-1.438l-.64 2.984q-.078.407.03.625.11.22.517.22.375 0 .78-.188l-.109.656q-.468.172-1 .172-.578 0-.843-.328-.25-.344-.11-.954l.672-3.187h-1.047l.14-.64h1.048l.297-1.407h.703zm4.803 1.281q1.141 0 1.735.735.593.734.343 1.875-.25 1.14-1.156 1.89-.906.735-2.047.735-.578 0-1.062-.25-.469-.266-.688-.703h-.015l-.828 3.89h-.704l1.72-8.047h.702l-.172.828h.016q.406-.453.984-.703.594-.25 1.172-.25zm-2.562 2.61q-.172.843.265 1.422.454.562 1.313.562.828 0 1.469-.547.64-.562.828-1.437.187-.875-.235-1.422-.421-.547-1.234-.547-.86 0-1.547.578-.687.563-.86 1.39zm9.073-2.61q1.141 0 1.735.735.594.734.344 1.875-.25 1.14-1.157 1.89-.906.735-2.047.735-.578 0-1.062-.25-.469-.266-.688-.703h-.015l-.828 3.89h-.703l1.718-8.047h.703l-.171.828h.015q.406-.453.985-.703.593-.25 1.171-.25zm-2.562 2.61q-.172.843.266 1.422.453.562 1.312.562.828 0 1.469-.547.64-.562.828-1.437.187-.875-.234-1.422-.422-.547-1.235-.547-.86 0-1.547.578-.687.563-.86 1.39z"/>
    <path fill="none" d="M3.307 18.782h80.095v42.016H3.307z"/>
    <path fill="#000" d="M14.041 45.702v-13.36h1.766v13.36h-1.766zm4.028-2.89l1.625-.25q.125.968.75 1.5.625.515 1.75.515t1.671-.453q.547-.469.547-1.094 0-.547-.484-.875-.328-.218-1.672-.547-1.812-.468-2.516-.796-.687-.329-1.046-.907-.36-.593-.36-1.312 0-.64.297-1.188.297-.562.813-.922.375-.28 1.03-.468.673-.203 1.423-.203 1.14 0 2 .328.859.328 1.265.89.422.563.578 1.5l-1.609.219q-.11-.75-.64-1.172-.516-.422-1.47-.422-1.14 0-1.624.375-.47.375-.47.875 0 .313.188.578.204.266.641.438.234.094 1.438.422 1.75.453 2.437.75.688.297 1.078.86.39.562.39 1.405 0 .829-.484 1.547-.468.719-1.375 1.125-.906.39-2.046.39-1.875 0-2.875-.78-.985-.782-1.25-2.328zm9.328 0l1.625-.25q.125.968.75 1.5.625.515 1.75.515t1.672-.453q.546-.469.546-1.094 0-.547-.484-.875-.328-.218-1.672-.547-1.812-.468-2.515-.796-.688-.329-1.047-.907-.36-.593-.36-1.312 0-.64.297-1.188.297-.562.813-.922.375-.28 1.03-.468.673-.203 1.423-.203 1.14 0 2 .328.86.328 1.265.89.422.563.579 1.5l-1.61.219q-.11-.75-.64-1.172-.516-.422-1.47-.422-1.14 0-1.624.375-.469.375-.469.875 0 .313.188.578.203.266.64.438.235.094 1.438.422 1.75.453 2.437.75.688.297 1.078.86.39.562.39 1.405 0 .829-.483 1.547-.47.719-1.375 1.125-.907.39-2.047.39-1.875 0-2.875-.78-.985-.782-1.25-2.328zm16.312 2.89V44.28q-1.125 1.64-3.062 1.64-.86 0-1.61-.327-.734-.328-1.093-.828-.36-.5-.5-1.22-.11-.468-.11-1.53V36.03h1.64v5.36q0 1.28.11 1.734.156.64.656 1.016.5.375 1.235.375.734 0 1.375-.375.656-.391.922-1.032.265-.656.265-1.89V36.03h1.64v9.672H43.71zm10.673-3.11l1.687.204q-.406 1.484-1.484 2.312-1.078.813-2.766.813-2.125 0-3.375-1.297-1.234-1.312-1.234-3.672 0-2.453 1.25-3.797 1.265-1.343 3.265-1.343 1.938 0 3.157 1.328 1.234 1.312 1.234 3.703v.437h-7.219q.094 1.594.907 2.453.812.844 2.015.844.906 0 1.547-.469.64-.484 1.016-1.515zm-5.39-2.655h5.405q-.109-1.22-.625-1.829-.78-.953-2.03-.953-1.126 0-1.907.766-.766.75-.844 2.016zm9.125 5.765V36.03h1.469V37.5q.562-1.031 1.03-1.36.485-.327 1.063-.327.828 0 1.688.53l-.563 1.516q-.609-.359-1.203-.359-.547 0-.969.328-.421.328-.609.89-.281.876-.281 1.923v5.062h-1.625zm5.572-2.89l1.625-.25q.125.968.75 1.5.625.515 1.75.515t1.672-.453q.547-.469.547-1.094 0-.547-.485-.875-.328-.218-1.672-.547-1.812-.468-2.515-.796-.688-.329-1.047-.907-.36-.593-.36-1.312 0-.64.297-1.188.297-.562.813-.922.375-.28 1.031-.468.672-.203 1.422-.203 1.14 0 2 .328.86.328 1.266.89.421.563.578 1.5l-1.61.219q-.109-.75-.64-1.172-.516-.422-1.469-.422-1.14 0-1.625.375-.469.375-.469.875 0 .313.188.578.203.266.64.438.235.094 1.438.422 1.75.453 2.437.75.688.297 1.078.86.391.562.391 1.405 0 .829-.484 1.547-.469.719-1.375 1.125-.907.39-2.047.39-1.875 0-2.875-.78-.984-.782-1.25-2.328z"/>
    <path fill="none" d="M198.239 289.478h118.709v42.015h-118.71z"/>
    <path fill="#000" d="M218.208 311.71l1.765.453q-.562 2.172-2 3.328-1.437 1.141-3.531 1.141-2.156 0-3.516-.875-1.343-.89-2.062-2.547-.703-1.672-.703-3.594 0-2.078.797-3.625.796-1.562 2.265-2.359 1.485-.812 3.25-.812 2 0 3.36 1.015 1.375 1.016 1.906 2.875l-1.735.406q-.468-1.453-1.359-2.109-.875-.672-2.203-.672-1.547 0-2.578.735-1.031.734-1.453 1.984-.422 1.234-.422 2.562 0 1.704.5 2.97.5 1.265 1.547 1.905 1.047.625 2.265.625 1.485 0 2.516-.859 1.031-.86 1.39-2.547zm10.363 1.578l1.688.203q-.407 1.485-1.485 2.313-1.078.812-2.765.812-2.125 0-3.375-1.296-1.235-1.313-1.235-3.672 0-2.453 1.25-3.797 1.266-1.344 3.266-1.344 1.937 0 3.156 1.328 1.235 1.313 1.235 3.703v.438h-7.22q.095 1.594.907 2.453.813.844 2.016.844.906 0 1.547-.47.64-.483 1.015-1.515zm-5.39-2.656h5.406q-.11-1.219-.625-1.828-.781-.953-2.031-.953-1.125 0-1.907.765-.765.75-.843 2.016zm9.125 5.766v-9.672h1.469v1.469q.563-1.032 1.031-1.36.485-.328 1.063-.328.828 0 1.687.531l-.562 1.516q-.61-.36-1.203-.36-.547 0-.97.329-.421.328-.608.89-.282.875-.282 1.922v5.063h-1.625zm9.807-1.47l.234 1.454q-.687.14-1.234.14-.89 0-1.39-.28-.485-.282-.688-.735-.204-.469-.204-1.937v-5.579h-1.203v-1.265h1.203v-2.39l1.625-.985v3.375h1.657v1.265h-1.657v5.672q0 .688.079.89.093.204.28.329.204.11.579.11.266 0 .719-.063zm1.605-10v-1.89h1.64v1.89h-1.64zm0 11.47v-9.672h1.64v9.672h-1.64zm4.535 0v-8.407H246.8v-1.265h1.453v-1.031q0-.97.172-1.454.235-.64.828-1.03.594-.391 1.672-.391.688 0 1.531.156l-.25 1.437q-.5-.093-.953-.093-.75 0-1.062.328-.313.312-.313 1.187v.89h1.89v1.266h-1.89v8.407h-1.625zm4.793-11.47v-1.89h1.64v1.89h-1.64zm0 11.47v-9.672h1.64v9.672h-1.64zm10.457-3.547l1.61.219q-.266 1.656-1.36 2.609-1.078.937-2.672.937-1.984 0-3.187-1.296-1.203-1.297-1.203-3.72 0-1.577.515-2.75.516-1.171 1.579-1.75 1.062-.593 2.312-.593 1.578 0 2.578.797 1 .797 1.281 2.266l-1.593.234q-.235-.969-.813-1.453-.578-.5-1.39-.5-1.235 0-2.016.89-.781.891-.781 2.813 0 1.953.75 2.844.75.875 1.953.875.969 0 1.61-.594.655-.594.827-1.828zm9.328 2.36q-.921.765-1.765 1.093-.828.312-1.797.312-1.594 0-2.453-.78-.86-.782-.86-1.985 0-.719.329-1.297.328-.594.843-.938.532-.359 1.188-.546.469-.125 1.453-.25 1.984-.235 2.922-.563.015-.344.015-.422 0-1-.468-1.422-.625-.547-1.875-.547-1.157 0-1.703.407-.547.406-.813 1.422l-1.61-.22q.22-1.015.72-1.64.5-.64 1.453-.984.953-.344 2.187-.344 1.25 0 2.016.297.78.281 1.14.734.375.438.516 1.11.078.422.078 1.515v2.188q0 2.281.11 2.89.109.594.406 1.157h-1.703q-.266-.516-.329-1.188zm-.14-3.673q-.89.375-2.672.625-1.016.14-1.438.328-.421.188-.656.532-.219.343-.219.78 0 .657.5 1.095.5.437 1.454.437.937 0 1.671-.406.75-.422 1.094-1.14.266-.563.266-1.641v-.61zm7.782 3.39l.234 1.454q-.687.14-1.234.14-.89 0-1.39-.28-.485-.282-.688-.735-.203-.469-.203-1.937v-5.579h-1.204v-1.265h1.204v-2.39l1.625-.985v3.375h1.656v1.265h-1.656v5.672q0 .688.078.89.093.204.28.329.204.11.579.11.266 0 .719-.063zm8.23-1.64l1.687.203q-.406 1.485-1.484 2.313-1.078.812-2.766.812-2.125 0-3.375-1.296-1.234-1.313-1.234-3.672 0-2.453 1.25-3.797 1.266-1.344 3.266-1.344 1.937 0 3.156 1.328 1.234 1.313 1.234 3.703v.438h-7.218q.093 1.594.906 2.453.812.844 2.015.844.907 0 1.547-.47.64-.483 1.016-1.515zm-5.39-2.656h5.406q-.11-1.219-.625-1.828-.782-.953-2.032-.953-1.125 0-1.906.765-.766.75-.844 2.016zm8.484 2.875l1.625-.25q.125.969.75 1.5.625.516 1.75.516t1.672-.453q.547-.47.547-1.094 0-.547-.484-.875-.328-.219-1.672-.547-1.813-.469-2.516-.797-.687-.328-1.047-.906-.359-.594-.359-1.313 0-.64.297-1.187.297-.563.812-.922.375-.281 1.032-.469.672-.203 1.422-.203 1.14 0 2 .328.859.328 1.265.89.422.563.578 1.5l-1.61.22q-.108-.75-.64-1.172-.515-.422-1.468-.422-1.141 0-1.625.375-.47.375-.47.875 0 .312.188.578.203.266.64.437.235.094 1.438.422 1.75.453 2.438.75.687.297 1.078.86.39.562.39 1.406 0 .828-.484 1.547-.468.719-1.375 1.125-.906.39-2.047.39-1.875 0-2.875-.78-.984-.782-1.25-2.329z"/>
    <path fill="#6d9eeb" d="M531.318 270.606h153.396l.001.002-.001 60.89c0 6.727-5.453 12.18-12.179 12.18H519.14l-.001-.002.001-60.891c0-6.726 5.453-12.179 12.179-12.179z" fill-rule="evenodd"/>
    <path stroke="#000" stroke-linejoin="round" stroke-linecap="butt" d="M531.318 270.606h153.396l.001.002-.001 60.89c0 6.727-5.453 12.18-12.179 12.18H519.14l-.001-.002.001-60.891c0-6.726 5.453-12.179 12.179-12.179z"/>
    <path fill="#000" d="M558.29 289.314q1.64 0 2.61 1.094.983 1.078.983 2.812v.329h-6.234q.125 1.171.89 1.937.766.75 1.86.75.719 0 1.36-.344.656-.343 1.046-.953l.813.672q-1.281 1.578-3.219 1.578-1.672 0-2.781-1.11-1.094-1.124-1.094-2.827 0-1.64 1.078-2.782 1.094-1.156 2.688-1.156zm2.437 3.375q0-1.11-.672-1.75-.656-.656-1.75-.656-.984 0-1.797.719-.796.703-.828 1.687h5.047zm3.74-3.172l2.078 2.797 1.984-2.797h1.313l-2.61 3.485 3.141 4h-1.453l-2.5-3.282-2.422 3.282h-1.344l3.094-4-2.719-3.485h1.438zm10.15-.203q1.296 0 2.03.735.735.718.735 1.875v3.484q0 .734.125 1.594h-1.031q-.094-.5-.094-1.219h-.031q-.469.734-1.11 1.078-.625.328-1.53.328-1.157 0-1.876-.61-.703-.609-.703-1.577 0-1.344 1.125-1.969 1.14-.625 3.578-.625h.485v-.156q0-1.032-.47-1.5-.468-.469-1.452-.469-1.313 0-2.282.875l-.64-.75q1.047-1.094 3.14-1.094zm-2.329 5.547q0 .64.485 1.016.484.36 1.281.36 1.016 0 1.64-.626.626-.64.626-1.937v-.407h-.735q-1.5 0-2.406.391-.89.39-.89 1.203zm11.039-5.547q1.781 0 2.39 1.563.328-.735 1.016-1.14.687-.423 1.453-.423 1.39 0 2.094.766.703.75.703 2.11v4.812h-1.047v-4.453q0-1.157-.437-1.704-.438-.562-1.454-.562-1.03 0-1.578.75-.53.734-.53 1.922v4.047h-1.063v-4.453q0-1.157-.438-1.704-.422-.562-1.422-.562-.953 0-1.547.781-.593.781-.593 2.125v3.813h-1.047v-5.922q0-.89-.078-1.563h1.125v1.125h.03q.36-.578 1.032-.953t1.39-.375zm14.132 0q1.703 0 2.844 1.125 1.14 1.11 1.14 2.813 0 1.718-1.14 2.828-1.125 1.11-2.844 1.11-.86 0-1.656-.376-.797-.39-1.266-1.062h-.031v5.86h-1.047v-12.095h1.047v1.25h.03q.47-.672 1.25-1.062.798-.39 1.673-.39zm-3 3.938q0 1.25.86 2.125.859.86 2.14.86 1.265 0 2.047-.845.78-.843.78-2.14 0-1.328-.812-2.14-.796-.829-2.03-.829-1.282 0-2.141.875-.844.86-.844 2.094zm10.073-8.344v12.094h-1.063v-12.094h1.063zm5.918 4.406q1.64 0 2.61 1.094.984 1.078.984 2.812v.329h-6.235q.125 1.171.89 1.937.766.75 1.86.75.719 0 1.36-.344.656-.343 1.046-.953l.813.672q-1.281 1.578-3.219 1.578-1.672 0-2.781-1.11-1.094-1.124-1.094-2.827 0-1.64 1.078-2.782 1.094-1.156 2.688-1.156zm2.437 3.375q0-1.11-.672-1.75-.656-.656-1.75-.656-.984 0-1.796.719-.797.703-.829 1.687h5.047zm4.146 2.688q.375 0 .625.25t.25.61q0 .343-.25.608-.25.25-.625.25t-.625-.25q-.234-.265-.234-.609 0-.36.25-.61t.61-.25zm6.901-6.063q1.704 0 2.797 1.297l-.86.656q-.687-.984-1.905-.984-1.25 0-2.016.828t-.766 2.14q0 1.344.766 2.173.766.812 1.969.812 1.281 0 1.953-1l.86.656q-1.063 1.297-2.829 1.297-1.734 0-2.812-1.11-1.063-1.124-1.063-2.827 0-1.719 1.078-2.828 1.094-1.11 2.828-1.11zm7.775 0q1.703 0 2.844 1.11 1.14 1.109 1.14 2.828 0 1.703-1.11 2.828-1.108 1.11-2.874 1.11-1.719 0-2.844-1.11-1.125-1.125-1.125-2.828 0-1.657 1.125-2.797 1.125-1.14 2.844-1.14zm-2.813 3.938q0 1.297.766 2.14.781.844 2.047.844 1.281 0 2.047-.86.781-.859.781-2.124 0-1.328-.797-2.14-.797-.829-2.047-.829-1.265 0-2.03.86-.767.843-.767 2.109zm12.223-3.938q1.781 0 2.39 1.563.329-.735 1.016-1.14.688-.423 1.453-.423 1.39 0 2.094.766.703.75.703 2.11v4.812h-1.047v-4.453q0-1.157-.437-1.704-.438-.562-1.453-.562-1.032 0-1.579.75-.53.734-.53 1.922v4.047h-1.063v-4.453q0-1.157-.438-1.704-.422-.562-1.422-.562-.953 0-1.547.781-.593.781-.593 2.125v3.813h-1.047v-5.922q0-.89-.078-1.563h1.125v1.125h.031q.36-.578 1.031-.953.672-.375 1.39-.375zM536.115 308.517l1.734 6.078h.032l2-6.078h1.078l2 6.078h.047l1.718-6.078h1.25l-2.375 7.485h-1.171l-1.985-6.14h-.031l-1.984 6.14h-1.188l-2.375-7.485h1.25zm11.552 0l1.734 6.078h.032l2-6.078h1.078l2 6.078h.047l1.718-6.078h1.25l-2.375 7.485h-1.171l-1.985-6.14h-.031l-1.984 6.14h-1.188l-2.375-7.485h1.25zm11.552 0l1.735 6.078h.03l2-6.078h1.079l2 6.078h.047l1.719-6.078h1.25l-2.375 7.485h-1.172l-1.985-6.14h-.031l-1.984 6.14h-1.188l-2.375-7.485h1.25zm11.422 5.86q.375 0 .625.25t.25.61q0 .343-.25.608-.25.25-.625.25t-.625-.25q-.234-.265-.234-.609 0-.36.25-.61t.61-.25zm6.76-6.063q1.641 0 2.61 1.094.984 1.078.984 2.812v.329h-6.234q.125 1.171.89 1.937.766.75 1.86.75.719 0 1.36-.344.656-.343 1.046-.953l.813.672q-1.281 1.578-3.219 1.578-1.672 0-2.781-1.11-1.094-1.124-1.094-2.827 0-1.64 1.078-2.782 1.094-1.156 2.688-1.156zm2.438 3.375q0-1.11-.672-1.75-.656-.656-1.75-.656-.984 0-1.797.719-.796.703-.828 1.687h5.047zm3.74-3.172l2.078 2.797 1.984-2.797h1.313l-2.61 3.485 3.141 4h-1.453l-2.5-3.282-2.422 3.282h-1.344l3.094-4-2.719-3.485h1.438zm10.15-.203q1.296 0 2.03.735.735.718.735 1.875v3.484q0 .734.125 1.594h-1.031q-.094-.5-.094-1.219h-.031q-.469.734-1.11 1.078-.625.328-1.53.328-1.157 0-1.876-.61-.703-.609-.703-1.577 0-1.344 1.125-1.969 1.14-.625 3.578-.625h.485v-.156q0-1.032-.47-1.5-.468-.469-1.452-.469-1.313 0-2.282.875l-.64-.75q1.047-1.094 3.14-1.094zm-2.329 5.547q0 .64.485 1.016.484.36 1.28.36 1.017 0 1.642-.626.625-.64.625-1.937v-.407h-.735q-1.5 0-2.406.391-.89.39-.89 1.203zm11.039-5.547q1.781 0 2.39 1.563.328-.735 1.016-1.14.687-.423 1.453-.423 1.39 0 2.094.766.703.75.703 2.11v4.812h-1.047v-4.453q0-1.157-.437-1.704-.438-.562-1.454-.562-1.03 0-1.578.75-.53.734-.53 1.922v4.047h-1.063v-4.453q0-1.157-.438-1.704-.422-.562-1.422-.562-.953 0-1.547.781-.593.781-.593 2.125v3.813h-1.047v-5.922q0-.89-.078-1.563h1.125v1.125h.03q.36-.578 1.032-.953t1.39-.375zm14.132 0q1.703 0 2.843 1.125 1.141 1.11 1.141 2.813 0 1.718-1.14 2.828-1.126 1.11-2.844 1.11-.86 0-1.657-.376-.796-.39-1.265-1.062h-.031v5.86h-1.047v-12.095h1.047v1.25h.03q.47-.672 1.25-1.062.798-.39 1.673-.39zm-3 3.938q0 1.25.86 2.125.858.86 2.14.86 1.265 0 2.047-.845.78-.843.78-2.14 0-1.328-.812-2.14-.797-.829-2.03-.829-1.282 0-2.142.875-.843.86-.843 2.094zm10.073-8.344v12.094h-1.063v-12.094h1.063zm5.918 4.406q1.64 0 2.61 1.094.984 1.078.984 2.812v.329h-6.235q.125 1.171.89 1.937.766.75 1.86.75.719 0 1.36-.344.656-.343 1.046-.953l.813.672q-1.281 1.578-3.219 1.578-1.672 0-2.781-1.11-1.094-1.124-1.094-2.827 0-1.64 1.078-2.782 1.094-1.156 2.688-1.156zm2.437 3.375q0-1.11-.672-1.75-.656-.656-1.75-.656-.984 0-1.796.719-.797.703-.829 1.687H632zm4.146 2.688q.375 0 .625.25t.25.61q0 .343-.25.608-.25.25-.625.25t-.625-.25q-.234-.265-.234-.609 0-.36.25-.61t.61-.25zm6.901-6.063q1.704 0 2.797 1.297l-.86.656q-.687-.984-1.905-.984-1.25 0-2.016.828t-.766 2.14q0 1.344.766 2.173.766.812 1.969.812 1.281 0 1.953-1l.86.656q-1.063 1.297-2.829 1.297-1.734 0-2.812-1.11-1.063-1.124-1.063-2.827 0-1.719 1.078-2.828 1.094-1.11 2.828-1.11zm7.775 0q1.703 0 2.844 1.11 1.14 1.109 1.14 2.828 0 1.703-1.109 2.828-1.11 1.11-2.875 1.11-1.719 0-2.844-1.11-1.125-1.125-1.125-2.828 0-1.657 1.125-2.797 1.125-1.14 2.844-1.14zm-2.813 3.938q0 1.297.766 2.14.781.844 2.047.844 1.281 0 2.047-.86.781-.859.781-2.124 0-1.328-.797-2.14-.797-.829-2.047-.829-1.265 0-2.03.86-.767.843-.767 2.109zm12.223-3.938q1.781 0 2.39 1.563.329-.735 1.016-1.14.688-.423 1.453-.423 1.39 0 2.094.766.703.75.703 2.11v4.812h-1.047v-4.453q0-1.157-.437-1.704-.438-.562-1.453-.562-1.032 0-1.579.75-.53.734-.53 1.922v4.047h-1.063v-4.453q0-1.157-.438-1.704-.422-.562-1.422-.562-.953 0-1.547.781-.593.781-.593 2.125v3.813h-1.047v-5.922q0-.89-.078-1.563h1.125v1.125h.03q.36-.578 1.032-.953t1.39-.375zM549.478 322.335l-1.61 7.547h-.781l1.61-7.547h.78zm2.875 2.437q1.235 0 1.453.891l-.703.422q-.203-.672-.937-.672-.438 0-.781.203-.344.188-.407.531-.078.328.11.516.203.172.875.312.859.204 1.109.438t.313.531q.062.281 0 .531-.157.72-.782 1.125-.61.407-1.484.407-1.266 0-1.703-.969l.687-.406q.344.734 1.157.734.53 0 .89-.219.375-.234.453-.625.078-.328-.156-.515-.234-.203-1-.36-1.484-.312-1.266-1.375.141-.687.75-1.093.61-.407 1.422-.407zm4.54 0q1.234 0 1.453.891l-.703.422q-.203-.672-.938-.672-.437 0-.78.203-.345.188-.407.531-.078.328.11.516.202.172.874.312.86.204 1.11.438.25.234.312.531.063.281 0 .531-.156.72-.781 1.125-.61.407-1.484.407-1.266 0-1.704-.969l.688-.406q.344.734 1.156.734.531 0 .89-.219.376-.234.454-.625.078-.328-.156-.515-.235-.203-1-.36-1.485-.312-1.266-1.375.14-.687.75-1.093.61-.407 1.422-.407zm3.602.125l-.594 2.813q-.187.86.031 1.265.235.391.954.391.656 0 1.203-.516.547-.53.734-1.359l.547-2.594h.703l-.844 3.922q-.109.61-.172 1.063h-.718q.062-.407.14-.797h-.03q-.36.437-.892.687-.515.235-.984.235-.969 0-1.312-.516-.329-.531-.157-1.39l.688-3.204h.703zm7.503-.125q1.094 0 1.578.72.5.718.25 1.874l-.047.219h-4.156q-.062.765.328 1.281.406.5 1.14.5.47 0 .954-.219.484-.234.828-.64l.453.453q-1.094 1.047-2.375 1.047-1.11 0-1.687-.735-.578-.75-.328-1.89.234-1.094 1.109-1.844.89-.766 1.953-.766zm1.14 2.235q.157-.735-.187-1.157-.344-.437-1.078-.437-.656 0-1.297.469-.64.468-.797 1.125h3.36zm4.879-2.235q.281 0 .515.063l-.296.687q-.11-.047-.391-.047-.672 0-1.219.47-.531.452-.672 1.171l-.593 2.766h-.704l.735-3.469q.172-.89.281-1.516h.688l-.204.922h.032q.64-1.047 1.828-1.047zm1.897.063q.234 0 .36.172.14.172.093.406-.047.234-.265.406-.204.172-.438.172-.266 0-.39-.172-.11-.172-.063-.406.047-.234.25-.406.203-.172.453-.172zm-.844 3.953q.235 0 .36.172.14.172.093.406-.046.234-.265.406-.203.172-.438.172-.265 0-.39-.172-.11-.172-.063-.406.047-.234.25-.406.203-.172.453-.172zm7.55-6.969l-1.719 8.063h-.703l1.72-8.063h.702zm3.323 2.953q1.094 0 1.579.72.5.718.25 1.874l-.047.219h-4.157q-.062.765.329 1.281.406.5 1.14.5.469 0 .953-.219.485-.234.828-.64l.454.453q-1.094 1.047-2.375 1.047-1.11 0-1.688-.735-.578-.75-.328-1.89.234-1.094 1.11-1.844.89-.766 1.952-.766zm1.141 2.235q.156-.735-.187-1.157-.344-.437-1.079-.437-.656 0-1.296.469-.641.468-.797 1.125h3.359zm3.94-3.516l-.296 1.406h1.437l-.14.641h-1.438l-.64 2.984q-.079.407.03.625.11.22.516.22.375 0 .782-.188l-.11.656q-.469.172-1 .172-.578 0-.844-.328-.25-.344-.109-.954l.672-3.187h-1.047l.14-.64h1.048l.296-1.407h.704zm3.742 1.281q1.234 0 1.453.891l-.703.422q-.203-.672-.938-.672-.437 0-.781.203-.344.188-.406.531-.078.328.109.516.203.172.875.312.86.204 1.11.438.25.234.312.531.062.281 0 .531-.156.72-.781 1.125-.61.407-1.485.407-1.265 0-1.703-.969l.688-.406q.343.734 1.156.734.531 0 .89-.219.376-.234.454-.625.078-.328-.157-.515-.234-.203-1-.36-1.484-.312-1.265-1.375.14-.687.75-1.093.61-.407 1.422-.407zm5.18 0q1.094 0 1.578.72.5.718.25 1.874l-.047.219h-4.156q-.063.765.328 1.281.406.5 1.14.5.47 0 .954-.219.484-.234.828-.64l.453.453q-1.094 1.047-2.375 1.047-1.11 0-1.688-.735-.578-.75-.328-1.89.235-1.094 1.11-1.844.89-.766 1.953-.766zm1.14 2.235q.157-.735-.187-1.157-.344-.437-1.078-.437-.656 0-1.297.469-.64.468-.797 1.125h3.36zm4.941-2.235q.938 0 1.297.5.36.5.172 1.407l-.688 3.203h-.703l.594-2.813q.187-.844-.047-1.25-.219-.406-.906-.406-.688 0-1.235.516-.546.515-.75 1.437l-.53 2.516h-.704l.844-3.938q.125-.61.172-1.047h.718q-.03.297-.14.797h.015q.329-.422.86-.672.531-.25 1.031-.25zm5.863 0q1.125 0 1.671.86l-.656.437q-.328-.656-1.125-.656-.844 0-1.469.547-.625.547-.812 1.422-.188.906.203 1.453.39.531 1.188.531.859 0 1.453-.656l.468.437q-.89.86-2.062.86-1.156 0-1.719-.735-.547-.75-.297-1.89.25-1.14 1.125-1.875.875-.735 2.032-.735zm5.136 0q.281 0 .516.063l-.297.687q-.11-.047-.391-.047-.672 0-1.219.47-.531.452-.672 1.171l-.593 2.766h-.703l.734-3.469q.172-.89.281-1.516h.688l-.203.922h.03q.641-1.047 1.829-1.047zm1.46.125l.687 4.125 2.39-4.125h.86l-3.75 6.141q-.437.734-.875 1.062-.422.344-1.062.344-.328 0-.625-.078l.234-.687q.203.125.5.125.625 0 1.063-.766l.656-1.094-.969-5.047h.89zm7.542-.125q1.14 0 1.735.735.593.734.343 1.875-.25 1.14-1.156 1.89-.906.735-2.047.735-.578 0-1.062-.25-.469-.266-.688-.703h-.015l-.828 3.89h-.704l1.72-8.047h.702l-.172.828h.016q.406-.453.984-.703.594-.25 1.172-.25zm-2.562 2.61q-.172.843.265 1.422.454.562 1.313.562.828 0 1.469-.547.64-.562.828-1.437.187-.875-.235-1.422-.421-.547-1.234-.547-.86 0-1.547.578-.687.563-.86 1.39zm7.808-3.89l-.297 1.405h1.437l-.14.641h-1.438l-.64 2.984q-.079.407.03.625.11.22.516.22.375 0 .782-.188l-.11.656q-.468.172-1 .172-.578 0-.843-.328-.25-.344-.11-.954l.672-3.187h-1.047l.14-.64h1.048l.297-1.407h.703zm4.038 3.483l-.157.704h-2.734l.156-.704h2.735zm4.314-2.203q1.14 0 1.734.735.594.734.344 1.875-.25 1.14-1.156 1.89-.907.735-2.047.735-.578 0-1.063-.25-.468-.266-.687-.703h-.016l-.828 3.89h-.703l1.719-8.047h.703l-.172.828h.016q.406-.453.984-.703.594-.25 1.172-.25zm-2.563 2.61q-.172.843.266 1.422.453.562 1.312.562.829 0 1.47-.547.64-.562.827-1.437.188-.875-.234-1.422-.422-.547-1.234-.547-.86 0-1.547.578-.688.563-.86 1.39zm8.746-2.61q.281 0 .515.063l-.297.687q-.109-.047-.39-.047-.672 0-1.219.47-.531.452-.672 1.171l-.594 2.766h-.703l.735-3.469q.172-.89.281-1.516h.687l-.203.922h.032q.64-1.047 1.828-1.047zm3.392 0q1.125 0 1.735.735.61.734.36 1.875-.25 1.14-1.157 1.89-.89.735-2.063.735-1.156 0-1.75-.735-.578-.75-.328-1.89.235-1.11 1.141-1.86t2.062-.75zm-2.437 2.61q-.188.875.203 1.437.406.547 1.25.547t1.484-.562q.657-.579.829-1.422.187-.875-.235-1.422-.422-.547-1.25-.547-.844 0-1.484.578-.625.563-.797 1.39zm11.975-5.563l-1.718 8.063h-.703l.171-.828h-.03q-.407.453-1 .703-.579.25-1.141.25-1.157 0-1.75-.75-.579-.766-.344-1.875.234-1.11 1.14-1.86.922-.75 2.079-.75.578 0 1.046.25.47.25.688.703h.031l.828-3.906h.703zm-5.75 5.563q-.187.89.235 1.437t1.234.547q.86 0 1.547-.562.703-.579.875-1.422.172-.828-.281-1.39-.438-.579-1.313-.579-.797 0-1.453.562-.656.547-.844 1.407z"/>
    <path fill="#6aa84f" d="M417.335 149.261a9.129 9.129 0 0 1 9.128-9.128H564.05a9.129 9.129 0 0 1 9.128 9.128v36.515a9.129 9.129 0 0 1-9.128 9.128H426.463a9.129 9.129 0 0 1-9.128-9.128z" fill-rule="evenodd"/>
    <path stroke="#000" stroke-linejoin="round" stroke-linecap="butt" d="M417.335 149.261a9.129 9.129 0 0 1 9.128-9.128H564.05a9.129 9.129 0 0 1 9.128 9.128v36.515a9.129 9.129 0 0 1-9.128 9.128H426.463a9.129 9.129 0 0 1-9.128-9.128z"/>
    <path fill="#000" d="M452.088 165.69q1.703 0 2.797 1.298l-.86.656q-.687-.984-1.906-.984-1.25 0-2.016.828-.765.828-.765 2.14 0 1.344.765 2.172.766.813 1.97.813 1.28 0 1.952-1l.86.656q-1.063 1.297-2.829 1.297-1.734 0-2.812-1.11-1.063-1.125-1.063-2.828 0-1.718 1.079-2.828 1.093-1.11 2.828-1.11zm7.571 0q1.64 0 2.61 1.095.984 1.078.984 2.812v.328h-6.235q.125 1.172.891 1.938.766.75 1.86.75.718 0 1.359-.344.656-.344 1.047-.953l.812.672q-1.281 1.578-3.219 1.578-1.671 0-2.78-1.11-1.095-1.125-1.095-2.828 0-1.64 1.079-2.78 1.093-1.157 2.687-1.157zm2.438 3.376q0-1.11-.672-1.75-.657-.656-1.75-.656-.985 0-1.797.718-.797.703-.828 1.688h5.047zm6.599-3.375q.422 0 .781.11l-.203 1.03q-.172-.078-.594-.078-1.016 0-1.687.703-.657.688-.657 1.766v4.156h-1.047v-5.203q-.015-1.344-.062-2.281h1.031v1.39h.031q.625-1.593 2.407-1.593zm3.5-1.906v2.109h2.171v.953h-2.172v4.484q0 .61.235.954.234.328.859.328.547 0 1.094-.297l.047.984q-.625.266-1.438.266-.875 0-1.36-.5-.484-.516-.484-1.438v-4.78h-1.593v-.954h1.593v-2.11h1.047zm7.17 5.218v1.063h-4.109v-1.063h4.11zm5.266-3.312q1.781 0 2.39 1.562.329-.734 1.016-1.14.688-.422 1.454-.422 1.39 0 2.093.765.703.75.703 2.11v4.812h-1.046v-4.453q0-1.156-.438-1.703-.437-.562-1.453-.562-1.031 0-1.578.75-.531.734-.531 1.921v4.047h-1.063v-4.453q0-1.156-.437-1.703-.422-.562-1.422-.562-.953 0-1.547.78-.594.782-.594 2.126v3.812h-1.047v-5.922q0-.89-.078-1.562h1.125v1.125h.031q.36-.578 1.032-.953.671-.375 1.39-.375zm13.226 0q1.297 0 2.031.734.735.719.735 1.875v3.485q0 .734.125 1.593h-1.032q-.093-.5-.093-1.218h-.032q-.468.734-1.11 1.078-.624.328-1.53.328-1.157 0-1.875-.61-.703-.609-.703-1.578 0-1.343 1.125-1.968 1.14-.625 3.578-.625h.484v-.157q0-1.03-.469-1.5-.468-.468-1.453-.468-1.312 0-2.281.875l-.64-.75q1.046-1.094 3.14-1.094zm-2.328 5.547q0 .64.484 1.015.485.36 1.281.36 1.016 0 1.641-.625.625-.64.625-1.938v-.406h-.734q-1.5 0-2.407.39-.89.391-.89 1.204zm11.132-5.547q1.406 0 2.11.765.702.75.702 2.11v4.812h-1.046v-4.218q0-1.266-.47-1.875-.468-.625-1.5-.625-1.03 0-1.687.78-.656.782-.656 2.157v3.781h-1.047v-5.906q0-.906-.078-1.578h1.078q.047.437.047 1.203h.031q.36-.625 1.063-1.016.703-.39 1.453-.39zm8.396 0q1.297 0 2.031.734.735.719.735 1.875v3.485q0 .734.125 1.593h-1.032q-.093-.5-.093-1.218h-.032q-.468.734-1.11 1.078-.624.328-1.53.328-1.157 0-1.875-.61-.703-.609-.703-1.578 0-1.343 1.125-1.968 1.14-.625 3.578-.625h.484v-.157q0-1.03-.469-1.5-.468-.468-1.453-.468-1.312 0-2.281.875l-.64-.75q1.046-1.094 3.14-1.094zm-2.328 5.547q0 .64.484 1.015.485.36 1.281.36 1.016 0 1.641-.625.625-.64.625-1.938v-.406h-.734q-1.5 0-2.407.39-.89.391-.89 1.204zm10.96-5.547q1.89 0 2.875 1.437h.047v-1.234h1.062v7.484q0 1.828-1.046 2.828-1.047 1.016-2.97 1.016-2.187 0-3.609-1.5l.797-.844q.453.625 1.203 1t1.672.375q1.407 0 2.14-.765.75-.766.75-2.11v-1.406h-.03q-.907 1.406-2.797 1.406-1.594 0-2.75-1.078-1.156-1.094-1.156-2.734 0-1.656 1.093-2.766 1.094-1.11 2.72-1.11zm-2.656 3.844q0 1.203.812 2.046.828.844 1.97.844 1.17 0 2-.797.827-.797.827-2 0-1.297-.781-2.125-.781-.843-2.063-.843-1.156 0-1.968.843-.797.844-.797 2.032zm12.385-3.844q1.64 0 2.61 1.094.984 1.078.984 2.812v.328h-6.234q.125 1.172.89 1.938.766.75 1.86.75.718 0 1.359-.344.656-.344 1.047-.953l.812.672q-1.28 1.578-3.218 1.578-1.672 0-2.782-1.11-1.093-1.125-1.093-2.828 0-1.64 1.078-2.78 1.094-1.157 2.687-1.157zm2.438 3.375q0-1.11-.672-1.75-.656-.656-1.75-.656-.984 0-1.797.718-.797.703-.828 1.688h5.047zm6.599-3.375q.422 0 .781.11l-.203 1.03q-.172-.078-.594-.078-1.015 0-1.687.703-.657.688-.657 1.766v4.156h-1.046v-5.203q-.016-1.344-.063-2.281h1.031v1.39h.032q.625-1.593 2.406-1.593z"/>
    <path fill="none" d="M495.256 194.904l106.677 75.717"/>
    <path stroke="#000" stroke-linejoin="round" stroke-linecap="butt" d="M495.256 194.904l101.784 72.244"/>
    <path fill="#000" stroke="#000" stroke-linecap="butt" d="M596.084 268.495l4.657 1.28-2.745-3.974z" fill-rule="evenodd"/>
    <path fill="none" d="M495.256 194.904l-95.087 75.717"/>
    <path stroke="#000" stroke-linejoin="round" stroke-linecap="butt" d="M495.256 194.904l-90.393 71.98"/>
    <path fill="#000" stroke="#000" stroke-linecap="butt" d="M403.834 265.591l-2.521 4.12 4.579-1.536z" fill-rule="evenodd"/>
    <path fill="none" d="M495.256 140.133l-107.56-75.685"/>
    <path stroke="#000" stroke-linejoin="round" stroke-linecap="butt" d="M495.256 140.133L392.604 67.9"/>
    <path fill="#000" stroke="#000" stroke-linecap="butt" d="M393.554 66.55l-4.662-1.261 2.761 3.962z" fill-rule="evenodd"/>
    <path fill="none" d="M495.256 140.133L185.933 64.448"/>
    <path stroke="#000" stroke-linejoin="round" stroke-linecap="butt" d="M495.256 140.133L191.76 65.873"/>
    <path fill="#000" stroke="#000" stroke-linecap="butt" d="M192.154 64.27l-4.8.525 4.015 2.683z" fill-rule="evenodd"/>
    <path fill="#f9cb9c" d="M459.525 400.662a3.423 3.423 0 0 1-3.423 3.423v-3.423a1.712 1.712 0 0 1-3.424 0v3.423H344.24a3.423 3.423 0 0 0-3.423 3.424v41.078a3.423 3.423 0 1 0 6.847 0v-3.423h108.439a3.423 3.423 0 0 0 3.423-3.423zm-115.285 10.27a3.423 3.423 0 0 0 3.423-3.423 1.712 1.712 0 1 0-3.424 0z" fill-rule="evenodd"/>
    <path fill="#c7a27c" d="M344.24 410.932a3.423 3.423 0 0 0 3.423-3.423 1.712 1.712 0 1 0-3.423 0zm111.862-6.847a3.423 3.423 0 1 0-3.424-3.423 1.712 1.712 0 0 0 3.424 0z" fill-rule="evenodd"/>
    <path fill="none" d="M340.816 407.509a3.423 3.423 0 0 1 3.423-3.424h108.44v-3.423a3.423 3.423 0 0 1 6.846 0v41.079a3.423 3.423 0 0 1-3.423 3.423h-108.44v3.423a3.423 3.423 0 1 1-6.846 0zm111.862-3.424h3.424a3.423 3.423 0 0 0 3.423-3.423m-3.423 3.423v-3.423a1.712 1.712 0 0 1-3.424 0m-108.439 10.27v-3.423a1.712 1.712 0 1 1 3.424 0 3.423 3.423 0 1 1-6.847 0m6.847 0v37.655"/>
    <path stroke="#000" stroke-linejoin="round" stroke-linecap="butt" d="M340.816 407.509a3.423 3.423 0 0 1 3.423-3.424h108.44v-3.423a3.423 3.423 0 0 1 6.846 0v41.079a3.423 3.423 0 0 1-3.423 3.423h-108.44v3.423a3.423 3.423 0 1 1-6.846 0zm111.862-3.424h3.424a3.423 3.423 0 0 0 3.423-3.423m-3.423 3.423v-3.423a1.712 1.712 0 0 1-3.424 0m-108.439 10.27v-3.423a1.712 1.712 0 1 1 3.424 0 3.423 3.423 0 1 1-6.847 0m6.847 0v37.655"/>
    <path fill="#000" d="M361.622 419.753q1.671 0 2.656 1.14l-.828.657q-.625-.922-1.828-.922-.875 0-1.454.469-.562.453-.562 1.234 0 .656.422 1.062.437.407 1.312.688 1.516.5 2.032.844.53.328.796.812.282.469.282 1.188 0 1.187-.938 1.968-.922.766-2.187.766-1.938 0-2.953-1.39l.859-.626q.656 1.141 2.14 1.141.813 0 1.422-.484.61-.485.61-1.235 0-.734-.469-1.156-.469-.422-1.469-.703-1.312-.422-1.843-.75-.516-.328-.797-.828-.266-.5-.266-1.203 0-1.172.844-1.922.86-.75 2.219-.75zm5.082.39q.265 0 .453.204.187.187.187.437 0 .266-.187.453-.188.188-.453.188-.235 0-.438-.188-.203-.187-.203-.453t.203-.453q.203-.188.438-.188zm.453 3.047v6.235h-.89v-6.235h.89zm4.964-.156q1.578 0 2.39 1.172h.048v-1.016h.875v6.235q0 1.515-.875 2.359-.86.844-2.469.844-1.828 0-3-1.25l.656-.703q.39.515 1 .828.625.328 1.407.328 1.171 0 1.78-.64.626-.641.626-1.766v-1.172h-.031q-.75 1.172-2.329 1.172-1.328 0-2.296-.907-.954-.906-.954-2.265 0-1.39.907-2.297.922-.922 2.265-.922zm-2.218 3.188q0 1 .687 1.703.688.703 1.64.703.97 0 1.657-.656.703-.672.703-1.672 0-1.078-.656-1.766-.656-.703-1.719-.703-.953 0-1.64.703-.672.703-.672 1.688zm10.502-3.188q1.172 0 1.75.625.594.625.594 1.75v4.016h-.875v-3.516q0-1.062-.39-1.562-.376-.516-1.25-.516-.844 0-1.391.656-.547.64-.547 1.797v3.14h-.89v-4.921q0-.75-.063-1.313h.906q.047.375.047 1h.016q.296-.515.875-.828.593-.328 1.218-.328zm7.223 0q1.375 0 2.188.906.812.89.812 2.344v.266h-5.187q.094.968.734 1.609.64.625 1.547.625.61 0 1.14-.281.548-.297.86-.797l.688.562q-1.063 1.313-2.688 1.313-1.375 0-2.297-.922-.922-.937-.922-2.36 0-1.359.907-2.312.906-.953 2.218-.953zm2.047 2.797q0-.922-.562-1.453-.547-.547-1.47-.547-.812 0-1.483.594-.672.593-.704 1.406h4.22zm8.786-6.484v10.078h-.891v-1.047h-.016q-.406.578-1.078.89-.656.313-1.344.313-1.453 0-2.39-.938-.938-.953-.938-2.343 0-1.375.938-2.313.937-.953 2.39-.953.72 0 1.375.328.657.313 1.047.86h.016v-4.875h.89zm-5.688 6.953q0 1.109.656 1.797.672.687 1.703.687 1.063 0 1.766-.719.719-.718.719-1.765 0-1.032-.719-1.75-.703-.72-1.781-.72-1.016 0-1.688.704-.656.688-.656 1.766zm12.192-6.953v6.656l2.938-2.813h1.328l-3.11 2.844 3.438 3.39h-1.36l-3.234-3.28v3.28h-.89v-10.077h.89zm8.346 3.687q1.375 0 2.188.906.812.89.812 2.344v.266h-5.187q.094.968.734 1.609.641.625 1.547.625.61 0 1.14-.281.548-.297.86-.797l.688.562q-1.063 1.313-2.688 1.313-1.375 0-2.297-.922-.922-.937-.922-2.36 0-1.359.907-2.312.906-.953 2.218-.953zm2.047 2.797q0-.922-.562-1.453-.547-.547-1.469-.547-.812 0-1.484.594-.672.593-.703 1.406h4.218zm2.91-2.64l1.97 5.156 1.906-5.157h1.062l-3.031 7.672q-.36.938-.812 1.344-.454.422-1.25.422-.422 0-.797-.094l.093-.86q.297.157.672.157.766 0 1.125-.969l.516-1.36-2.547-6.312h1.094zm9.41-.157q1.421 0 2.359.922.953.922.953 2.344 0 1.437-.938 2.359-.937.922-2.375.922-.718 0-1.39-.313-.657-.328-1.047-.89h-.016v4.89h-.89V423.19h.89v1.032h.016q.39-.547 1.047-.86.672-.328 1.39-.328zm-2.5 3.266q0 1.047.702 1.765.72.719 1.797.719 1.047 0 1.703-.703.657-.703.657-1.781 0-1.094-.688-1.782-.672-.687-1.687-.687-1.063 0-1.782.719-.703.718-.703 1.75zm9.893-3.266q1.078 0 1.687.594.61.594.61 1.578v2.89q0 .61.093 1.329h-.843q-.079-.407-.079-1.016h-.03q-.391.61-.923.89-.515.282-1.28.282-.954 0-1.548-.5-.594-.516-.594-1.328 0-1.11.938-1.625.937-.531 2.984-.531h.391v-.125q0-.86-.39-1.25-.391-.391-1.204-.391-1.094 0-1.906.734l-.531-.625q.875-.906 2.625-.906zm-1.953 4.61q0 .53.406.843.406.297 1.062.297.86 0 1.375-.516.516-.53.516-1.609v-.344h-.61q-1.25 0-2 .328-.75.313-.75 1zm6.917-7.5q.266 0 .453.203.188.187.188.437 0 .266-.188.453-.187.188-.453.188-.234 0-.438-.188-.203-.187-.203-.453t.203-.453q.204-.188.438-.188zm.453 3.046v6.235h-.89v-6.235h.89zm5.042-.156q.344 0 .657.078l-.172.86q-.156-.063-.5-.063-.844 0-1.39.578-.548.578-.548 1.469v3.469h-.89v-4.328q0-1.125-.047-1.907h.86v1.157h.03q.516-1.313 2-1.313z"/>
    <path fill="#f9cb9c" d="M661.28 397.79a3.423 3.423 0 0 1-3.422 3.424v-3.423a1.712 1.712 0 1 1-3.424 0v3.423H545.995a3.423 3.423 0 0 0-3.423 3.423v41.079a3.423 3.423 0 1 0 6.847 0v-3.423h108.439a3.423 3.423 0 0 0 3.423-3.424zm-115.285 10.27a3.423 3.423 0 0 0 3.424-3.423 1.712 1.712 0 1 0-3.424 0z" fill-rule="evenodd"/>
    <path fill="#c7a27c" d="M545.995 408.06a3.423 3.423 0 0 0 3.424-3.423 1.712 1.712 0 1 0-3.424 0zm111.863-6.846a3.423 3.423 0 1 0-3.424-3.423 1.712 1.712 0 1 0 3.424 0z" fill-rule="evenodd"/>
    <path fill="none" d="M542.572 404.637a3.423 3.423 0 0 1 3.423-3.423h108.44v-3.423a3.423 3.423 0 0 1 6.846 0v41.078a3.423 3.423 0 0 1-3.423 3.424h-108.44v3.423a3.423 3.423 0 0 1-6.846 0zm111.862-3.423h3.424a3.423 3.423 0 0 0 3.423-3.423m-3.423 3.423v-3.423a1.712 1.712 0 1 1-3.424 0m-108.439 10.27v-3.424a1.712 1.712 0 1 1 3.424 0 3.423 3.423 0 0 1-6.847 0m6.847 0v37.656"/>
    <path stroke="#000" stroke-linejoin="round" stroke-linecap="butt" d="M542.572 404.637a3.423 3.423 0 0 1 3.423-3.423h108.44v-3.423a3.423 3.423 0 0 1 6.846 0v41.078a3.423 3.423 0 0 1-3.423 3.424h-108.44v3.423a3.423 3.423 0 0 1-6.846 0zm111.862-3.423h3.424a3.423 3.423 0 0 0 3.423-3.423m-3.423 3.423v-3.423a1.712 1.712 0 1 1-3.424 0m-108.439 10.27v-3.424a1.712 1.712 0 1 1 3.424 0 3.423 3.423 0 0 1-6.847 0m6.847 0v37.656"/>
    <path fill="#000" d="M563.377 416.881q1.672 0 2.657 1.141l-.828.656q-.625-.922-1.829-.922-.875 0-1.453.47-.562.452-.562 1.234 0 .656.422 1.062.437.406 1.312.688 1.516.5 2.031.843.532.328.797.813.282.469.282 1.187 0 1.188-.938 1.969-.922.766-2.187.766-1.938 0-2.954-1.391l.86-.625q.656 1.14 2.14 1.14.813 0 1.422-.484.61-.484.61-1.234 0-.734-.47-1.156-.468-.422-1.468-.703-1.312-.422-1.844-.75-.515-.329-.796-.829-.266-.5-.266-1.203 0-1.172.844-1.922.86-.75 2.218-.75zm5.083.391q.265 0 .453.203.187.188.187.438 0 .265-.187.453-.188.187-.453.187-.235 0-.438-.187-.203-.188-.203-.453 0-.266.203-.453.203-.188.438-.188zm.453 3.047v6.234h-.89v-6.234h.89zm4.964-.156q1.578 0 2.39 1.172h.048v-1.016h.875v6.234q0 1.516-.875 2.36-.86.843-2.47.843-1.827 0-3-1.25l.657-.703q.39.516 1 .828.625.329 1.406.329 1.172 0 1.782-.641.625-.64.625-1.766v-1.172h-.032q-.75 1.172-2.328 1.172-1.328 0-2.297-.906-.953-.906-.953-2.266 0-1.39.907-2.296.921-.922 2.265-.922zm-2.219 3.187q0 1 .688 1.703.687.703 1.64.703.97 0 1.657-.656.703-.672.703-1.672 0-1.078-.656-1.765-.657-.703-1.72-.703-.952 0-1.64.703-.672.703-.672 1.687zm10.503-3.187q1.172 0 1.75.625.594.625.594 1.75v4.015h-.875v-3.515q0-1.063-.39-1.563-.376-.515-1.25-.515-.844 0-1.391.656-.547.64-.547 1.797v3.14h-.89v-4.922q0-.75-.063-1.312h.906q.047.375.047 1h.016q.296-.516.875-.828.593-.328 1.218-.328zm7.223 0q1.375 0 2.188.906.812.89.812 2.344v.265h-5.187q.093.969.734 1.61.64.625 1.547.625.61 0 1.14-.282.547-.296.86-.796l.687.562q-1.062 1.313-2.687 1.313-1.375 0-2.297-.922-.922-.938-.922-2.36 0-1.36.906-2.312.907-.953 2.22-.953zm2.047 2.797q0-.922-.562-1.454-.547-.546-1.47-.546-.812 0-1.484.593-.671.594-.703 1.407h4.22zm8.785-6.485v10.078h-.89v-1.047h-.016q-.406.579-1.078.891-.656.313-1.344.313-1.453 0-2.39-.938-.938-.953-.938-2.344 0-1.375.938-2.312.937-.953 2.39-.953.72 0 1.375.328.657.312 1.047.86h.016v-4.876h.89zm-5.687 6.953q0 1.11.656 1.797.672.688 1.703.688 1.063 0 1.766-.72.719-.718.719-1.765 0-1.031-.719-1.75-.703-.718-1.781-.718-1.016 0-1.688.703-.656.687-.656 1.765zm12.192-6.953v6.656l2.938-2.812h1.328l-3.11 2.844 3.438 3.39h-1.36l-3.234-3.281v3.281h-.89v-10.078h.89zm8.346 3.688q1.375 0 2.188.906.812.89.812 2.344v.265h-5.187q.094.969.734 1.61.64.625 1.547.625.61 0 1.14-.282.548-.296.86-.796l.688.562q-1.063 1.313-2.688 1.313-1.375 0-2.297-.922-.922-.938-.922-2.36 0-1.36.907-2.312.906-.953 2.218-.953zm2.047 2.797q0-.922-.562-1.454-.547-.546-1.469-.546-.812 0-1.484.593-.672.594-.703 1.407h4.218zm2.91-2.641l1.97 5.156 1.906-5.156h1.062l-3.031 7.672q-.36.937-.813 1.344-.453.421-1.25.421-.421 0-.796-.093l.093-.86q.297.157.672.157.766 0 1.125-.97l.516-1.359-2.547-6.312h1.094zm9.41-.156q1.421 0 2.359.922.953.921.953 2.343 0 1.438-.938 2.36-.937.922-2.375.922-.719 0-1.39-.313-.657-.328-1.047-.89h-.016v4.89h-.89v-10.078h.89v1.031h.016q.39-.547 1.047-.86.671-.327 1.39-.327zm-2.5 3.265q0 1.047.702 1.766.719.719 1.797.719 1.047 0 1.703-.703.657-.704.657-1.782 0-1.093-.688-1.781-.672-.687-1.687-.687-1.063 0-1.782.718-.703.719-.703 1.75zm9.893-3.265q1.078 0 1.687.593.61.594.61 1.579v2.89q0 .61.093 1.328h-.843q-.079-.406-.079-1.015h-.03q-.391.609-.923.89-.515.282-1.281.282-.953 0-1.547-.5-.594-.516-.594-1.329 0-1.109.938-1.625.937-.53 2.984-.53h.39v-.126q0-.86-.39-1.25t-1.203-.39q-1.094 0-1.906.734l-.531-.625q.875-.906 2.625-.906zm-1.953 4.609q0 .531.406.844.406.297 1.062.297.86 0 1.375-.516.516-.531.516-1.61v-.343h-.61q-1.25 0-2 .328-.75.313-.75 1zm6.917-7.5q.265 0 .453.203.187.188.187.438 0 .265-.187.453-.188.187-.453.187-.235 0-.438-.187-.203-.188-.203-.453 0-.266.203-.453.203-.188.438-.188zm.453 3.047v6.234h-.89v-6.234h.89zm5.042-.156q.344 0 .657.078l-.172.86q-.156-.063-.5-.063-.844 0-1.39.578-.548.578-.548 1.469v3.468h-.89v-4.328q0-1.125-.047-1.906h.86v1.156h.03q.516-1.312 2-1.312z"/>
    <path fill="none" d="M400.17 343.677v60.41"/>
    <path stroke="#000" stroke-linejoin="round" stroke-linecap="butt" d="M400.17 343.677v54.41"/>
    <path fill="#000" stroke="#000" stroke-linecap="butt" d="M398.519 398.087l1.652 4.538 1.651-4.538z" fill-rule="evenodd"/>
    <path fill="none" d="M601.927 343.677v57.543"/>
    <path stroke="#000" stroke-linejoin="round" stroke-linecap="butt" d="M601.927 343.677v51.543"/>
    <path fill="#000" stroke="#000" stroke-linecap="butt" d="M600.275 395.22l1.652 4.539 1.651-4.539z" fill-rule="evenodd"/>
    <path fill="none" d="M198.239 394.42h118.709v60.41h-118.71z"/>
    <path fill="#000" d="M211.242 421.34v-13.36h1.78v6.626l6.626-6.625h2.39l-5.593 5.421 5.843 7.938h-2.328l-4.765-6.766-2.172 2.14v4.626h-1.781zm18.646 0v-1.422q-1.125 1.64-3.062 1.64-.86 0-1.61-.327-.734-.329-1.093-.829-.36-.5-.5-1.218-.11-.47-.11-1.532v-5.984h1.64v5.36q0 1.28.11 1.734.157.64.657 1.015.5.375 1.234.375t1.375-.375q.656-.39.922-1.03.265-.657.265-1.891v-5.188h1.641v9.672h-1.469zm5.548 0h-1.516v-13.36h1.64v4.766q1.048-1.297 2.657-1.297.89 0 1.688.36.796.36 1.312 1.015.516.64.797 1.563.297.922.297 1.969 0 2.484-1.235 3.843-1.218 1.36-2.953 1.36-1.703 0-2.687-1.438v1.219zm-.016-4.906q0 1.734.485 2.515.765 1.266 2.093 1.266 1.078 0 1.86-.938.781-.937.781-2.78 0-1.891-.75-2.798-.75-.906-1.828-.906-1.063 0-1.86.938-.78.937-.78 2.703zm15.517 1.797l1.687.203q-.406 1.484-1.484 2.312-1.078.813-2.766.813-2.125 0-3.375-1.297-1.234-1.313-1.234-3.672 0-2.453 1.25-3.797 1.265-1.344 3.265-1.344 1.938 0 3.157 1.328 1.234 1.313 1.234 3.704v.437h-7.219q.094 1.594.906 2.453.813.844 2.016.844.906 0 1.547-.469.64-.484 1.016-1.515zm-5.391-2.657h5.406q-.11-1.218-.625-1.828-.781-.953-2.031-.953-1.125 0-1.906.766-.766.75-.844 2.015zm9.126 5.766v-9.672h1.468v1.469q.563-1.031 1.032-1.36.484-.328 1.062-.328.828 0 1.688.532l-.563 1.515q-.61-.36-1.203-.36-.547 0-.969.329-.422.328-.61.89-.28.876-.28 1.922v5.063h-1.625zm6.228 0v-9.672h1.469v1.375q1.062-1.594 3.078-1.594.875 0 1.61.313.734.312 1.093.828.375.5.516 1.203.093.453.093 1.594v5.953h-1.64v-5.89q0-1-.203-1.485-.188-.5-.672-.797-.485-.297-1.14-.297-1.048 0-1.813.672-.75.656-.75 2.516v5.28H260.9zm17-3.11l1.688.204q-.406 1.484-1.484 2.312-1.078.813-2.766.813-2.125 0-3.375-1.297-1.234-1.313-1.234-3.672 0-2.453 1.25-3.797 1.265-1.344 3.265-1.344 1.938 0 3.157 1.328 1.234 1.313 1.234 3.704v.437h-7.219q.094 1.594.907 2.453.812.844 2.015.844.906 0 1.547-.469.64-.484 1.016-1.515zm-5.39-2.656h5.406q-.11-1.218-.625-1.828-.781-.953-2.031-.953-1.125 0-1.906.766-.766.75-.844 2.015zm12.72 4.297l.234 1.453q-.688.14-1.234.14-.891 0-1.391-.28-.484-.282-.688-.735-.203-.468-.203-1.937v-5.578h-1.203v-1.266h1.203v-2.39l1.625-.985v3.375h1.657v1.266h-1.657v5.672q0 .687.078.89.094.203.282.328.203.11.578.11.265 0 .719-.063zm8.23-1.64l1.687.203q-.406 1.484-1.484 2.312-1.078.813-2.766.813-2.125 0-3.375-1.297-1.234-1.313-1.234-3.672 0-2.453 1.25-3.797 1.265-1.344 3.265-1.344 1.938 0 3.157 1.328 1.234 1.313 1.234 3.704v.437h-7.219q.094 1.594.907 2.453.812.844 2.015.844.906 0 1.547-.469.64-.484 1.016-1.515zm-5.39-2.657h5.405q-.11-1.218-.625-1.828-.78-.953-2.03-.953-1.126 0-1.907.766-.766.75-.844 2.015zm8.484 2.875l1.625-.25q.125.97.75 1.5.625.516 1.75.516t1.672-.453q.547-.469.547-1.094 0-.547-.484-.875-.329-.219-1.672-.547-1.813-.469-2.516-.797-.687-.328-1.047-.906-.36-.594-.36-1.312 0-.641.298-1.188.297-.562.812-.922.375-.281 1.031-.469.672-.203 1.422-.203 1.14 0 2 .328.86.329 1.266.891.422.563.578 1.5l-1.61.219q-.109-.75-.64-1.172-.516-.422-1.469-.422-1.14 0-1.625.375-.468.375-.468.875 0 .313.187.578.203.266.64.438.235.093 1.438.422 1.75.453 2.438.75.687.296 1.078.859.39.562.39 1.406 0 .828-.484 1.547-.469.719-1.375 1.125-.906.39-2.047.39-1.875 0-2.875-.78-.984-.782-1.25-2.329zM226.813 439.043l1.657-.14q.125 1 .546 1.64.438.64 1.344 1.047.922.39 2.063.39 1 0 1.78-.296.782-.297 1.157-.813.375-.531.375-1.156 0-.625-.375-1.094-.36-.469-1.187-.797-.547-.203-2.39-.64-1.83-.453-2.563-.844-.97-.5-1.438-1.234-.469-.75-.469-1.672 0-1 .578-1.875.579-.89 1.672-1.344 1.11-.453 2.453-.453 1.485 0 2.61.484 1.14.469 1.75 1.406.61.922.656 2.094l-1.687.125q-.141-1.265-.938-1.906-.781-.656-2.312-.656-1.61 0-2.344.593-.735.594-.735 1.422 0 .72.532 1.172.5.469 2.656.969 2.156.484 2.953.844 1.172.53 1.719 1.36.562.827.562 1.905 0 1.063-.61 2.016-.608.937-1.75 1.469-1.14.515-2.577.515-1.813 0-3.047-.53-1.219-.532-1.922-1.595-.687-1.062-.719-2.406zm19.46 1.188l1.687.203q-.406 1.484-1.484 2.312-1.078.813-2.766.813-2.125 0-3.375-1.297-1.234-1.313-1.234-3.672 0-2.453 1.25-3.797 1.265-1.344 3.265-1.344 1.938 0 3.157 1.328 1.234 1.313 1.234 3.704v.437h-7.219q.094 1.594.906 2.453.813.844 2.016.844.906 0 1.547-.469.64-.484 1.016-1.515zm-5.391-2.657h5.406q-.11-1.218-.625-1.828-.781-.953-2.031-.953-1.125 0-1.906.766-.766.75-.844 2.015zm15.454 2.22l1.61.218q-.267 1.656-1.36 2.61-1.078.937-2.672.937-1.985 0-3.188-1.297t-1.203-3.719q0-1.578.516-2.75.515-1.172 1.578-1.75 1.062-.594 2.312-.594 1.579 0 2.579.797 1 .797 1.28 2.266l-1.593.234q-.234-.969-.812-1.453-.579-.5-1.391-.5-1.234 0-2.016.89-.78.891-.78 2.813 0 1.953.75 2.844.75.875 1.952.875.969 0 1.61-.594.656-.594.828-1.828zm3 3.546v-9.672h1.468v1.469q.563-1.031 1.032-1.36.484-.328 1.062-.328.828 0 1.688.532l-.563 1.515q-.61-.36-1.203-.36-.547 0-.969.329-.422.328-.609.89-.281.876-.281 1.922v5.063h-1.625zm12.853-3.11l1.688.204q-.407 1.484-1.485 2.312-1.078.813-2.765.813-2.125 0-3.375-1.297-1.235-1.313-1.235-3.672 0-2.453 1.25-3.797 1.266-1.344 3.266-1.344 1.937 0 3.156 1.328 1.234 1.313 1.234 3.704v.437h-7.218q.093 1.594.906 2.453.812.844 2.016.844.906 0 1.546-.469.641-.484 1.016-1.515zm-5.39-2.656h5.406q-.11-1.218-.625-1.828-.782-.953-2.032-.953-1.125 0-1.906.766-.765.75-.844 2.015zm12.719 4.297l.234 1.453q-.687.14-1.234.14-.89 0-1.39-.28-.485-.282-.688-.735-.203-.468-.203-1.937v-5.578h-1.204v-1.266h1.204v-2.39l1.625-.985v3.375h1.656v1.266h-1.656v5.672q0 .687.078.89.093.203.281.328.203.11.578.11.266 0 .719-.063zm.949-1.422l1.625-.25q.125.97.75 1.5.625.516 1.75.516t1.672-.453q.547-.469.547-1.094 0-.547-.485-.875-.328-.219-1.672-.547-1.812-.469-2.515-.797-.688-.328-1.047-.906-.36-.594-.36-1.312 0-.641.297-1.188.297-.562.813-.922.375-.281 1.031-.469.672-.203 1.422-.203 1.14 0 2 .328.86.329 1.266.891.421.563.578 1.5l-1.61.219q-.11-.75-.64-1.172-.516-.422-1.47-.422-1.14 0-1.624.375-.469.375-.469.875 0 .313.188.578.203.266.64.438.235.093 1.438.422 1.75.453 2.437.75.688.296 1.078.859.391.562.391 1.406 0 .828-.484 1.547-.47.719-1.375 1.125-.907.39-2.047.39-1.875 0-2.875-.78-.985-.782-1.25-2.329z"/>
    <path fill="none" d="M495.256 140.133l94.173-75.685"/>
    <path stroke="#000" stroke-linejoin="round" stroke-linecap="butt" d="M495.256 140.133l89.496-71.927"/>
    <path fill="#000" stroke="#000" stroke-linecap="butt" d="M585.787 69.494l2.503-4.13-4.572 1.555z" fill-rule="evenodd"/>
    <path fill="#ffd966" d="M701.72 15.74h178.96v48.693H701.72z" fill-rule="evenodd"/>
    <path stroke="#000" stroke-linejoin="round" stroke-linecap="butt" d="M701.72 15.74h178.96v48.693H701.72z"/>
    <path fill="#000" d="M756.388 38.462l2.406 6.328 2.39-6.328h1.204l-3.031 7.485h-1.188l-3.047-7.485h1.266zm10.759-.203q1.64 0 2.609 1.094.984 1.078.984 2.812v.328h-6.234q.125 1.172.89 1.938.766.75 1.86.75.719 0 1.36-.344.656-.344 1.046-.953l.813.672q-1.281 1.578-3.219 1.578-1.672 0-2.781-1.11-1.094-1.124-1.094-2.827 0-1.641 1.078-2.782 1.094-1.156 2.688-1.156zm2.437 3.375q0-1.11-.672-1.75-.656-.656-1.75-.656-.984 0-1.797.719-.796.703-.828 1.687h5.047zm6.677-3.375q1.407 0 2.11.766.703.75.703 2.11v4.812h-1.047v-4.22q0-1.265-.469-1.874-.468-.625-1.5-.625-1.031 0-1.687.781-.656.781-.656 2.156v3.782h-1.047V40.04q0-.906-.078-1.578h1.078q.047.438.047 1.203h.03q.36-.625 1.063-1.015.703-.39 1.453-.39zm8.396 0q1.297 0 2.032.734.734.72.734 1.875v3.485q0 .734.125 1.594h-1.031q-.094-.5-.094-1.22h-.031q-.469.735-1.11 1.079-.625.328-1.53.328-1.157 0-1.876-.61-.703-.609-.703-1.577 0-1.344 1.125-1.97 1.14-.624 3.578-.624h.485v-.156q0-1.032-.47-1.5-.468-.47-1.452-.47-1.313 0-2.282.876l-.64-.75q1.047-1.094 3.14-1.094zm-2.328 5.547q0 .64.485 1.016.484.359 1.281.359 1.016 0 1.64-.625.626-.64.626-1.938v-.406h-.735q-1.5 0-2.406.39-.89.391-.89 1.204zm10.695-10.14q.453 0 .922.109l-.188.953q-.437-.11-.828-.11-.687 0-1.031.422-.328.407-.328 1.438v1.984h1.781v.953h-1.781v6.532h-1.047v-6.532h-1.594v-.953h1.594v-2.125q0-1.265.625-1.969.625-.703 1.875-.703zm2.61 1.14q.296 0 .53.234.235.235.235.532 0 .328-.234.562-.235.219-.532.219-.297 0-.53-.219-.235-.234-.235-.562 0-.313.234-.532.234-.234.531-.234zm.53 3.656v7.485h-1.062v-7.485h1.063zm5.858 3.11v1.062h-4.11v-1.062h4.11zm3.469-5.22v2.11h2.172v.953h-2.172V43.9q0 .61.234.953.235.328.86.328.546 0 1.093-.297l.047.984q-.625.266-1.437.266-.875 0-1.36-.5-.484-.516-.484-1.437v-4.782h-1.594v-.953h1.594v-2.11h1.047zm7.609 1.907q1.703 0 2.843 1.125 1.141 1.11 1.141 2.813 0 1.718-1.14 2.828-1.126 1.11-2.844 1.11-.86 0-1.657-.376-.796-.39-1.265-1.062h-.031v5.859H809.1V38.462h1.047v1.25h.03q.47-.672 1.25-1.062.798-.39 1.673-.39zm-3 3.938q0 1.25.86 2.125.858.859 2.14.859 1.265 0 2.047-.844.78-.844.78-2.14 0-1.329-.812-2.141-.797-.828-2.03-.828-1.282 0-2.142.875-.843.86-.843 2.094zm12.776-3.938q1.703 0 2.844 1.125 1.14 1.11 1.14 2.813 0 1.718-1.14 2.828-1.125 1.11-2.844 1.11-.86 0-1.656-.376-.797-.39-1.266-1.062h-.031v5.859h-1.047V38.462h1.047v1.25h.03q.47-.672 1.25-1.062.798-.39 1.673-.39zm-3 3.938q0 1.25.86 2.125.859.859 2.14.859 1.265 0 2.047-.844.78-.844.78-2.14 0-1.329-.812-2.141-.796-.828-2.03-.828-1.282 0-2.141.875-.844.86-.844 2.094z"/>
    <path fill="none" d="M495.256 140.133l295.937-75.685"/>
    <path stroke="#000" stroke-linejoin="round" stroke-linecap="butt" d="M495.256 140.133L785.38 65.934"/>
    <path fill="#000" stroke="#000" stroke-linecap="butt" d="M785.79 67.534l3.987-2.724-4.806-.476z" fill-rule="evenodd"/>
  </g>
</svg>
