<svg id="Layer_1" data-name="Layer 1" xmlns="http://www.w3.org/2000/svg" viewBox="0 0 1200 467.77"><defs><style>.cls-1,.cls-9{fill:#ffd966;}.cls-1,.cls-3,.cls-5,.cls-6,.cls-7,.cls-8,.cls-9{fill-rule:evenodd;}.cls-11,.cls-2,.cls-4{fill:none;}.cls-11,.cls-2,.cls-6,.cls-9{stroke:#000;}.cls-11,.cls-2{stroke-linejoin:round;}.cls-3{fill:#6d9eeb;}.cls-5{fill:#6aa84f;}.cls-6,.cls-9{stroke-miterlimit:10;}.cls-7{fill:#f9cb9c;}.cls-8{fill:#c7a27c;}.cls-10{font-size:15px;font-family:OpenSans-Regular, Open Sans;}.cls-11{stroke-width:1.43px;}</style></defs><title>Artboard 1</title><path class="cls-1" d="M137,15H316V63.67H137Z"/><path class="cls-2" d="M137,15H316V63.67H137Z"/><path d="M160.69,33.09V45.18h-1.07V33.09Zm5.92,4.41a3.32,3.32,0,0,1,2.61,1.09,4,4,0,0,1,1,2.81v.33H164a3.16,3.16,0,0,0,.89,1.94,2.59,2.59,0,0,0,1.86.75,2.81,2.81,0,0,0,1.36-.35,2.68,2.68,0,0,0,1.05-1l.81.67a3.94,3.94,0,0,1-3.22,1.58,3.78,3.78,0,0,1-2.78-1.11,4.17,4.17,0,0,1,0-5.61A3.55,3.55,0,0,1,166.61,37.5ZM169,40.87a2.3,2.3,0,0,0-.67-1.75,2.35,2.35,0,0,0-1.75-.65,2.67,2.67,0,0,0-1.8.71,2.29,2.29,0,0,0-.82,1.69Zm4.79-5.28V37.7H176v.95h-2.17v4.49a1.73,1.73,0,0,0,.23,1,1,1,0,0,0,.86.33,2.28,2.28,0,0,0,1.1-.3l0,1a3.72,3.72,0,0,1-1.43.26,1.8,1.8,0,0,1-1.36-.5,2,2,0,0,1-.49-1.44V38.65h-1.59V37.7h1.59V35.59Zm6,1.91a2.48,2.48,0,0,1,2.5,1.34l-.93.63a1.74,1.74,0,0,0-1.63-1,1.84,1.84,0,0,0-1.11.31.93.93,0,0,0-.43.81.9.9,0,0,0,.34.75,3.77,3.77,0,0,0,1.39.48,4.83,4.83,0,0,1,1.81.66,1.89,1.89,0,0,1,.64.8,2,2,0,0,1,.17.79,2,2,0,0,1-.79,1.69,3.37,3.37,0,0,1-2.11.61,3.24,3.24,0,0,1-2.88-1.45l.91-.63a2.26,2.26,0,0,0,2,1.13,2.11,2.11,0,0,0,1.26-.35,1.06,1.06,0,0,0,.5-.93.89.89,0,0,0-.42-.78,4.26,4.26,0,0,0-1.59-.53c-1.57-.32-2.36-1-2.36-2.07a2,2,0,0,1,.76-1.64,3.1,3.1,0,0,1,2-.62Zm7.79,0a3.32,3.32,0,0,1,2.61,1.09,4,4,0,0,1,1,2.81v.33H185a3.11,3.11,0,0,0,.89,1.94,2.56,2.56,0,0,0,1.86.75,2.84,2.84,0,0,0,1.36-.35,2.68,2.68,0,0,0,1.05-1l.81.67a4,4,0,0,1-3.22,1.58A3.76,3.76,0,0,1,185,44.26a4.15,4.15,0,0,1,0-5.61A3.56,3.56,0,0,1,187.63,37.5Zm2.44,3.37a2.34,2.34,0,0,0-.67-1.75,2.37,2.37,0,0,0-1.75-.65,2.63,2.63,0,0,0-1.8.71,2.3,2.3,0,0,0-.83,1.69Zm6.67-3.37a2.71,2.71,0,0,1,2.11.76,3,3,0,0,1,.71,2.11v4.81h-1.05V41a3.08,3.08,0,0,0-.47-1.87,1.74,1.74,0,0,0-1.5-.62,2.11,2.11,0,0,0-1.69.78,3.28,3.28,0,0,0-.65,2.15v3.78h-1v-5.9a14.31,14.31,0,0,0-.08-1.58h1.08c0,.29,0,.69,0,1.2h0a2.72,2.72,0,0,1,1.06-1,3,3,0,0,1,1.45-.39Zm8.82,0a3.5,3.5,0,0,1,2.8,1.29l-.86.66a2.18,2.18,0,0,0-1.91-1,2.61,2.61,0,0,0-2,.82,3.05,3.05,0,0,0-.77,2.14,3.1,3.1,0,0,0,.77,2.18,2.58,2.58,0,0,0,2,.81,2.22,2.22,0,0,0,1.95-1l.86.65a3.46,3.46,0,0,1-2.83,1.3,3.74,3.74,0,0,1-2.81-1.11,3.94,3.94,0,0,1-1.06-2.83,3.9,3.9,0,0,1,1.07-2.82A3.81,3.81,0,0,1,205.56,37.5Zm7.71,0a2.37,2.37,0,0,1,.78.11l-.2,1a1.39,1.39,0,0,0-.59-.08,2.23,2.23,0,0,0-1.69.7,2.46,2.46,0,0,0-.66,1.77v4.15h-1V40q0-1.35-.06-2.28h1v1.39h0a2.36,2.36,0,0,1,2.4-1.59Zm2.22.2,2.36,6.19,2.28-6.19h1.28l-3.64,9.22a4.41,4.41,0,0,1-1,1.61,2.1,2.1,0,0,1-1.49.5,4.06,4.06,0,0,1-1-.11l.11-1a1.85,1.85,0,0,0,.8.17c.61,0,1.07-.38,1.36-1.14l.62-1.64-3.08-7.58Zm11.29-.2a3.89,3.89,0,0,1,2.85,1.12,4.06,4.06,0,0,1,0,5.64,3.89,3.89,0,0,1-2.85,1.11,3.82,3.82,0,0,1-1.65-.37,3.25,3.25,0,0,1-1.27-1.07h0v5.86h-1.05V37.7h1.05V39h0a3.24,3.24,0,0,1,1.25-1.06,3.76,3.76,0,0,1,1.67-.39Zm-3,3.93a2.94,2.94,0,0,0,3,3,2.63,2.63,0,0,0,2.05-.85,3,3,0,0,0,.78-2.14,2.9,2.9,0,0,0-.81-2.14,2.7,2.7,0,0,0-2-.82,2.94,2.94,0,0,0-3,3Zm10.48-5.84V37.7h2.17v.95h-2.17v4.49a1.65,1.65,0,0,0,.24,1,1,1,0,0,0,.86.33,2.24,2.24,0,0,0,1.09-.3l.05,1a3.81,3.81,0,0,1-1.44.26,1.82,1.82,0,0,1-1.36-.5,2,2,0,0,1-.49-1.44V38.65h-1.59V37.7h1.59V35.59Zm7.17,5.22v1.06h-4.11V40.81Zm4.17-3.31a2.48,2.48,0,0,1,2.5,1.34l-.93.63a1.74,1.74,0,0,0-1.63-1,1.84,1.84,0,0,0-1.11.31.93.93,0,0,0-.43.81.9.9,0,0,0,.34.75,3.77,3.77,0,0,0,1.39.48,4.83,4.83,0,0,1,1.81.66,1.82,1.82,0,0,1,.64.8,2,2,0,0,1,.17.79,2,2,0,0,1-.79,1.69,3.37,3.37,0,0,1-2.11.61,3.24,3.24,0,0,1-2.88-1.45l.91-.63a2.26,2.26,0,0,0,2,1.13,2.11,2.11,0,0,0,1.26-.35,1.06,1.06,0,0,0,.5-.93.89.89,0,0,0-.42-.78,4.26,4.26,0,0,0-1.59-.53c-1.57-.32-2.36-1-2.36-2.07a2,2,0,0,1,.76-1.64,3.1,3.1,0,0,1,2-.62Zm6.12-1.91V37.7h2.17v.95h-2.17v4.49a1.73,1.73,0,0,0,.23,1,1,1,0,0,0,.86.33,2.28,2.28,0,0,0,1.1-.3l0,1a3.74,3.74,0,0,1-1.44.26,1.84,1.84,0,0,1-1.36-.5,2,2,0,0,1-.48-1.44V38.65h-1.59V37.7h1.59V35.59Zm6.7,1.91a2.73,2.73,0,0,1,2,.73,2.52,2.52,0,0,1,.74,1.88v3.48a11.49,11.49,0,0,0,.12,1.59h-1a7,7,0,0,1-.09-1.22h0A3.16,3.16,0,0,1,259.05,45a3.28,3.28,0,0,1-1.54.33,2.77,2.77,0,0,1-1.87-.61,2,2,0,0,1-.7-1.58,2.1,2.1,0,0,1,1.12-2,7.86,7.86,0,0,1,3.58-.62h.48v-.16a2,2,0,0,0-.47-1.5,2,2,0,0,0-1.45-.47,3.33,3.33,0,0,0-2.28.88l-.64-.75a4.15,4.15,0,0,1,3.14-1.09ZM256.09,43a1.21,1.21,0,0,0,.49,1,2.09,2.09,0,0,0,1.28.36,2.21,2.21,0,0,0,1.64-.63,2.64,2.64,0,0,0,.62-1.93v-.41h-.73a6.22,6.22,0,0,0-2.41.39,1.28,1.28,0,0,0-.89,1.2Zm11-5.54a3.29,3.29,0,0,1,2.88,1.43h0V37.7H271v7.48A3.71,3.71,0,0,1,270,48a4.09,4.09,0,0,1-3,1,4.76,4.76,0,0,1-3.61-1.5l.8-.85a3.19,3.19,0,0,0,1.2,1,3.69,3.69,0,0,0,1.67.38,2.83,2.83,0,0,0,2.14-.77,2.88,2.88,0,0,0,.75-2.11v-1.4h0a3.07,3.07,0,0,1-2.79,1.4,3.91,3.91,0,0,1-2.75-1.07,3.62,3.62,0,0,1-1.16-2.74,3.77,3.77,0,0,1,1.09-2.76,3.67,3.67,0,0,1,2.72-1.11Zm-2.65,3.84a2.87,2.87,0,0,0,.81,2,2.67,2.67,0,0,0,2,.84,2.79,2.79,0,0,0,2-.8,2.65,2.65,0,0,0,.83-2,2.93,2.93,0,0,0-.79-2.12,2.84,2.84,0,0,0-4,0,2.85,2.85,0,0,0-.79,2Zm9.77-7.3a.83.83,0,0,1,.77.77.74.74,0,0,1-.24.56.73.73,0,0,1-.53.22.74.74,0,0,1-.53-.22.73.73,0,0,1-.23-.56.67.67,0,0,1,.23-.53A.72.72,0,0,1,274.17,34Zm.53,3.66v7.48h-1.06V37.7Zm6.14-.2a2.72,2.72,0,0,1,2.11.76,3,3,0,0,1,.7,2.11v4.81h-1V41a3.08,3.08,0,0,0-.47-1.87,1.74,1.74,0,0,0-1.5-.62,2.11,2.11,0,0,0-1.69.78,3.23,3.23,0,0,0-.66,2.15v3.78h-1v-5.9a14.31,14.31,0,0,0-.08-1.58h1.08c0,.29,0,.69,0,1.2h0a2.75,2.75,0,0,1,1.07-1,3,3,0,0,1,1.45-.39Zm8.72,0a3.29,3.29,0,0,1,2.88,1.43h.05V37.7h1.06v7.48A3.71,3.71,0,0,1,292.5,48a4.09,4.09,0,0,1-3,1,4.76,4.76,0,0,1-3.61-1.5l.8-.85a3.19,3.19,0,0,0,1.2,1,3.71,3.71,0,0,0,1.68.38,2.84,2.84,0,0,0,2.14-.77,2.88,2.88,0,0,0,.75-2.11v-1.4h0a3.1,3.1,0,0,1-2.8,1.4,3.93,3.93,0,0,1-2.75-1.07,3.62,3.62,0,0,1-1.16-2.74,3.78,3.78,0,0,1,1.1-2.76,3.65,3.65,0,0,1,2.71-1.11Zm-2.65,3.84a2.87,2.87,0,0,0,.81,2,2.67,2.67,0,0,0,2,.84,2.79,2.79,0,0,0,2-.8,2.65,2.65,0,0,0,.83-2,3,3,0,0,0-.78-2.12,2.69,2.69,0,0,0-2.07-.84,2.62,2.62,0,0,0-2,.84,2.81,2.81,0,0,0-.8,2Z"/><path class="cls-1" d="M338.77,15h179V63.67h-179Z"/><path class="cls-2" d="M338.77,15h179V63.67h-179Z"/><path d="M371.77,33.09V45.18h-1.06V33.09Zm5.92,4.41a3.32,3.32,0,0,1,2.61,1.09,4,4,0,0,1,1,2.81v.33h-6.23a3.11,3.11,0,0,0,.89,1.94,2.56,2.56,0,0,0,1.86.75,2.84,2.84,0,0,0,1.36-.35,2.65,2.65,0,0,0,1-1l.82.67a4,4,0,0,1-3.22,1.58A3.76,3.76,0,0,1,375,44.26a4.15,4.15,0,0,1,0-5.61,3.56,3.56,0,0,1,2.69-1.15Zm2.44,3.37a2.3,2.3,0,0,0-.68-1.75,2.34,2.34,0,0,0-1.75-.65,2.63,2.63,0,0,0-1.79.71,2.3,2.3,0,0,0-.83,1.69Zm4.78-5.28V37.7h2.18v.95h-2.18v4.49a1.65,1.65,0,0,0,.24,1,1,1,0,0,0,.86.33,2.24,2.24,0,0,0,1.09-.3l0,1a3.81,3.81,0,0,1-1.44.26,1.82,1.82,0,0,1-1.36-.5,2,2,0,0,1-.48-1.44V38.65h-1.6V37.7h1.6V35.59Zm6,1.91a2.49,2.49,0,0,1,2.5,1.34l-.94.63a1.71,1.71,0,0,0-1.62-1,1.84,1.84,0,0,0-1.11.31.94.94,0,0,0-.44.81.9.9,0,0,0,.34.75,3.84,3.84,0,0,0,1.39.48,5,5,0,0,1,1.82.66,2,2,0,0,1,.64.8,2.16,2.16,0,0,1,.17.79,2,2,0,0,1-.8,1.69,3.35,3.35,0,0,1-2.11.61,3.21,3.21,0,0,1-2.87-1.45l.9-.63a2.26,2.26,0,0,0,2,1.13,2.14,2.14,0,0,0,1.27-.35,1.08,1.08,0,0,0,.5-.93.89.89,0,0,0-.42-.78,4.33,4.33,0,0,0-1.6-.53c-1.57-.32-2.36-1-2.36-2.07a2,2,0,0,1,.77-1.64,3.08,3.08,0,0,1,2-.62Zm7.78,0a3.29,3.29,0,0,1,2.61,1.09,4,4,0,0,1,1,2.81v.33h-6.24a3.16,3.16,0,0,0,.89,1.94,2.56,2.56,0,0,0,1.86.75,2.81,2.81,0,0,0,1.36-.35,2.68,2.68,0,0,0,1.05-1l.81.67a4,4,0,0,1-3.22,1.58A3.78,3.78,0,0,1,396,44.26a4.17,4.17,0,0,1,0-5.61,3.54,3.54,0,0,1,2.68-1.15Zm2.44,3.37a2.3,2.3,0,0,0-.67-1.75,2.35,2.35,0,0,0-1.75-.65,2.63,2.63,0,0,0-1.8.71,2.34,2.34,0,0,0-.83,1.69Zm6.68-3.37a2.72,2.72,0,0,1,2.11.76,3,3,0,0,1,.7,2.11v4.81h-1.05V41a3.09,3.09,0,0,0-.46-1.87,1.76,1.76,0,0,0-1.5-.62,2.11,2.11,0,0,0-1.69.78,3.23,3.23,0,0,0-.66,2.15v3.78h-1v-5.9a12.38,12.38,0,0,0-.07-1.58h1.07a9.62,9.62,0,0,1,0,1.2h0a2.75,2.75,0,0,1,1.07-1,2.92,2.92,0,0,1,1.45-.39Zm8.82,0a3.5,3.5,0,0,1,2.79,1.29l-.86.66a2.17,2.17,0,0,0-1.9-1,2.62,2.62,0,0,0-2,.82,3,3,0,0,0-.76,2.14,3.1,3.1,0,0,0,.76,2.18,2.59,2.59,0,0,0,2,.81,2.21,2.21,0,0,0,1.95-1l.86.65a3.45,3.45,0,0,1-2.83,1.3,3.75,3.75,0,0,1-2.81-1.11,3.94,3.94,0,0,1-1.06-2.83,3.86,3.86,0,0,1,1.08-2.82,3.8,3.8,0,0,1,2.83-1.11Zm7.71,0a2.45,2.45,0,0,1,.78.11l-.2,1a1.48,1.48,0,0,0-.6-.08,2.21,2.21,0,0,0-1.68.7A2.46,2.46,0,0,0,422,41v4.15H421V40q0-1.35-.06-2.28h1v1.39h0a2.37,2.37,0,0,1,2.41-1.59Zm2.22.2,2.36,6.19,2.28-6.19h1.28l-3.64,9.22a4.28,4.28,0,0,1-1,1.61,2.09,2.09,0,0,1-1.48.5,4.06,4.06,0,0,1-.95-.11l.11-1a1.77,1.77,0,0,0,.79.17c.62,0,1.07-.38,1.36-1.14l.63-1.64-3.08-7.58Zm11.29-.2a3.88,3.88,0,0,1,2.84,1.12,4.06,4.06,0,0,1,0,5.64,3.88,3.88,0,0,1-2.84,1.11,3.83,3.83,0,0,1-1.66-.37,3.33,3.33,0,0,1-1.27-1.07h0v5.86h-1V37.7h1V39h0a3.32,3.32,0,0,1,1.25-1.06,3.8,3.8,0,0,1,1.68-.39Zm-3,3.93a2.94,2.94,0,0,0,3,3,2.63,2.63,0,0,0,2-.85,3,3,0,0,0,.78-2.14,2.9,2.9,0,0,0-.81-2.14,2.7,2.7,0,0,0-2-.82,2.92,2.92,0,0,0-3,3Zm10.48-5.84V37.7h2.17v.95h-2.17v4.49a1.65,1.65,0,0,0,.23,1,1,1,0,0,0,.86.33,2.24,2.24,0,0,0,1.09-.3l.05,1a3.81,3.81,0,0,1-1.44.26,1.84,1.84,0,0,1-1.36-.5,2,2,0,0,1-.48-1.44V38.65h-1.6V37.7h1.6V35.59Zm7.17,5.22v1.06h-4.11V40.81Zm5.76-3.31a3.89,3.89,0,0,1,2.85,1.12,4.06,4.06,0,0,1,0,5.64,3.89,3.89,0,0,1-2.85,1.11,3.82,3.82,0,0,1-1.65-.37,3.25,3.25,0,0,1-1.27-1.07h0v5.86h-1.05V37.7h1.05V39h0a3.24,3.24,0,0,1,1.25-1.06,3.76,3.76,0,0,1,1.67-.39Zm-3,3.93a2.94,2.94,0,0,0,3,3,2.63,2.63,0,0,0,2.05-.85,3,3,0,0,0,.78-2.14,2.9,2.9,0,0,0-.81-2.14,2.7,2.7,0,0,0-2-.82,2.94,2.94,0,0,0-3,3Zm12.29-3.93a2.37,2.37,0,0,1,.78.11l-.2,1a1.39,1.39,0,0,0-.59-.08,2.23,2.23,0,0,0-1.69.7,2.45,2.45,0,0,0-.65,1.77v4.15h-1.05V40q0-1.35-.06-2.28h1v1.39h0a2.36,2.36,0,0,1,2.41-1.59Zm5.09,0a3.9,3.9,0,0,1,2.84,1.11,3.77,3.77,0,0,1,1.14,2.82,3.85,3.85,0,0,1-1.1,2.83,4.24,4.24,0,0,1-5.72,0,4,4,0,0,1,2.84-6.76Zm-2.81,3.93a3,3,0,0,0,.76,2.14,2.89,2.89,0,0,0,4.1,0,3,3,0,0,0,.78-2.13,2.94,2.94,0,0,0-.8-2.14,2.71,2.71,0,0,0-2.05-.82,2.57,2.57,0,0,0-2,.86,3,3,0,0,0-.76,2.1ZM486,33.09V45.18H485V43.93h0A3.09,3.09,0,0,1,483.66,45a3.75,3.75,0,0,1-1.62.37,3.82,3.82,0,0,1-4-3.94,3.85,3.85,0,0,1,4-3.93,3.74,3.74,0,0,1,1.66.39A3.17,3.17,0,0,1,485,39h0V33.09Zm-6.83,8.34a3,3,0,0,0,.8,2.16,2.71,2.71,0,0,0,2,.83,2.86,2.86,0,0,0,2.12-.86,2.89,2.89,0,0,0,.86-2.13,3,3,0,0,0-3-3,2.65,2.65,0,0,0-2,.84A2.94,2.94,0,0,0,479.21,41.43Z"/><path class="cls-1" d="M540.53,15h179V63.67h-179Z"/><path class="cls-2" d="M540.53,15h179V63.67h-179Z"/><path d="M594.76,37.7l2.4,6.33,2.4-6.33h1.2l-3,7.48h-1.19l-3-7.48Zm10.48-.2a2.75,2.75,0,0,1,2,.73,2.52,2.52,0,0,1,.73,1.88v3.48a10.2,10.2,0,0,0,.13,1.59h-1A6.06,6.06,0,0,1,607,44h0A3,3,0,0,1,605.86,45a3.26,3.26,0,0,1-1.53.33,2.8,2.8,0,0,1-1.88-.61,2,2,0,0,1-.7-1.58,2.11,2.11,0,0,1,1.13-2,7.84,7.84,0,0,1,3.57-.62h.49v-.16a2.09,2.09,0,0,0-.47-1.5,2,2,0,0,0-1.45-.47,3.29,3.29,0,0,0-2.28.88l-.64-.75A4.13,4.13,0,0,1,605.24,37.5ZM602.91,43a1.23,1.23,0,0,0,.48,1,2.11,2.11,0,0,0,1.28.36,2.19,2.19,0,0,0,1.64-.63,2.64,2.64,0,0,0,.63-1.93v-.41h-.74a6.13,6.13,0,0,0-2.4.39,1.28,1.28,0,0,0-.89,1.2Zm8.58-5.34v4.22a3.12,3.12,0,0,0,.47,1.9,1.89,1.89,0,0,0,1.55.6,2,2,0,0,0,1.64-.8,3,3,0,0,0,.66-2V37.7h1v5.91c0,.59,0,1.12.08,1.57h-1.08c0-.4,0-.8,0-1.2h0a2.83,2.83,0,0,1-1.11,1,3,3,0,0,1-1.4.36,2.71,2.71,0,0,1-2.14-.78,3.06,3.06,0,0,1-.67-2.08V37.7Zm9.15-4.61V45.18h-1.06V33.09Zm4.26,2.5V37.7h2.17v.95H624.9v4.49a1.65,1.65,0,0,0,.24,1,1,1,0,0,0,.86.33,2.27,2.27,0,0,0,1.09-.3l0,1a3.81,3.81,0,0,1-1.44.26,1.82,1.82,0,0,1-1.36-.5,2,2,0,0,1-.49-1.44V38.65h-1.59V37.7h1.59V35.59Zm7.17,5.22v1.06H628V40.81Zm5.77-3.31a3.88,3.88,0,0,1,2.84,1.12,4.06,4.06,0,0,1,0,5.64,4.09,4.09,0,0,1-4.5.74,3.22,3.22,0,0,1-1.26-1.07h0v5.86h-1V37.7h1V39h0a3.24,3.24,0,0,1,1.25-1.06,3.76,3.76,0,0,1,1.67-.39Zm-3,3.93a2.94,2.94,0,0,0,3,3,2.66,2.66,0,0,0,2-.85,3,3,0,0,0,.78-2.14,2.87,2.87,0,0,0-.82-2.14,2.68,2.68,0,0,0-2-.82,2.9,2.9,0,0,0-2.14.87A2.87,2.87,0,0,0,634.84,41.43Zm12.29-3.93a2.45,2.45,0,0,1,.78.11l-.2,1a1.45,1.45,0,0,0-.6-.08,2.23,2.23,0,0,0-1.68.7,2.46,2.46,0,0,0-.66,1.77v4.15h-1V40q0-1.35-.06-2.28h1v1.39h0A2.37,2.37,0,0,1,647.13,37.5Zm5.09,0a3.91,3.91,0,0,1,2.84,1.11,3.77,3.77,0,0,1,1.14,2.82,4,4,0,1,1-8,0,3.86,3.86,0,0,1,4-3.93Zm-2.82,3.93a3.05,3.05,0,0,0,.77,2.14,2.63,2.63,0,0,0,2.05.85,2.61,2.61,0,0,0,2-.86,3,3,0,0,0,.78-2.13,2.93,2.93,0,0,0-.79-2.14,2.73,2.73,0,0,0-2-.82,2.57,2.57,0,0,0-2,.86,3,3,0,0,0-.77,2.1Zm16.2-8.34V45.18h-1.07V43.93h0A3.06,3.06,0,0,1,663.22,45a3.75,3.75,0,0,1-1.62.37,3.82,3.82,0,0,1-4-3.94,3.85,3.85,0,0,1,4-3.93,3.7,3.7,0,0,1,1.65.39A3.1,3.1,0,0,1,664.5,39h0V33.09Zm-6.83,8.34a3,3,0,0,0,.79,2.16,2.73,2.73,0,0,0,2,.83,2.86,2.86,0,0,0,2.12-.86,2.93,2.93,0,0,0,.86-2.13,3,3,0,0,0-3-3,2.69,2.69,0,0,0-2,.84A2.93,2.93,0,0,0,658.77,41.43Z"/><path class="cls-3" d="M470.43,268.57h140v60.89a12.18,12.18,0,0,1-12.18,12.18h-140V280.75a12.18,12.18,0,0,1,12.18-12.18Z"/><path class="cls-2" d="M470.43,268.57h140v60.89a12.18,12.18,0,0,1-12.18,12.18h-140V280.75a12.18,12.18,0,0,1,12.18-12.18Z"/><path d="M489.61,291.2a4.27,4.27,0,0,1,1.06.13l-.22,1.12a4.05,4.05,0,0,0-.95-.12,1.45,1.45,0,0,0-1.19.48,2.71,2.71,0,0,0-.39,1.67v2.31H490v1.13h-2.07v7.61h-1.23v-7.61h-1.85v-1.13h1.85v-2.48a3.32,3.32,0,0,1,.72-2.28A2.79,2.79,0,0,1,489.61,291.2Zm6,5.38a4.57,4.57,0,0,1,3.31,1.29,4.36,4.36,0,0,1,1.34,3.3,4.49,4.49,0,0,1-1.29,3.28,5,5,0,0,1-6.69,0,4.6,4.6,0,0,1,3.33-7.87Zm-3.28,4.59a3.52,3.52,0,0,0,.9,2.48,3.37,3.37,0,0,0,4.78,0,3.52,3.52,0,0,0,.91-2.47,3.39,3.39,0,0,0-.94-2.5,3.16,3.16,0,0,0-2.39-1,3,3,0,0,0-2.37,1A3.52,3.52,0,0,0,492.34,301.17Zm14.34-4.59a4.56,4.56,0,0,1,3.31,1.29,4.36,4.36,0,0,1,1.35,3.3,4.49,4.49,0,0,1-1.3,3.28,5,5,0,0,1-6.69,0,4.6,4.6,0,0,1,3.33-7.87Zm-3.28,4.59a3.48,3.48,0,0,0,.91,2.48,3.05,3.05,0,0,0,2.37,1,3.13,3.13,0,0,0,2.41-1,3.56,3.56,0,0,0,.9-2.47,3.42,3.42,0,0,0-.93-2.5,3.2,3.2,0,0,0-2.4-1,3,3,0,0,0-2.37,1,3.57,3.57,0,0,0-.89,2.47Zm11.42,2.45a.91.91,0,0,1,.7.3,1,1,0,0,1,.3.72,1,1,0,0,1-.3.7.91.91,0,0,1-.7.3.94.94,0,0,1-.73-.3,1,1,0,0,1-.28-.7,1,1,0,0,1,.29-.72A1,1,0,0,1,514.82,303.62Zm5.17-12.2v6.83h0a3.74,3.74,0,0,1,1.47-1.22,4.36,4.36,0,0,1,1.92-.45,4.49,4.49,0,0,1,3.35,1.31,4.43,4.43,0,0,1,1.31,3.28,4.37,4.37,0,0,1-1.33,3.28,4.73,4.73,0,0,1-5.25.86,3.85,3.85,0,0,1-1.47-1.23h0v1.45h-1.23V291.42Zm-.06,9.75a3.42,3.42,0,0,0,3.48,3.47,3.08,3.08,0,0,0,2.39-1,3.45,3.45,0,0,0,.93-2.48,3.36,3.36,0,0,0-1-2.5,3.13,3.13,0,0,0-2.37-1,3.38,3.38,0,0,0-3.47,3.47Zm13.85-4.59a3.2,3.2,0,0,1,2.35.84,2.93,2.93,0,0,1,.86,2.2v4.05a12.66,12.66,0,0,0,.15,1.86h-1.2a7.24,7.24,0,0,1-.11-1.42h0a3.54,3.54,0,0,1-1.28,1.25,3.8,3.8,0,0,1-1.8.39,3.29,3.29,0,0,1-2.19-.71,2.29,2.29,0,0,1-.83-1.84,2.43,2.43,0,0,1,1.32-2.3,9,9,0,0,1,4.17-.73h.56V300a2.33,2.33,0,0,0-.55-1.73,2.25,2.25,0,0,0-1.68-.55,3.9,3.9,0,0,0-2.68,1l-.75-.88a5,5,0,0,1,3.69-1.26ZM531.05,303a1.42,1.42,0,0,0,.56,1.19,2.47,2.47,0,0,0,1.5.42,2.56,2.56,0,0,0,1.91-.74,3.09,3.09,0,0,0,.73-2.25v-.47h-.86a7.2,7.2,0,0,0-2.8.46,1.46,1.46,0,0,0-1,1.39Zm12.9-6.45a3.71,3.71,0,0,1,.9.1l-.23,1.22a2,2,0,0,0-.7-.09,2.63,2.63,0,0,0-2,.81,2.88,2.88,0,0,0-.76,2.06v4.85H540v-6.06c0-1.05,0-1.94-.06-2.68h1.2v1.63h0a2.74,2.74,0,0,1,2.8-1.84Zm1.62,7a.92.92,0,0,1,.7.3,1,1,0,0,1,.3.72,1,1,0,0,1-.3.7.92.92,0,0,1-.7.3,1,1,0,0,1-1-1,1,1,0,0,1,.3-.72,1,1,0,0,1,.72-.3Zm8-7a4.13,4.13,0,0,1,3.27,1.51l-1,.77a2.55,2.55,0,0,0-2.22-1.16,3.08,3.08,0,0,0-2.36,1,3.57,3.57,0,0,0-.89,2.5,3.53,3.53,0,0,0,.89,2.51,3,3,0,0,0,2.3,1,2.58,2.58,0,0,0,2.28-1.16l1,.77a4.11,4.11,0,0,1-3.32,1.5,4.34,4.34,0,0,1-3.26-1.3,4.58,4.58,0,0,1-1.25-3.28,4.53,4.53,0,0,1,1.26-3.3A4.47,4.47,0,0,1,553.61,296.58Zm9.06,0a4.57,4.57,0,0,1,3.31,1.29,4.39,4.39,0,0,1,1.34,3.3,4.49,4.49,0,0,1-1.29,3.28,5,5,0,0,1-6.69,0,4.6,4.6,0,0,1,3.33-7.87Zm-3.28,4.59a3.52,3.52,0,0,0,.9,2.48,3.37,3.37,0,0,0,4.78,0,3.52,3.52,0,0,0,.91-2.47,3.39,3.39,0,0,0-.94-2.5,3.16,3.16,0,0,0-2.39-1,3,3,0,0,0-2.37,1A3.52,3.52,0,0,0,559.39,301.17Zm14.25-4.59a2.71,2.71,0,0,1,2.78,1.81,2.84,2.84,0,0,1,1.18-1.33,3.33,3.33,0,0,1,1.71-.48,3.2,3.2,0,0,1,2.44.87,3.46,3.46,0,0,1,.82,2.47v5.61h-1.22v-5.19a3.2,3.2,0,0,0-.51-2,2,2,0,0,0-1.69-.64,2.1,2.1,0,0,0-1.84.88,3.66,3.66,0,0,0-.63,2.23v4.72h-1.23v-5.19a3.27,3.27,0,0,0-.5-2,2,2,0,0,0-1.67-.64,2.16,2.16,0,0,0-1.8.92,4,4,0,0,0-.69,2.47v4.44h-1.23v-6.91a14.09,14.09,0,0,0-.1-1.83h1.33v1.33h0A3,3,0,0,1,572,297a3.34,3.34,0,0,1,1.63-.43ZM497,312.3l-1.61,7.55h-.78l1.61-7.55Zm2.88,2.44c.82,0,1.31.3,1.45.89l-.7.42a.89.89,0,0,0-.94-.67,1.56,1.56,0,0,0-.78.2.79.79,0,0,0-.41.53.54.54,0,0,0,.11.52,2.28,2.28,0,0,0,.88.31,2.75,2.75,0,0,1,1.11.44,1,1,0,0,1,.31.53,1.18,1.18,0,0,1,0,.53,1.71,1.71,0,0,1-.78,1.13,2.62,2.62,0,0,1-1.48.4,1.68,1.68,0,0,1-1.71-1l.69-.4a1.18,1.18,0,0,0,1.16.73,1.66,1.66,0,0,0,.89-.22.91.91,0,0,0,.45-.62.48.48,0,0,0-.16-.52,2.56,2.56,0,0,0-1-.36c-1-.2-1.41-.66-1.26-1.37a1.64,1.64,0,0,1,.75-1.09,2.42,2.42,0,0,1,1.42-.41Zm4.54,0c.82,0,1.31.3,1.45.89l-.7.42a.89.89,0,0,0-.94-.67,1.56,1.56,0,0,0-.78.2.79.79,0,0,0-.41.53.54.54,0,0,0,.11.52,2.28,2.28,0,0,0,.88.31,2.75,2.75,0,0,1,1.11.44,1,1,0,0,1,.31.53,1.18,1.18,0,0,1,0,.53,1.71,1.71,0,0,1-.78,1.13,2.63,2.63,0,0,1-1.49.4,1.68,1.68,0,0,1-1.7-1l.69-.4a1.18,1.18,0,0,0,1.16.73,1.66,1.66,0,0,0,.89-.22.91.91,0,0,0,.45-.62.48.48,0,0,0-.16-.52,2.56,2.56,0,0,0-1-.36c-1-.2-1.41-.66-1.26-1.37a1.64,1.64,0,0,1,.75-1.09,2.42,2.42,0,0,1,1.42-.41Zm3.6.12-.59,2.82a1.85,1.85,0,0,0,0,1.26,1,1,0,0,0,.95.39,1.75,1.75,0,0,0,1.21-.51,2.77,2.77,0,0,0,.73-1.36l.55-2.6h.7l-.84,3.93c-.08.4-.14.76-.18,1.06h-.71c0-.27.08-.54.14-.8h0a2.54,2.54,0,0,1-.89.69,2.29,2.29,0,0,1-1,.23,1.47,1.47,0,0,1-1.31-.51,1.91,1.91,0,0,1-.16-1.39l.69-3.21Zm7.5-.12a1.76,1.76,0,0,1,1.58.72,2.27,2.27,0,0,1,.25,1.87l0,.22h-4.16a1.81,1.81,0,0,0,.33,1.28,1.37,1.37,0,0,0,1.14.5,2.23,2.23,0,0,0,.95-.22,2.47,2.47,0,0,0,.83-.64l.45.46a3.4,3.4,0,0,1-2.37,1,2,2,0,0,1-1.69-.73,2.16,2.16,0,0,1-.33-1.89,3.33,3.33,0,0,1,1.11-1.85,2.93,2.93,0,0,1,2-.76Zm1.14,2.23a1.28,1.28,0,0,0-.18-1.15,1.3,1.3,0,0,0-1.08-.44,2.21,2.21,0,0,0-1.3.47,2,2,0,0,0-.79,1.12h3.35Zm4.88-2.23a2.12,2.12,0,0,1,.52.06l-.3.69a1.1,1.1,0,0,0-.39-.05,1.85,1.85,0,0,0-1.22.47,2,2,0,0,0-.67,1.17l-.59,2.77h-.71l.74-3.47c.11-.59.21-1.1.28-1.52h.69l-.21.93h0A2,2,0,0,1,521.51,314.74Zm1.9.06a.42.42,0,0,1,.36.17.49.49,0,0,1,.09.41.71.71,0,0,1-.26.41.7.7,0,0,1-.44.17.45.45,0,0,1-.39-.17.57.57,0,0,1-.06-.41A.69.69,0,0,1,523,315a.68.68,0,0,1,.45-.17Zm-.84,3.95a.43.43,0,0,1,.36.18.47.47,0,0,1,.09.4.68.68,0,0,1-.27.41.67.67,0,0,1-.43.17.45.45,0,0,1-.39-.17.52.52,0,0,1-.07-.41.72.72,0,0,1,.25-.4.69.69,0,0,1,.46-.18Zm6.25-3.89.7,4.22,2.5-4.22h.8l-3.08,5h-.8l-1-5Zm7.2-.12a1.77,1.77,0,0,1,1.58.72,2.35,2.35,0,0,1,.25,1.87l-.05.22h-4.16a1.81,1.81,0,0,0,.33,1.28,1.37,1.37,0,0,0,1.14.5,2.3,2.3,0,0,0,1-.22,2.43,2.43,0,0,0,.82-.64l.46.46a3.41,3.41,0,0,1-2.38,1,2,2,0,0,1-1.69-.73,2.19,2.19,0,0,1-.32-1.89,3.22,3.22,0,0,1,1.11-1.85,2.91,2.91,0,0,1,1.95-.76Zm1.14,2.23a1.32,1.32,0,0,0-.19-1.15,1.3,1.3,0,0,0-1.08-.44,2.18,2.18,0,0,0-1.29.47,1.93,1.93,0,0,0-.8,1.12Zm4.94-2.23a1.52,1.52,0,0,1,1.3.5,1.77,1.77,0,0,1,.17,1.41l-.69,3.2h-.7l.59-2.81a1.74,1.74,0,0,0,0-1.25.92.92,0,0,0-.9-.41,1.75,1.75,0,0,0-1.24.52,2.76,2.76,0,0,0-.75,1.43l-.53,2.52h-.7l.84-3.94c.09-.41.14-.75.18-1.05h.71a5.9,5.9,0,0,1-.14.8h0a2.32,2.32,0,0,1,.86-.67,2.36,2.36,0,0,1,1-.25Zm5.58,0a1.5,1.5,0,0,1,1.25.48,1.41,1.41,0,0,1,.22,1.25l-.5,2.32a9.78,9.78,0,0,0-.14,1.06h-.67a3.21,3.21,0,0,1,.09-.81h0a2.7,2.7,0,0,1-.89.71A2.47,2.47,0,0,1,546,320a1.55,1.55,0,0,1-1.17-.4,1.09,1.09,0,0,1-.23-1.05,1.76,1.76,0,0,1,1-1.31,5.69,5.69,0,0,1,2.47-.42h.32l0-.11a1.19,1.19,0,0,0-.11-1,1.08,1.08,0,0,0-.89-.31,2.73,2.73,0,0,0-1.66.58l-.31-.5a3.38,3.38,0,0,1,2.25-.72Zm-2.34,3.69a.71.71,0,0,0,.18.67,1.23,1.23,0,0,0,.8.23,1.78,1.78,0,0,0,1.19-.42,2.29,2.29,0,0,0,.69-1.28l.06-.27h-.5a4.4,4.4,0,0,0-1.66.27,1.12,1.12,0,0,0-.76.8Zm8.56-6.77a2.39,2.39,0,0,1,.59.08l-.25.64a2,2,0,0,0-.53-.08,1.09,1.09,0,0,0-.75.28,1.87,1.87,0,0,0-.42,1l-.28,1.32h1.19l-.14.64h-1.19l-.92,4.35h-.71l.92-4.35h-1l.14-.64h1l.29-1.42a2.54,2.54,0,0,1,.69-1.31,2,2,0,0,1,1.36-.47Zm1.25.77a.41.41,0,0,1,.41.51.71.71,0,0,1-.24.38.64.64,0,0,1-.39.14.49.49,0,0,1-.33-.14.46.46,0,0,1-.08-.38.66.66,0,0,1,.24-.36.64.64,0,0,1,.39-.15Zm-.17,2.43-1.07,5h-.7l1.06-5Zm3.8,2.08-.16.71h-2.73l.15-.71Zm3.05-3.48-.3,1.4H563l-.14.64h-1.44l-.64,3a1,1,0,0,0,0,.62c.07.15.24.22.52.22a1.92,1.92,0,0,0,.78-.18l-.11.65a2.8,2.8,0,0,1-1,.17,1.06,1.06,0,0,1-.85-.32,1.19,1.19,0,0,1-.11-1l.68-3.19h-1.05l.14-.64h1.05l.29-1.4Zm4.8,1.28a2.08,2.08,0,0,1,1.73.73,2.14,2.14,0,0,1,.35,1.88,3.3,3.3,0,0,1-1.16,1.89,3.14,3.14,0,0,1-2,.73,2.27,2.27,0,0,1-1.06-.25,1.66,1.66,0,0,1-.69-.7h0l-.83,3.89h-.7l1.72-8.05h.7l-.17.83h0a2.83,2.83,0,0,1,1-.7,2.9,2.9,0,0,1,1.17-.25Zm-2.56,2.61a1.68,1.68,0,0,0,.26,1.42,1.59,1.59,0,0,0,1.32.56,2.18,2.18,0,0,0,1.46-.54,2.57,2.57,0,0,0,.83-1.44,1.64,1.64,0,0,0-.23-1.42,1.45,1.45,0,0,0-1.24-.55,2.29,2.29,0,0,0-1.54.58,2.34,2.34,0,0,0-.86,1.39Zm9.07-2.61a2.11,2.11,0,0,1,1.74.73,2.14,2.14,0,0,1,.34,1.88,3.3,3.3,0,0,1-1.16,1.89,3.13,3.13,0,0,1-2,.73,2.28,2.28,0,0,1-1.07-.25,1.58,1.58,0,0,1-.68-.7h0l-.83,3.89h-.7l1.72-8.05h.7l-.17.83h0a3,3,0,0,1,2.16-.95Zm-2.56,2.61a1.68,1.68,0,0,0,.26,1.42,1.59,1.59,0,0,0,1.32.56,2.23,2.23,0,0,0,1.47-.54,2.61,2.61,0,0,0,.82-1.44,1.64,1.64,0,0,0-.23-1.42,1.45,1.45,0,0,0-1.24-.55,2.31,2.31,0,0,0-1.54.58,2.34,2.34,0,0,0-.86,1.39Z"/><path class="cls-4" d="M43.87,18H124V60H43.87Z"/><path d="M54.61,44.94V31.58h1.76V44.94Zm4-2.89,1.62-.25A2.26,2.26,0,0,0,61,43.3a2.7,2.7,0,0,0,1.75.51,2.58,2.58,0,0,0,1.67-.45A1.39,1.39,0,0,0,65,42.27a1,1,0,0,0-.49-.88,6.49,6.49,0,0,0-1.67-.54,17.12,17.12,0,0,1-2.51-.8,2.41,2.41,0,0,1-1.05-.91,2.54,2.54,0,0,1-.06-2.5,2.66,2.66,0,0,1,.81-.92,3.2,3.2,0,0,1,1-.47,5.08,5.08,0,0,1,1.42-.2,5.55,5.55,0,0,1,2,.33,2.64,2.64,0,0,1,1.27.89,3.44,3.44,0,0,1,.58,1.5L64.7,38a1.84,1.84,0,0,0-.64-1.18,2.3,2.3,0,0,0-1.47-.42,2.73,2.73,0,0,0-1.63.38,1.1,1.1,0,0,0-.47.87,1,1,0,0,0,.19.58,1.51,1.51,0,0,0,.64.44q.24.09,1.44.42a18.41,18.41,0,0,1,2.44.75,2.44,2.44,0,0,1,1.08.86,2.4,2.4,0,0,1,.39,1.41,2.73,2.73,0,0,1-.49,1.54,3.09,3.09,0,0,1-1.37,1.13,5.17,5.17,0,0,1-2.05.39,4.56,4.56,0,0,1-2.87-.78A3.58,3.58,0,0,1,58.64,42.05Zm9.32,0,1.63-.25a2.26,2.26,0,0,0,.75,1.5,2.7,2.7,0,0,0,1.75.51,2.58,2.58,0,0,0,1.67-.45,1.42,1.42,0,0,0,.55-1.09,1,1,0,0,0-.49-.88,6.64,6.64,0,0,0-1.67-.54,16.7,16.7,0,0,1-2.51-.8,2.41,2.41,0,0,1-1-.91,2.58,2.58,0,0,1,.75-3.42,3.2,3.2,0,0,1,1-.47,5.08,5.08,0,0,1,1.42-.2,5.55,5.55,0,0,1,2,.33,2.64,2.64,0,0,1,1.27.89,3.44,3.44,0,0,1,.58,1.5L74,38a1.84,1.84,0,0,0-.64-1.18,2.3,2.3,0,0,0-1.47-.42,2.71,2.71,0,0,0-1.63.38,1.1,1.1,0,0,0-.47.87,1,1,0,0,0,.19.58,1.51,1.51,0,0,0,.64.44q.24.09,1.44.42a18.41,18.41,0,0,1,2.44.75,2.47,2.47,0,0,1,1.07.86A2.4,2.4,0,0,1,76,42.1a2.72,2.72,0,0,1-.48,1.54,3.09,3.09,0,0,1-1.37,1.13,5.17,5.17,0,0,1-2,.39,4.61,4.61,0,0,1-2.88-.78A3.67,3.67,0,0,1,68,42.05Zm16.32,2.89V43.52a3.54,3.54,0,0,1-3.07,1.64,4,4,0,0,1-1.61-.33A2.57,2.57,0,0,1,78.51,44a3,3,0,0,1-.5-1.22,7.69,7.69,0,0,1-.11-1.53v-6h1.64v5.36a9.05,9.05,0,0,0,.11,1.73,1.7,1.7,0,0,0,.66,1,2,2,0,0,0,1.23.37,2.7,2.7,0,0,0,1.38-.37,2.22,2.22,0,0,0,.92-1,5.22,5.22,0,0,0,.26-1.89V35.27h1.64v9.67ZM95,41.83l1.69.2a4.26,4.26,0,0,1-1.49,2.32A5.07,5.07,0,0,1,89,43.86a5.15,5.15,0,0,1-1.23-3.67A5.34,5.34,0,0,1,89,36.39a4.29,4.29,0,0,1,3.26-1.34,4.08,4.08,0,0,1,3.16,1.33,5.2,5.2,0,0,1,1.23,3.7v.44H89.46A3.81,3.81,0,0,0,90.37,43a2.69,2.69,0,0,0,2,.84,2.53,2.53,0,0,0,1.54-.46,3.24,3.24,0,0,0,1-1.52Zm-5.39-2.66H95a3.21,3.21,0,0,0-.62-1.82,2.5,2.5,0,0,0-2-1,2.63,2.63,0,0,0-1.91.77,3,3,0,0,0-.84,2Zm9.12,5.77V35.27h1.47v1.47a4.16,4.16,0,0,1,1-1.36,1.88,1.88,0,0,1,1.07-.33,3.21,3.21,0,0,1,1.68.53l-.56,1.52a2.37,2.37,0,0,0-1.2-.36,1.52,1.52,0,0,0-1,.33,1.8,1.8,0,0,0-.61.89,6.14,6.14,0,0,0-.28,1.92v5.06Zm5.58-2.89,1.62-.25a2.26,2.26,0,0,0,.75,1.5,2.7,2.7,0,0,0,1.75.51,2.58,2.58,0,0,0,1.67-.45,1.39,1.39,0,0,0,.55-1.09,1,1,0,0,0-.49-.88,6.49,6.49,0,0,0-1.67-.54,17.12,17.12,0,0,1-2.51-.8,2.41,2.41,0,0,1-1.05-.91,2.54,2.54,0,0,1-.06-2.5,2.66,2.66,0,0,1,.81-.92,3.2,3.2,0,0,1,1-.47,5.08,5.08,0,0,1,1.42-.2,5.55,5.55,0,0,1,2,.33,2.64,2.64,0,0,1,1.27.89,3.44,3.44,0,0,1,.58,1.5l-1.61.22a1.8,1.8,0,0,0-.64-1.18,2.3,2.3,0,0,0-1.47-.42,2.73,2.73,0,0,0-1.63.38,1.1,1.1,0,0,0-.47.87,1,1,0,0,0,.19.58,1.51,1.51,0,0,0,.64.44q.24.09,1.44.42a18.41,18.41,0,0,1,2.44.75,2.44,2.44,0,0,1,1.08.86,2.4,2.4,0,0,1,.39,1.41,2.66,2.66,0,0,1-.49,1.54,3.09,3.09,0,0,1-1.37,1.13,5.17,5.17,0,0,1-2.05.39,4.56,4.56,0,0,1-2.87-.78A3.58,3.58,0,0,1,104.26,42.05Z"/><path class="cls-4" d="M332.41,287.44H451.12v42H332.41Z"/><path d="M352.38,309.68l1.77.45a6.08,6.08,0,0,1-2,3.33,5.52,5.52,0,0,1-3.53,1.14,6.36,6.36,0,0,1-3.52-.88,5.62,5.62,0,0,1-2.06-2.54,9.21,9.21,0,0,1-.71-3.6,7.82,7.82,0,0,1,.8-3.62,5.4,5.4,0,0,1,2.27-2.36,6.67,6.67,0,0,1,3.25-.81,5.51,5.51,0,0,1,3.36,1,5.25,5.25,0,0,1,1.9,2.88l-1.73.4a4.09,4.09,0,0,0-1.36-2.11,3.55,3.55,0,0,0-2.2-.67A4.3,4.3,0,0,0,346,303a4,4,0,0,0-1.46,2,7.9,7.9,0,0,0-.42,2.56,8.1,8.1,0,0,0,.5,3,3.8,3.8,0,0,0,1.55,1.91,4.39,4.39,0,0,0,2.26.62,3.78,3.78,0,0,0,2.52-.86,4.35,4.35,0,0,0,1.39-2.54Zm10.36,1.57,1.69.21a4.18,4.18,0,0,1-1.48,2.31,5.09,5.09,0,0,1-6.14-.48,5.14,5.14,0,0,1-1.24-3.68,5.36,5.36,0,0,1,1.25-3.79,4.3,4.3,0,0,1,3.27-1.35,4.09,4.09,0,0,1,3.15,1.33,5.17,5.17,0,0,1,1.24,3.7v.44h-7.22a3.79,3.79,0,0,0,.91,2.46,2.68,2.68,0,0,0,2,.84,2.57,2.57,0,0,0,1.55-.47,3.17,3.17,0,0,0,1-1.52Zm-5.39-2.65h5.41a3.27,3.27,0,0,0-.62-1.83,2.54,2.54,0,0,0-2-.95,2.6,2.6,0,0,0-1.9.76A3,3,0,0,0,357.35,308.6Zm9.13,5.76v-9.67H368v1.47a4,4,0,0,1,1-1.36,1.85,1.85,0,0,1,1.06-.33,3.24,3.24,0,0,1,1.69.53l-.56,1.52a2.38,2.38,0,0,0-1.21-.36,1.56,1.56,0,0,0-1,.33,1.81,1.81,0,0,0-.6.89,6.14,6.14,0,0,0-.29,1.92v5.06Zm9.81-1.47.23,1.46a6.53,6.53,0,0,1-1.23.14,2.8,2.8,0,0,1-1.39-.28,1.54,1.54,0,0,1-.69-.74,5.61,5.61,0,0,1-.21-1.93V306h-1.2v-1.27H373V302.3l1.63-1v3.37h1.66V306h-1.66v5.67a3.12,3.12,0,0,0,.08.89.69.69,0,0,0,.28.33,1.27,1.27,0,0,0,.58.11,6,6,0,0,0,.72-.06Zm1.6-10V301h1.64v1.89Zm0,11.47v-9.67h1.64v9.67Zm4.54,0V306H381v-1.27h1.46v-1a4.42,4.42,0,0,1,.17-1.45,2,2,0,0,1,.83-1,3,3,0,0,1,1.67-.39,8.77,8.77,0,0,1,1.53.15l-.25,1.44a5.34,5.34,0,0,0-.95-.09,1.49,1.49,0,0,0-1.07.32,1.75,1.75,0,0,0-.31,1.19v.89h1.89V306h-1.89v8.4Zm4.79-11.47V301h1.64v1.89Zm0,11.47v-9.67h1.64v9.67Zm10.46-3.54,1.61.22a4.25,4.25,0,0,1-1.36,2.61,4,4,0,0,1-2.68.93,4.14,4.14,0,0,1-3.18-1.29,5.3,5.3,0,0,1-1.21-3.72,6.85,6.85,0,0,1,.52-2.75,3.52,3.52,0,0,1,1.58-1.75,4.63,4.63,0,0,1,2.31-.6,4,4,0,0,1,2.58.8,3.66,3.66,0,0,1,1.28,2.27l-1.59.23a2.6,2.6,0,0,0-.82-1.45,2,2,0,0,0-1.39-.5,2.53,2.53,0,0,0-2,.89,4.19,4.19,0,0,0-.78,2.81,4.37,4.37,0,0,0,.75,2.84,2.43,2.43,0,0,0,1.95.88,2.3,2.3,0,0,0,1.61-.59,3,3,0,0,0,.83-1.83Zm9.32,2.36a6.5,6.5,0,0,1-1.76,1.09,5,5,0,0,1-1.8.31,3.52,3.52,0,0,1-2.45-.78,2.72,2.72,0,0,1-.53-3.28,2.65,2.65,0,0,1,.84-.94,4,4,0,0,1,1.19-.54,10.38,10.38,0,0,1,1.45-.25,14.72,14.72,0,0,0,2.92-.57c0-.23,0-.37,0-.42a1.85,1.85,0,0,0-.47-1.42,2.8,2.8,0,0,0-1.87-.55,2.91,2.91,0,0,0-1.71.41,2.51,2.51,0,0,0-.81,1.42l-1.61-.22a4.06,4.06,0,0,1,.72-1.64,3.19,3.19,0,0,1,1.45-1,6.45,6.45,0,0,1,2.19-.35,5.66,5.66,0,0,1,2,.3,2.53,2.53,0,0,1,1.14.73,2.48,2.48,0,0,1,.51,1.11,10.1,10.1,0,0,1,.08,1.52v2.19a22.83,22.83,0,0,0,.11,2.89,3.87,3.87,0,0,0,.41,1.15h-1.71a3.53,3.53,0,0,1-.33-1.18Zm-.14-3.68a11.4,11.4,0,0,1-2.67.63,5.7,5.7,0,0,0-1.44.33,1.49,1.49,0,0,0-.65.53,1.46,1.46,0,0,0,.28,1.87,2.1,2.1,0,0,0,1.45.44,3.36,3.36,0,0,0,1.67-.4,2.68,2.68,0,0,0,1.1-1.14,4,4,0,0,0,.26-1.65v-.61Zm7.79,3.39.23,1.46a6.53,6.53,0,0,1-1.23.14,2.8,2.8,0,0,1-1.39-.28,1.54,1.54,0,0,1-.69-.74,5.69,5.69,0,0,1-.2-1.93V306h-1.21v-1.27h1.21V302.3l1.62-1v3.37h1.66V306H413v5.67a3.12,3.12,0,0,0,.08.89.69.69,0,0,0,.28.33,1.27,1.27,0,0,0,.58.11,6,6,0,0,0,.72-.06Zm8.23-1.64,1.68.21a4.18,4.18,0,0,1-1.48,2.31,5.09,5.09,0,0,1-6.14-.48,5.18,5.18,0,0,1-1.24-3.68,5.36,5.36,0,0,1,1.25-3.79,4.3,4.3,0,0,1,3.27-1.35,4.13,4.13,0,0,1,3.16,1.33,5.21,5.21,0,0,1,1.23,3.7v.44h-7.22a3.79,3.79,0,0,0,.91,2.46,2.68,2.68,0,0,0,2,.84,2.57,2.57,0,0,0,1.55-.47,3.19,3.19,0,0,0,1-1.52Zm-5.39-2.65h5.4a3.27,3.27,0,0,0-.62-1.83,2.52,2.52,0,0,0-2-.95,2.62,2.62,0,0,0-1.91.76,3,3,0,0,0-.84,2Zm8.48,2.87,1.63-.25a2.22,2.22,0,0,0,.75,1.5,2.63,2.63,0,0,0,1.75.52,2.6,2.6,0,0,0,1.67-.45,1.43,1.43,0,0,0,.54-1.1,1,1,0,0,0-.48-.87,6.66,6.66,0,0,0-1.67-.55,16.17,16.17,0,0,1-2.52-.8,2.36,2.36,0,0,1-1-.9,2.55,2.55,0,0,1,.75-3.42,3,3,0,0,1,1-.47,4.74,4.74,0,0,1,1.42-.21,5.55,5.55,0,0,1,2,.33,2.72,2.72,0,0,1,1.26.89,3.3,3.3,0,0,1,.58,1.5l-1.61.22a1.71,1.71,0,0,0-.64-1.17,2.26,2.26,0,0,0-1.47-.42,2.68,2.68,0,0,0-1.62.37,1.11,1.11,0,0,0-.47.88,1,1,0,0,0,.19.58,1.44,1.44,0,0,0,.64.43,13.21,13.21,0,0,0,1.44.42,22.49,22.49,0,0,1,2.43.75,2.51,2.51,0,0,1,1.08.86,2.44,2.44,0,0,1,.39,1.41,2.75,2.75,0,0,1-.48,1.55,3.05,3.05,0,0,1-1.38,1.12,5.08,5.08,0,0,1-2,.39,4.61,4.61,0,0,1-2.88-.78,3.6,3.6,0,0,1-1.25-2.33Z"/><path class="cls-3" d="M665.49,268.57h153.4v60.89a12.18,12.18,0,0,1-12.18,12.18H653.31V280.75a12.19,12.19,0,0,1,12.18-12.18Z"/><path class="cls-2" d="M665.49,268.57h153.4v60.89a12.18,12.18,0,0,1-12.18,12.18H653.31V280.75a12.19,12.19,0,0,1,12.18-12.18Z"/><path d="M692.46,287.28a3.32,3.32,0,0,1,2.61,1.09,4,4,0,0,1,1,2.82v.33h-6.24a3.14,3.14,0,0,0,.89,1.93,2.56,2.56,0,0,0,1.86.75,2.8,2.8,0,0,0,1.36-.34,2.75,2.75,0,0,0,1.05-.95l.81.67a4,4,0,0,1-3.22,1.58,3.78,3.78,0,0,1-2.78-1.11,4.17,4.17,0,0,1,0-5.61,3.54,3.54,0,0,1,2.68-1.16Zm2.44,3.38a2.28,2.28,0,0,0-.67-1.75,2.36,2.36,0,0,0-1.75-.66,2.65,2.65,0,0,0-1.8.72,2.28,2.28,0,0,0-.83,1.69Zm3.74-3.18,2.08,2.8,2-2.8H704L701.41,291l3.14,4h-1.46l-2.5-3.28L698.17,295h-1.34l3.09-4-2.72-3.49Zm10.15-.2a2.75,2.75,0,0,1,2,.74,2.49,2.49,0,0,1,.74,1.87v3.48a11.62,11.62,0,0,0,.12,1.6h-1a7,7,0,0,1-.09-1.22h0a3,3,0,0,1-1.11,1.08,3.21,3.21,0,0,1-1.53.33,2.82,2.82,0,0,1-1.87-.61,2,2,0,0,1-.7-1.58,2.09,2.09,0,0,1,1.12-2,7.71,7.71,0,0,1,3.58-.63h.48v-.15a2,2,0,0,0-.47-1.5,2,2,0,0,0-1.45-.47,3.32,3.32,0,0,0-2.28.87l-.64-.75a4.18,4.18,0,0,1,3.14-1.09Zm-2.33,5.55a1.2,1.2,0,0,0,.49,1,2.09,2.09,0,0,0,1.28.36,2.22,2.22,0,0,0,1.64-.62,2.71,2.71,0,0,0,.62-1.94v-.41h-.73a6.22,6.22,0,0,0-2.41.39,1.29,1.29,0,0,0-.89,1.21Zm11-5.55a2.34,2.34,0,0,1,2.39,1.56,2.46,2.46,0,0,1,1-1.14,3,3,0,0,1,3.54.35,3,3,0,0,1,.71,2.11V295h-1v-4.45a2.74,2.74,0,0,0-.44-1.71,1.73,1.73,0,0,0-1.45-.56,1.84,1.84,0,0,0-1.58.75,3.23,3.23,0,0,0-.53,1.92V295h-1.06v-4.45a2.74,2.74,0,0,0-.44-1.71,1.68,1.68,0,0,0-1.42-.56,1.86,1.86,0,0,0-1.55.78,3.48,3.48,0,0,0-.59,2.13V295h-1v-5.92a14.25,14.25,0,0,0-.08-1.57h1.13v1.13h0a2.71,2.71,0,0,1,1-.95,2.82,2.82,0,0,1,1.39-.38Zm14.13,0a3.9,3.9,0,0,1,2.85,1.13,3.75,3.75,0,0,1,1.14,2.81,3.79,3.79,0,0,1-1.14,2.83,3.89,3.89,0,0,1-2.85,1.11,3.83,3.83,0,0,1-1.65-.38,3.23,3.23,0,0,1-1.27-1.06h0v5.86h-1v-12.1h1v1.25h0a3.33,3.33,0,0,1,1.25-1.06,3.76,3.76,0,0,1,1.67-.39Zm-3,3.94a2.94,2.94,0,0,0,3,3,2.66,2.66,0,0,0,2-.84,3,3,0,0,0,.78-2.14,2.89,2.89,0,0,0-.81-2.14,2.71,2.71,0,0,0-2-.83,2.94,2.94,0,0,0-3,3Zm10.08-8.35V295h-1.07v-12.1Zm5.91,4.41a3.32,3.32,0,0,1,2.61,1.09,4,4,0,0,1,1,2.82v.33H742a3.14,3.14,0,0,0,.89,1.93,2.56,2.56,0,0,0,1.86.75,2.8,2.8,0,0,0,1.36-.34,2.75,2.75,0,0,0,1-.95l.81.67a4,4,0,0,1-3.22,1.58,3.78,3.78,0,0,1-2.78-1.11,4.17,4.17,0,0,1,0-5.61,3.54,3.54,0,0,1,2.68-1.16Zm2.44,3.38a2.28,2.28,0,0,0-.67-1.75,2.36,2.36,0,0,0-1.75-.66,2.65,2.65,0,0,0-1.8.72,2.28,2.28,0,0,0-.83,1.69Zm4.15,2.68a.87.87,0,0,1,.62.25.82.82,0,0,1,.25.61.84.84,0,0,1-.25.61.83.83,0,0,1-.62.25.85.85,0,0,1-.63-.25.91.91,0,0,1-.23-.61.82.82,0,0,1,.25-.61.85.85,0,0,1,.61-.25Zm6.9-6.06a3.46,3.46,0,0,1,2.79,1.3l-.86.65a2.19,2.19,0,0,0-1.9-1,2.64,2.64,0,0,0-2,.83,3,3,0,0,0-.76,2.14,3.07,3.07,0,0,0,.76,2.17,2.59,2.59,0,0,0,2,.81,2.21,2.21,0,0,0,2-1l.86.66a3.5,3.5,0,0,1-2.83,1.3,3.76,3.76,0,0,1-2.82-1.11,4,4,0,0,1-1.06-2.83,3.89,3.89,0,0,1,1.08-2.83,3.8,3.8,0,0,1,2.83-1.11Zm7.77,0a3.92,3.92,0,0,1,2.85,1.11,3.77,3.77,0,0,1,1.14,2.83,4,4,0,1,1-8,0,3.88,3.88,0,0,1,4-3.94Zm-2.81,3.94a3,3,0,0,0,.77,2.14,2.65,2.65,0,0,0,2,.84,2.58,2.58,0,0,0,2-.86,3,3,0,0,0,.78-2.12,2.92,2.92,0,0,0-.8-2.14,2.71,2.71,0,0,0-2-.83,2.59,2.59,0,0,0-2,.86,3,3,0,0,0-.77,2.11Zm12.22-3.94a2.33,2.33,0,0,1,2.39,1.56,2.46,2.46,0,0,1,1-1.14,3,3,0,0,1,3.55.35,3,3,0,0,1,.7,2.11V295H781.9v-4.45a2.67,2.67,0,0,0-.44-1.71,1.73,1.73,0,0,0-1.45-.56,1.84,1.84,0,0,0-1.58.75,3.23,3.23,0,0,0-.53,1.92V295h-1.06v-4.45a2.74,2.74,0,0,0-.44-1.71,1.67,1.67,0,0,0-1.42-.56,1.86,1.86,0,0,0-1.55.78,3.48,3.48,0,0,0-.59,2.13V295h-1.05v-5.92a12.15,12.15,0,0,0-.08-1.57h1.13v1.13h0a2.71,2.71,0,0,1,1-.95,2.82,2.82,0,0,1,1.39-.38Zm-105,19.2,1.73,6.08h0l2-6.08h1.08l2,6.08h0l1.72-6.08h1.25L677.77,314H676.6l-2-6.14h0l-2,6.14h-1.19L669,306.48Zm11.55,0,1.73,6.08h0l2-6.08h1.07l2,6.08h.05l1.72-6.08h1.25L689.32,314h-1.17l-2-6.14h0l-2,6.14H683l-2.38-7.49Zm11.55,0,1.74,6.08h0l2-6.08h1.08l2,6.08h0l1.72-6.08h1.25L700.88,314h-1.17l-2-6.14h0l-2,6.14h-1.19l-2.38-7.49Zm11.42,5.86a.89.89,0,0,1,.63.25.82.82,0,0,1,.25.61.84.84,0,0,1-.25.61.85.85,0,0,1-.63.25.83.83,0,0,1-.62-.25.86.86,0,0,1-.23-.61.82.82,0,0,1,.25-.61.85.85,0,0,1,.61-.25Zm6.76-6.06a3.32,3.32,0,0,1,2.61,1.09,4,4,0,0,1,1,2.82v.33h-6.24a3.14,3.14,0,0,0,.89,1.93,2.59,2.59,0,0,0,1.86.75,2.8,2.8,0,0,0,1.36-.34,2.75,2.75,0,0,0,1.05-.95l.81.67a4,4,0,0,1-3.22,1.58,3.78,3.78,0,0,1-2.78-1.11,4.17,4.17,0,0,1,0-5.61,3.56,3.56,0,0,1,2.69-1.16Zm2.44,3.38a2.28,2.28,0,0,0-.67-1.75,2.36,2.36,0,0,0-1.75-.66,2.66,2.66,0,0,0-1.8.72,2.27,2.27,0,0,0-.82,1.69Zm3.74-3.18,2.08,2.8,2-2.8h1.32L720.52,310l3.14,4h-1.45l-2.5-3.28L717.28,314h-1.34l3.09-4-2.72-3.49Zm10.15-.2a2.74,2.74,0,0,1,2,.74,2.49,2.49,0,0,1,.74,1.87v3.48a11.62,11.62,0,0,0,.12,1.6h-1a7,7,0,0,1-.09-1.22h0a3.16,3.16,0,0,1-1.11,1.08,3.26,3.26,0,0,1-1.53.33,2.85,2.85,0,0,1-1.88-.61,2,2,0,0,1-.7-1.58,2.09,2.09,0,0,1,1.12-2,7.74,7.74,0,0,1,3.58-.63h.49v-.15a2.06,2.06,0,0,0-.47-1.5,2,2,0,0,0-1.46-.47,3.32,3.32,0,0,0-2.28.87l-.64-.75a4.2,4.2,0,0,1,3.14-1.09Zm-2.33,5.55a1.23,1.23,0,0,0,.49,1,2.09,2.09,0,0,0,1.28.36,2.2,2.2,0,0,0,1.64-.62,2.66,2.66,0,0,0,.63-1.94v-.41h-.74a6.22,6.22,0,0,0-2.41.39,1.29,1.29,0,0,0-.89,1.21Zm11-5.55a2.33,2.33,0,0,1,2.39,1.56,2.46,2.46,0,0,1,1-1.14,3,3,0,0,1,3.55.35,3,3,0,0,1,.7,2.11V314h-1v-4.45a2.67,2.67,0,0,0-.44-1.71,1.73,1.73,0,0,0-1.45-.56,1.84,1.84,0,0,0-1.58.75,3.23,3.23,0,0,0-.53,1.92V314h-1.06v-4.45a2.74,2.74,0,0,0-.44-1.71,1.67,1.67,0,0,0-1.42-.56,1.86,1.86,0,0,0-1.55.78,3.48,3.48,0,0,0-.59,2.13V314h-1v-5.92a12.15,12.15,0,0,0-.08-1.57h1.13v1.13h0a2.71,2.71,0,0,1,1-.95,2.82,2.82,0,0,1,1.39-.38Zm14.13,0a3.9,3.9,0,0,1,2.85,1.13,3.75,3.75,0,0,1,1.14,2.81,3.79,3.79,0,0,1-1.14,2.83,3.89,3.89,0,0,1-2.85,1.11,3.83,3.83,0,0,1-1.65-.38,3.3,3.3,0,0,1-1.27-1.06h0v5.86h-1v-12.1h1v1.25h0a3.33,3.33,0,0,1,1.25-1.06,3.76,3.76,0,0,1,1.67-.39Zm-3,3.94a2.94,2.94,0,0,0,3,3,2.66,2.66,0,0,0,2-.84,3,3,0,0,0,.78-2.14,2.89,2.89,0,0,0-.81-2.14,2.71,2.71,0,0,0-2-.83,2.87,2.87,0,0,0-2.14.87,2.92,2.92,0,0,0-.85,2.1Zm10.08-8.35V314h-1.07v-12.1Zm5.92,4.41a3.35,3.35,0,0,1,2.61,1.09,4.05,4.05,0,0,1,1,2.82v.33h-6.24a3.14,3.14,0,0,0,.89,1.93,2.59,2.59,0,0,0,1.86.75,2.8,2.8,0,0,0,1.36-.34,2.75,2.75,0,0,0,1-.95l.81.67a4,4,0,0,1-3.22,1.58,3.78,3.78,0,0,1-2.78-1.11,4.17,4.17,0,0,1,0-5.61,3.56,3.56,0,0,1,2.69-1.16Zm2.43,3.38a2.28,2.28,0,0,0-.67-1.75,2.36,2.36,0,0,0-1.75-.66,2.66,2.66,0,0,0-1.8.72,2.27,2.27,0,0,0-.82,1.69Zm4.15,2.68a.85.85,0,0,1,.62.25.82.82,0,0,1,.25.61.84.84,0,0,1-.25.61.81.81,0,0,1-.62.25.85.85,0,0,1-.63-.25.91.91,0,0,1-.23-.61.82.82,0,0,1,.25-.61.86.86,0,0,1,.61-.25Zm6.9-6.06a3.48,3.48,0,0,1,2.8,1.3l-.86.65a2.22,2.22,0,0,0-1.91-1,2.62,2.62,0,0,0-2,.83,3,3,0,0,0-.77,2.14,3.08,3.08,0,0,0,.77,2.17,2.57,2.57,0,0,0,2,.81,2.21,2.21,0,0,0,2-1l.86.66a3.49,3.49,0,0,1-2.83,1.3,3.74,3.74,0,0,1-2.81-1.11,4,4,0,0,1-1.07-2.83,3.89,3.89,0,0,1,1.08-2.83,3.8,3.8,0,0,1,2.83-1.11Zm7.77,0a3.92,3.92,0,0,1,2.85,1.11,3.77,3.77,0,0,1,1.14,2.83,4,4,0,1,1-8,0,3.86,3.86,0,0,1,4-3.94Zm-2.81,3.94a3.07,3.07,0,0,0,.77,2.14,2.65,2.65,0,0,0,2,.84,2.58,2.58,0,0,0,2-.86,3,3,0,0,0,.78-2.12,2.91,2.91,0,0,0-.79-2.14,2.75,2.75,0,0,0-2-.83,2.6,2.6,0,0,0-2,.86,3,3,0,0,0-.77,2.11Zm12.22-3.94a2.33,2.33,0,0,1,2.39,1.56,2.46,2.46,0,0,1,1-1.14,3,3,0,0,1,3.55.35,3,3,0,0,1,.7,2.11V314h-1v-4.45a2.74,2.74,0,0,0-.43-1.71,1.77,1.77,0,0,0-1.46-.56,1.85,1.85,0,0,0-1.58.75,3.23,3.23,0,0,0-.53,1.92V314H796v-4.45a2.67,2.67,0,0,0-.44-1.71,1.67,1.67,0,0,0-1.42-.56,1.87,1.87,0,0,0-1.55.78,3.48,3.48,0,0,0-.59,2.13V314H790.9v-5.92a14.48,14.48,0,0,0-.07-1.57H792v1.13h0a2.79,2.79,0,0,1,1-.95,2.85,2.85,0,0,1,1.39-.38Zm-110.75,14L682,327.85h-.78l1.61-7.55Zm2.88,2.44c.82,0,1.3.3,1.45.89l-.7.42a.89.89,0,0,0-.94-.67,1.56,1.56,0,0,0-.78.2.77.77,0,0,0-.41.53.54.54,0,0,0,.11.52,2.28,2.28,0,0,0,.88.31,2.75,2.75,0,0,1,1.11.44,1,1,0,0,1,.31.53,1.18,1.18,0,0,1,0,.53,1.78,1.78,0,0,1-.78,1.13,2.63,2.63,0,0,1-1.49.4,1.68,1.68,0,0,1-1.7-1l.69-.4a1.18,1.18,0,0,0,1.15.73,1.63,1.63,0,0,0,.89-.22,1,1,0,0,0,.46-.62.48.48,0,0,0-.16-.52,2.63,2.63,0,0,0-1-.36c-1-.2-1.41-.66-1.27-1.37a1.71,1.71,0,0,1,.75-1.09,2.47,2.47,0,0,1,1.43-.41Zm4.54,0c.82,0,1.3.3,1.45.89l-.7.42a.89.89,0,0,0-.94-.67,1.56,1.56,0,0,0-.78.2.77.77,0,0,0-.41.53.54.54,0,0,0,.11.52,2.28,2.28,0,0,0,.88.31,2.75,2.75,0,0,1,1.11.44,1,1,0,0,1,.31.53,1.18,1.18,0,0,1,0,.53,1.78,1.78,0,0,1-.78,1.13,2.63,2.63,0,0,1-1.49.4,1.68,1.68,0,0,1-1.7-1l.69-.4a1.18,1.18,0,0,0,1.15.73,1.63,1.63,0,0,0,.89-.22,1,1,0,0,0,.46-.62.48.48,0,0,0-.16-.52,2.63,2.63,0,0,0-1-.36c-1-.2-1.41-.66-1.27-1.37a1.71,1.71,0,0,1,.75-1.09,2.47,2.47,0,0,1,1.43-.41Zm3.6.12-.6,2.82a1.89,1.89,0,0,0,0,1.26,1,1,0,0,0,.95.39,1.71,1.71,0,0,0,1.2-.51,2.7,2.7,0,0,0,.74-1.36l.54-2.6h.71l-.85,3.93c-.07.4-.13.76-.17,1.06h-.72c0-.27.09-.54.14-.8h0a2.54,2.54,0,0,1-.89.69,2.29,2.29,0,0,1-1,.23,1.49,1.49,0,0,1-1.32-.51,1.91,1.91,0,0,1-.15-1.39l.69-3.21Zm7.5-.12a1.76,1.76,0,0,1,1.58.72,2.31,2.31,0,0,1,.25,1.87l0,.22H699.8a1.8,1.8,0,0,0,.32,1.28,1.39,1.39,0,0,0,1.14.5,2.24,2.24,0,0,0,1-.22,2.47,2.47,0,0,0,.83-.64l.45.46a3.41,3.41,0,0,1-2.38,1,2,2,0,0,1-1.68-.73,2.16,2.16,0,0,1-.33-1.89,3.33,3.33,0,0,1,1.11-1.85A2.91,2.91,0,0,1,702.17,322.74Zm1.14,2.23a1.28,1.28,0,0,0-.19-1.15,1.26,1.26,0,0,0-1.07-.44,2.21,2.21,0,0,0-1.3.47A2,2,0,0,0,700,325Zm4.88-2.23a2.12,2.12,0,0,1,.52.06l-.3.69a1.1,1.1,0,0,0-.39-.05,1.83,1.83,0,0,0-1.22.47,2,2,0,0,0-.67,1.17l-.6,2.77h-.7l.74-3.47c.11-.59.2-1.1.28-1.52h.68l-.2.93h0A2,2,0,0,1,708.19,322.74Zm1.9.06a.45.45,0,0,1,.36.17.49.49,0,0,1,.09.41.71.71,0,0,1-.26.41.72.72,0,0,1-.44.17.45.45,0,0,1-.39-.17.52.52,0,0,1-.07-.41.81.81,0,0,1,.25-.41A.73.73,0,0,1,710.09,322.8Zm-.85,3.95a.4.4,0,0,1,.36.18.44.44,0,0,1,.1.4.79.79,0,0,1-.71.58.48.48,0,0,1-.39-.17.57.57,0,0,1-.06-.41.72.72,0,0,1,.25-.4A.68.68,0,0,1,709.24,326.75Zm7.55-7-1.72,8.06h-.7l1.72-8.06Zm3.33,2.95a1.77,1.77,0,0,1,1.58.72,2.35,2.35,0,0,1,.25,1.87l-.05.22h-4.16a1.81,1.81,0,0,0,.33,1.28,1.37,1.37,0,0,0,1.14.5,2.23,2.23,0,0,0,.95-.22,2.38,2.38,0,0,0,.83-.64l.46.46a3.43,3.43,0,0,1-2.38,1,2,2,0,0,1-1.69-.73,2.23,2.23,0,0,1-.33-1.89,3.33,3.33,0,0,1,1.11-1.85A3,3,0,0,1,720.12,322.74Zm1.14,2.23a1.32,1.32,0,0,0-.19-1.15,1.3,1.3,0,0,0-1.08-.44,2.16,2.16,0,0,0-1.29.47,1.93,1.93,0,0,0-.8,1.12Zm3.94-3.51-.3,1.4h1.44l-.14.64h-1.44l-.64,3a1,1,0,0,0,0,.62c.07.15.25.22.52.22a1.92,1.92,0,0,0,.78-.18l-.11.65a2.77,2.77,0,0,1-1,.17,1.06,1.06,0,0,1-.85-.32,1.16,1.16,0,0,1-.1-1l.67-3.19h-1l.14-.64h1.05l.29-1.4Zm3.74,1.28c.82,0,1.31.3,1.45.89l-.7.42a.89.89,0,0,0-.94-.67,1.56,1.56,0,0,0-.78.2.79.79,0,0,0-.41.53.54.54,0,0,0,.11.52,2.28,2.28,0,0,0,.88.31,2.75,2.75,0,0,1,1.11.44,1,1,0,0,1,.31.53,1.18,1.18,0,0,1,0,.53,1.71,1.71,0,0,1-.78,1.13,2.63,2.63,0,0,1-1.49.4,1.68,1.68,0,0,1-1.7-1l.69-.4a1.18,1.18,0,0,0,1.16.73,1.66,1.66,0,0,0,.89-.22.91.91,0,0,0,.45-.62A.48.48,0,0,0,729,326a2.56,2.56,0,0,0-1-.36c-1-.2-1.41-.66-1.26-1.37a1.64,1.64,0,0,1,.75-1.09,2.42,2.42,0,0,1,1.42-.41Zm5.18,0a1.77,1.77,0,0,1,1.58.72,2.35,2.35,0,0,1,.25,1.87l-.05.22h-4.16a1.81,1.81,0,0,0,.33,1.28,1.37,1.37,0,0,0,1.14.5,2.27,2.27,0,0,0,1-.22,2.34,2.34,0,0,0,.82-.64l.46.46a3.41,3.41,0,0,1-2.38,1,2,2,0,0,1-1.69-.73,2.19,2.19,0,0,1-.32-1.89,3.22,3.22,0,0,1,1.11-1.85A2.91,2.91,0,0,1,734.12,322.74Zm1.14,2.23a1.32,1.32,0,0,0-.19-1.15,1.3,1.3,0,0,0-1.08-.44,2.18,2.18,0,0,0-1.29.47,2,2,0,0,0-.8,1.12Zm4.94-2.23a1.51,1.51,0,0,1,1.3.5,1.77,1.77,0,0,1,.17,1.41l-.69,3.2h-.7l.59-2.81a1.8,1.8,0,0,0,0-1.25,1,1,0,0,0-.91-.41,1.75,1.75,0,0,0-1.24.52,2.76,2.76,0,0,0-.75,1.43l-.53,2.52h-.7l.84-3.94a9.27,9.27,0,0,0,.18-1.05h.71a5.9,5.9,0,0,1-.14.8h0a2.41,2.41,0,0,1,.86-.67,2.36,2.36,0,0,1,1-.25Zm5.86,0a1.84,1.84,0,0,1,1.67.86l-.65.44a1.16,1.16,0,0,0-1.13-.66,2.15,2.15,0,0,0-1.47.55,2.59,2.59,0,0,0-.81,1.42,1.77,1.77,0,0,0,.21,1.45,1.35,1.35,0,0,0,1.18.53,1.91,1.91,0,0,0,1.46-.65l.46.43a2.84,2.84,0,0,1-2.06.86,2,2,0,0,1-1.72-.73,2.26,2.26,0,0,1-.29-1.89,3.29,3.29,0,0,1,1.12-1.88A3.05,3.05,0,0,1,746.06,322.74Zm5.14,0a2.12,2.12,0,0,1,.52.06l-.3.69a1.14,1.14,0,0,0-.39-.05,1.83,1.83,0,0,0-1.22.47,1.93,1.93,0,0,0-.67,1.17l-.6,2.77h-.7l.73-3.47c.12-.59.21-1.1.29-1.52h.68l-.2.93h0A2,2,0,0,1,751.2,322.74Zm1.46.12.69,4.13,2.39-4.13h.86L752.85,329a3.72,3.72,0,0,1-.88,1.07,1.61,1.61,0,0,1-1.06.34,2.59,2.59,0,0,1-.63-.08l.24-.68a1,1,0,0,0,.5.12,1.23,1.23,0,0,0,1.06-.77l.66-1.09-1-5.05Zm7.54-.12a2.11,2.11,0,0,1,1.74.73,2.14,2.14,0,0,1,.34,1.88,3.3,3.3,0,0,1-1.16,1.89,3.13,3.13,0,0,1-2,.73,2.28,2.28,0,0,1-1.07-.25,1.58,1.58,0,0,1-.68-.7h0l-.83,3.89h-.7l1.72-8.05h.7l-.17.83h0a2.79,2.79,0,0,1,1-.7A3,3,0,0,1,760.2,322.74Zm-2.56,2.61a1.68,1.68,0,0,0,.26,1.42,1.59,1.59,0,0,0,1.32.56,2.23,2.23,0,0,0,1.47-.54,2.61,2.61,0,0,0,.82-1.44,1.64,1.64,0,0,0-.23-1.42,1.44,1.44,0,0,0-1.23-.55,2.32,2.32,0,0,0-1.55.58,2.34,2.34,0,0,0-.86,1.39Zm7.81-3.89-.3,1.4h1.44l-.14.64H765l-.64,3a1,1,0,0,0,0,.62c.07.15.24.22.52.22a1.92,1.92,0,0,0,.78-.18l-.11.65a2.77,2.77,0,0,1-1,.17,1.06,1.06,0,0,1-.85-.32,1.19,1.19,0,0,1-.11-1l.68-3.19h-1l.14-.64h1.05l.29-1.4Zm4,3.48-.16.71h-2.74l.16-.71Zm4.31-2.2a2.08,2.08,0,0,1,1.73.73,2.14,2.14,0,0,1,.35,1.88,3.3,3.3,0,0,1-1.16,1.89,3.16,3.16,0,0,1-2.05.73,2.24,2.24,0,0,1-1.06-.25,1.66,1.66,0,0,1-.69-.7h0l-.83,3.89h-.7l1.72-8.05h.7l-.17.83h0a2.83,2.83,0,0,1,1-.7A2.9,2.9,0,0,1,773.8,322.74Zm-2.56,2.61a1.68,1.68,0,0,0,.26,1.42,1.57,1.57,0,0,0,1.31.56,2.19,2.19,0,0,0,1.47-.54,2.57,2.57,0,0,0,.83-1.44,1.64,1.64,0,0,0-.23-1.42,1.46,1.46,0,0,0-1.24-.55,2.29,2.29,0,0,0-1.54.58,2.34,2.34,0,0,0-.86,1.39Zm8.74-2.61a2.12,2.12,0,0,1,.52.06l-.3.69a1.1,1.1,0,0,0-.39-.05,1.85,1.85,0,0,0-1.22.47,2,2,0,0,0-.67,1.17l-.59,2.77h-.71l.74-3.47c.11-.59.21-1.1.28-1.52h.69l-.21.93h0A2,2,0,0,1,780,322.74Zm3.39,0a2.14,2.14,0,0,1,1.74.73,2.08,2.08,0,0,1,.36,1.88,3.3,3.3,0,0,1-1.16,1.89,3.13,3.13,0,0,1-2.06.73,2.12,2.12,0,0,1-1.75-.73,2.16,2.16,0,0,1-.33-1.89,3.26,3.26,0,0,1,1.14-1.86A3.15,3.15,0,0,1,783.37,322.74Zm-2.43,2.61a1.77,1.77,0,0,0,.2,1.44,1.47,1.47,0,0,0,1.25.54,2.14,2.14,0,0,0,1.48-.56,2.5,2.5,0,0,0,.83-1.42,1.64,1.64,0,0,0-.23-1.42,1.47,1.47,0,0,0-1.25-.55,2.15,2.15,0,0,0-1.49.58,2.5,2.5,0,0,0-.79,1.39Zm12-5.56-1.72,8.06h-.7l.17-.83h0a2.66,2.66,0,0,1-1,.7,2.76,2.76,0,0,1-1.14.25,2.1,2.1,0,0,1-1.75-.75,2.21,2.21,0,0,1-.34-1.87,3.16,3.16,0,0,1,1.14-1.86,3.2,3.2,0,0,1,2.08-.75,2.13,2.13,0,0,1,1,.25,1.51,1.51,0,0,1,.69.7h0l.83-3.9Zm-5.75,5.56a1.72,1.72,0,0,0,.24,1.44,1.46,1.46,0,0,0,1.23.54,2.37,2.37,0,0,0,1.55-.56,2.41,2.41,0,0,0,.87-1.42,1.58,1.58,0,0,0-.28-1.39,1.53,1.53,0,0,0-1.31-.58,2.18,2.18,0,0,0-1.45.56A2.52,2.52,0,0,0,787.16,325.35Z"/><path class="cls-5" d="M551.51,147.23a9.13,9.13,0,0,1,9.13-9.13H698.22a9.13,9.13,0,0,1,9.13,9.13v36.51a9.13,9.13,0,0,1-9.13,9.13H560.64a9.13,9.13,0,0,1-9.13-9.13Z"/><path class="cls-2" d="M551.51,147.23a9.13,9.13,0,0,1,9.13-9.13H698.22a9.13,9.13,0,0,1,9.13,9.13v36.51a9.13,9.13,0,0,1-9.13,9.13H560.64a9.13,9.13,0,0,1-9.13-9.13Z"/><path d="M586.26,163.66a3.5,3.5,0,0,1,2.8,1.29l-.86.66a2.18,2.18,0,0,0-1.91-1,2.61,2.61,0,0,0-2,.82,3.05,3.05,0,0,0-.77,2.14,3.1,3.1,0,0,0,.77,2.18,2.58,2.58,0,0,0,2,.81,2.2,2.2,0,0,0,2-1l.86.66a3.48,3.48,0,0,1-2.83,1.29,3.74,3.74,0,0,1-2.81-1.11,4,4,0,0,1-1.07-2.83,3.88,3.88,0,0,1,1.08-2.82,3.8,3.8,0,0,1,2.83-1.11Zm7.57,0a3.29,3.29,0,0,1,2.61,1.09,4,4,0,0,1,1,2.81v.33h-6.24a3.11,3.11,0,0,0,.89,1.94,2.56,2.56,0,0,0,1.86.75,2.83,2.83,0,0,0,1.36-.34,2.7,2.7,0,0,0,1.05-1l.81.67a4,4,0,0,1-3.22,1.58,3.78,3.78,0,0,1-2.78-1.11,4.17,4.17,0,0,1,0-5.61,3.53,3.53,0,0,1,2.68-1.15Zm2.44,3.37a2.3,2.3,0,0,0-.67-1.75,2.39,2.39,0,0,0-1.75-.65,2.68,2.68,0,0,0-1.8.71,2.3,2.3,0,0,0-.83,1.69Zm6.6-3.37a2.45,2.45,0,0,1,.78.11l-.2,1a1.68,1.68,0,0,0-.6-.08,2.21,2.21,0,0,0-1.68.7,2.46,2.46,0,0,0-.66,1.77v4.15h-1v-5.2q0-1.33-.06-2.28h1v1.39h0A2.37,2.37,0,0,1,602.87,163.66Zm3.5-1.91v2.11h2.17v.95h-2.17v4.49a1.73,1.73,0,0,0,.23.95,1,1,0,0,0,.86.33,2.28,2.28,0,0,0,1.1-.3l0,1a3.72,3.72,0,0,1-1.43.26,1.77,1.77,0,0,1-1.36-.5,2,2,0,0,1-.49-1.44v-4.78h-1.59v-.95h1.59v-2.11Zm7.17,5.22V168h-4.11V167Zm5.27-3.31a2.34,2.34,0,0,1,2.39,1.56,2.38,2.38,0,0,1,1-1.14,2.75,2.75,0,0,1,1.46-.42,2.71,2.71,0,0,1,2.09.76,3,3,0,0,1,.7,2.11v4.81h-1v-4.45a2.7,2.7,0,0,0-.44-1.7,1.72,1.72,0,0,0-1.46-.56,1.82,1.82,0,0,0-1.57.75,3.16,3.16,0,0,0-.53,1.92v4h-1.07v-4.45a2.71,2.71,0,0,0-.43-1.7,1.67,1.67,0,0,0-1.43-.56,1.84,1.84,0,0,0-1.54.78,3.4,3.4,0,0,0-.6,2.12v3.81h-1v-5.92a14.19,14.19,0,0,0-.08-1.56h1.12V165h0a3,3,0,0,1,2.43-1.33Zm13.22,0a2.73,2.73,0,0,1,2,.73,2.52,2.52,0,0,1,.74,1.88v3.48a11.49,11.49,0,0,0,.12,1.59h-1a6.87,6.87,0,0,1-.09-1.21h0a3,3,0,0,1-1.11,1.07,3.26,3.26,0,0,1-1.53.33,2.78,2.78,0,0,1-1.88-.61,2,2,0,0,1-.7-1.58,2.08,2.08,0,0,1,1.12-2,7.74,7.74,0,0,1,3.58-.63h.48v-.16a2.09,2.09,0,0,0-.46-1.5,2,2,0,0,0-1.46-.46,3.32,3.32,0,0,0-2.28.87l-.64-.75A4.16,4.16,0,0,1,632,163.66Zm-2.33,5.54a1.21,1.21,0,0,0,.49,1,2.09,2.09,0,0,0,1.28.36,2.21,2.21,0,0,0,1.64-.63,2.64,2.64,0,0,0,.62-1.93v-.41H633a6.22,6.22,0,0,0-2.41.39,1.28,1.28,0,0,0-.89,1.2Zm11.14-5.54a2.74,2.74,0,0,1,2.11.76,3,3,0,0,1,.7,2.11v4.81h-1v-4.21a3.09,3.09,0,0,0-.47-1.88,1.76,1.76,0,0,0-1.5-.62,2.11,2.11,0,0,0-1.69.78,3.28,3.28,0,0,0-.65,2.15v3.78h-1v-5.9a12.21,12.21,0,0,0-.08-1.58h1.08c0,.29,0,.69,0,1.2h0a2.72,2.72,0,0,1,1.06-1,3,3,0,0,1,1.46-.39Zm8.39,0a2.73,2.73,0,0,1,2,.73,2.52,2.52,0,0,1,.74,1.88v3.48a11.49,11.49,0,0,0,.12,1.59h-1a6.87,6.87,0,0,1-.09-1.21h0a3,3,0,0,1-1.11,1.07,3.26,3.26,0,0,1-1.53.33,2.78,2.78,0,0,1-1.88-.61,2,2,0,0,1-.7-1.58,2.08,2.08,0,0,1,1.12-2,7.74,7.74,0,0,1,3.58-.63h.48v-.16a2.09,2.09,0,0,0-.46-1.5,2,2,0,0,0-1.46-.46,3.32,3.32,0,0,0-2.28.87l-.64-.75A4.16,4.16,0,0,1,649.23,163.66Zm-2.33,5.54a1.21,1.21,0,0,0,.49,1,2.09,2.09,0,0,0,1.28.36,2.21,2.21,0,0,0,1.64-.63,2.64,2.64,0,0,0,.62-1.93v-.41h-.73a6.22,6.22,0,0,0-2.41.39,1.28,1.28,0,0,0-.89,1.2Zm11-5.54a3.29,3.29,0,0,1,2.88,1.43h0v-1.23h1.06v7.48a3.71,3.71,0,0,1-1.05,2.83,4.09,4.09,0,0,1-3,1,4.76,4.76,0,0,1-3.61-1.5l.8-.85a3.19,3.19,0,0,0,1.2,1,3.69,3.69,0,0,0,1.67.38,2.81,2.81,0,0,0,2.14-.77,2.88,2.88,0,0,0,.75-2.11v-1.4h0a3.07,3.07,0,0,1-2.79,1.4,3.87,3.87,0,0,1-2.75-1.07,3.62,3.62,0,0,1-1.16-2.74,3.81,3.81,0,0,1,1.09-2.76,3.67,3.67,0,0,1,2.72-1.11Zm-2.65,3.84a2.85,2.85,0,0,0,.81,2.05,2.67,2.67,0,0,0,2,.84,2.75,2.75,0,0,0,2-.8,2.65,2.65,0,0,0,.83-2,3,3,0,0,0-.78-2.12,2.71,2.71,0,0,0-2.07-.84,2.65,2.65,0,0,0-2,.84A2.85,2.85,0,0,0,655.21,167.5Zm12.38-3.84a3.29,3.29,0,0,1,2.61,1.09,4,4,0,0,1,1,2.81v.33H665a3.16,3.16,0,0,0,.89,1.94,2.56,2.56,0,0,0,1.86.75,2.83,2.83,0,0,0,1.36-.34,2.7,2.7,0,0,0,1.05-1l.81.67a4,4,0,0,1-3.22,1.58,3.78,3.78,0,0,1-2.78-1.11,4.17,4.17,0,0,1,0-5.61A3.53,3.53,0,0,1,667.59,163.66ZM670,167a2.3,2.3,0,0,0-.67-1.75,2.39,2.39,0,0,0-1.75-.65,2.68,2.68,0,0,0-1.8.71A2.3,2.3,0,0,0,665,167Zm6.6-3.37a2.45,2.45,0,0,1,.78.11l-.2,1a1.68,1.68,0,0,0-.6-.08,2.21,2.21,0,0,0-1.68.7,2.46,2.46,0,0,0-.66,1.77v4.15h-1v-5.2q0-1.33-.06-2.28h1v1.39h0A2.37,2.37,0,0,1,676.63,163.66Z"/><path class="cls-4" d="M629.43,192.87l106.68,75.72"/><path class="cls-2" d="M629.43,192.87l101.78,72.24"/><path class="cls-6" d="M730.26,266.46l4.65,1.28-2.74-4Z"/><path class="cls-4" d="M629.43,192.87l-95.09,75.72"/><path class="cls-2" d="M629.43,192.87l-90.39,72"/><path class="cls-6" d="M538,263.56l-2.52,4.12,4.58-1.54Z"/><path class="cls-4" d="M629.43,138.1,428.26,63.69"/><path class="cls-2" d="M629.43,138.1l-196.26-71"/><path class="cls-6" d="M434.12,65.79l-4.66-1.26,2.76,4Z"/><path class="cls-4" d="M629.43,138.1,226.5,63.69"/><path class="cls-2" d="M629.43,138.1l-397.1-73"/><path class="cls-6" d="M232.72,63.51l-4.8.52,4,2.69Z"/><path class="cls-7" d="M593.7,398.63a3.42,3.42,0,0,1-3.42,3.42h0v-3.42a1.72,1.72,0,0,1-3.43,0v3.42H478.41a3.42,3.42,0,0,0-3.42,3.42h0v41.07a3.43,3.43,0,1,0,6.85,0v-3.42H590.28a3.42,3.42,0,0,0,3.42-3.42h0ZM478.41,408.9a3.43,3.43,0,0,0,3.43-3.42h0a1.72,1.72,0,1,0-3.43,0h0Z"/><path class="cls-8" d="M478.41,408.9a3.43,3.43,0,0,0,3.43-3.42h0a1.72,1.72,0,1,0-3.43-.09v3.51Zm111.87-6.85a3.42,3.42,0,1,0-3.43-3.42,1.72,1.72,0,0,0,3.43,0Z"/><path class="cls-4" d="M475,405.48a3.43,3.43,0,0,1,3.42-3.43H586.85v-3.42a3.43,3.43,0,0,1,6.85,0v41.08a3.42,3.42,0,0,1-3.42,3.42H481.84v3.42a3.43,3.43,0,1,1-6.85,0h0Zm111.86-3.43h3.43a3.42,3.42,0,0,0,3.42-3.42h0m-3.42,3.42v-3.42a1.72,1.72,0,0,1-3.43,0M478.41,408.9v-3.42a1.72,1.72,0,1,1,3.43,0h0a3.43,3.43,0,0,1-6.85,0m6.85,0v37.65"/><path class="cls-2" d="M475,405.48a3.43,3.43,0,0,1,3.42-3.43H586.85v-3.42a3.43,3.43,0,0,1,6.85,0v41.08a3.42,3.42,0,0,1-3.42,3.42H481.84v3.42a3.43,3.43,0,1,1-6.85,0h0Zm111.86-3.43h3.43a3.42,3.42,0,0,0,3.42-3.42h0m-3.42,3.42v-3.42a1.72,1.72,0,0,1-3.43,0M478.41,408.9v-3.42a1.72,1.72,0,1,1,3.43,0h0a3.43,3.43,0,0,1-6.85,0m6.85,0v37.65"/><path d="M495.8,417.72a3.33,3.33,0,0,1,2.65,1.14l-.83.66a2,2,0,0,0-1.82-.93,2.26,2.26,0,0,0-1.46.47,1.54,1.54,0,0,0-.56,1.24,1.4,1.4,0,0,0,.42,1.06,3.54,3.54,0,0,0,1.31.69,9.75,9.75,0,0,1,2,.84,2.2,2.2,0,0,1,1.07,2,2.47,2.47,0,0,1-.93,2,3.35,3.35,0,0,1-2.19.77,3.43,3.43,0,0,1-2.95-1.39l.85-.63a2.29,2.29,0,0,0,2.14,1.14,2.24,2.24,0,0,0,1.43-.48,1.55,1.55,0,0,0,.61-1.24,1.47,1.47,0,0,0-.47-1.15,3.66,3.66,0,0,0-1.47-.71,8.8,8.8,0,0,1-1.84-.75,2.27,2.27,0,0,1-.8-.83,2.47,2.47,0,0,1-.27-1.2,2.43,2.43,0,0,1,.85-1.92,3.24,3.24,0,0,1,2.22-.75Zm5.08.39a.61.61,0,0,1,.45.2.59.59,0,0,1,.19.44.58.58,0,0,1-.19.45.6.6,0,0,1-.45.19.61.61,0,0,1-.44-.19.61.61,0,0,1,0-.9.61.61,0,0,1,.44-.19Zm.45,3.05v6.23h-.89v-6.23Zm5-.16a2.71,2.71,0,0,1,2.39,1.17h.05v-1h.88v6.23a3.1,3.1,0,0,1-.88,2.36,3.37,3.37,0,0,1-2.47.84,3.9,3.9,0,0,1-3-1.25l.66-.7a2.8,2.8,0,0,0,1,.83,3,3,0,0,0,1.41.33,2.38,2.38,0,0,0,1.78-.64,2.46,2.46,0,0,0,.62-1.77v-1.17h0a2.56,2.56,0,0,1-2.33,1.17,3.21,3.21,0,0,1-2.29-.91,3,3,0,0,1-1-2.26,3.13,3.13,0,0,1,3.17-3.22Zm-2.21,3.19a2.36,2.36,0,0,0,.68,1.7,2.22,2.22,0,0,0,1.64.7,2.3,2.3,0,0,0,1.66-.65,2.22,2.22,0,0,0,.7-1.67,2.49,2.49,0,0,0-.65-1.77,2.24,2.24,0,0,0-1.72-.7,2.2,2.2,0,0,0-1.64.7,2.35,2.35,0,0,0-.67,1.69Zm10.5-3.19a2.27,2.27,0,0,1,1.75.63,2.45,2.45,0,0,1,.59,1.75v4h-.87v-3.51a2.57,2.57,0,0,0-.39-1.57,1.45,1.45,0,0,0-1.25-.51,1.73,1.73,0,0,0-1.39.65,2.67,2.67,0,0,0-.55,1.8v3.14h-.89v-4.92a12.43,12.43,0,0,0-.06-1.31h.9a8.56,8.56,0,0,1,.05,1h0a2.06,2.06,0,0,1,.87-.83,2.49,2.49,0,0,1,1.22-.33Zm7.22,0a2.77,2.77,0,0,1,2.19.91,3.33,3.33,0,0,1,.81,2.34v.27h-5.19a2.6,2.6,0,0,0,.74,1.61,2.16,2.16,0,0,0,1.55.62,2.4,2.4,0,0,0,1.14-.28,2.29,2.29,0,0,0,.86-.8l.68.56a3.3,3.3,0,0,1-2.68,1.32,3.13,3.13,0,0,1-2.3-.92,3.23,3.23,0,0,1-.92-2.36,3.26,3.26,0,0,1,.9-2.32A3,3,0,0,1,521.8,421Zm2.05,2.8a1.94,1.94,0,0,0-.56-1.46,2,2,0,0,0-1.47-.54,2.24,2.24,0,0,0-1.49.59,2,2,0,0,0-.7,1.41Zm8.78-6.49v10.08h-.89v-1.05h0a2.55,2.55,0,0,1-1.08.89,3.1,3.1,0,0,1-1.34.32,3.21,3.21,0,0,1-3.33-3.28,3.14,3.14,0,0,1,.94-2.32,3.22,3.22,0,0,1,2.39-.95,3,3,0,0,1,1.37.33,2.63,2.63,0,0,1,1.05.86h0v-4.88Zm-5.68,7a2.49,2.49,0,0,0,.65,1.79,2.29,2.29,0,0,0,1.71.69,2.37,2.37,0,0,0,1.76-.72,2.48,2.48,0,0,0-1.78-4.23,2.23,2.23,0,0,0-1.69.7A2.49,2.49,0,0,0,527,424.27Zm12.19-7V424l2.94-2.81h1.32L540.29,424l3.44,3.39h-1.36l-3.23-3.28v3.28h-.89V417.31Zm8.34,3.69a2.77,2.77,0,0,1,2.19.91,3.33,3.33,0,0,1,.81,2.34v.27H545.3a2.54,2.54,0,0,0,.73,1.61,2.16,2.16,0,0,0,1.55.62,2.35,2.35,0,0,0,1.14-.28,2.29,2.29,0,0,0,.86-.8l.69.56a3.32,3.32,0,0,1-2.69,1.32,3.14,3.14,0,0,1-2.3-.92,3.27,3.27,0,0,1-.92-2.36,3.23,3.23,0,0,1,.91-2.32A2.94,2.94,0,0,1,547.48,421Zm2,2.8a1.94,1.94,0,0,0-.56-1.46,2,2,0,0,0-1.47-.54,2.19,2.19,0,0,0-1.48.59,1.94,1.94,0,0,0-.71,1.41Zm2.91-2.64,2,5.15,1.91-5.15h1.06l-3,7.67a3.5,3.5,0,0,1-.81,1.34,1.78,1.78,0,0,1-1.25.42,3.44,3.44,0,0,1-.8-.09l.09-.86a1.35,1.35,0,0,0,.67.16c.52,0,.89-.33,1.13-1l.52-1.36-2.55-6.31Zm9.41-.16a3.23,3.23,0,0,1,2.36.92,3.12,3.12,0,0,1,.95,2.35,3.2,3.2,0,0,1-.93,2.36,3.28,3.28,0,0,1-2.38.92,3.25,3.25,0,0,1-1.39-.32,2.61,2.61,0,0,1-1.05-.89h0v4.89h-.89V421.16h.89v1h0a2.63,2.63,0,0,1,1.05-.86,3.12,3.12,0,0,1,1.39-.33Zm-2.5,3.27a2.43,2.43,0,0,0,2.5,2.48,2.2,2.2,0,0,0,1.7-.7,2.5,2.5,0,0,0,.66-1.78,2.43,2.43,0,0,0-.69-1.79,2.28,2.28,0,0,0-1.68-.68,2.44,2.44,0,0,0-1.79.72,2.4,2.4,0,0,0-.7,1.75Zm9.89-3.27a2.33,2.33,0,0,1,1.69.59,2.11,2.11,0,0,1,.61,1.58v2.89a10.73,10.73,0,0,0,.09,1.33h-.84a5.65,5.65,0,0,1-.08-1h0a2.59,2.59,0,0,1-.92.89,2.72,2.72,0,0,1-1.28.28,2.35,2.35,0,0,1-1.55-.5,1.71,1.71,0,0,1-.59-1.33,1.73,1.73,0,0,1,.94-1.63,6.33,6.33,0,0,1,3-.53h.39v-.12a1.72,1.72,0,0,0-.39-1.25,1.63,1.63,0,0,0-1.2-.39,2.75,2.75,0,0,0-1.91.73l-.53-.62a3.46,3.46,0,0,1,2.62-.91Zm-2,4.61a1,1,0,0,0,.41.84,1.73,1.73,0,0,0,1.06.3,1.82,1.82,0,0,0,1.37-.52,2.19,2.19,0,0,0,.52-1.6v-.35H570a5.05,5.05,0,0,0-2,.33,1,1,0,0,0-.75,1Zm6.92-7.5a.67.67,0,0,1,.64.64.65.65,0,0,1-.64.64.62.62,0,0,1-.44-.19.61.61,0,0,1,0-.9.62.62,0,0,1,.44-.19Zm.45,3.05v6.23h-.89v-6.23Zm5-.16a2.84,2.84,0,0,1,.66.08l-.17.86a1.53,1.53,0,0,0-.5-.06,1.84,1.84,0,0,0-1.39.57,2,2,0,0,0-.55,1.47v3.47h-.89v-4.33c0-.75,0-1.38-.05-1.9h.86v1.15h0a2,2,0,0,1,2-1.31Z"/><path class="cls-7" d="M795.45,395.76a3.42,3.42,0,0,1-3.42,3.42h0v-3.42a1.71,1.71,0,1,1-3.42,0v3.42H680.17a3.42,3.42,0,0,0-3.42,3.42v41.08a3.42,3.42,0,1,0,6.84,0v-3.42H792a3.42,3.42,0,0,0,3.42-3.42h0ZM680.17,406a3.42,3.42,0,0,0,3.42-3.43h0a1.71,1.71,0,0,0-3.42,0Z"/><path class="cls-8" d="M680.17,406a3.42,3.42,0,0,0,3.42-3.43h0a1.71,1.71,0,0,0-3.42,0ZM792,399.18a3.43,3.43,0,1,0-3.42-3.42,1.71,1.71,0,1,0,3.42,0Z"/><path class="cls-4" d="M676.75,402.6a3.42,3.42,0,0,1,3.42-3.42H788.61v-3.42a3.42,3.42,0,1,1,6.84,0v41.08a3.41,3.41,0,0,1-3.42,3.42H683.59v3.42a3.42,3.42,0,1,1-6.84,0Zm111.86-3.42H792a3.42,3.42,0,0,0,3.42-3.42M792,399.18v-3.42a1.71,1.71,0,1,1-3.42,0M680.17,406V402.6a1.71,1.71,0,0,1,3.42,0,3.42,3.42,0,1,1-6.84,0m6.84,0v37.66"/><path class="cls-2" d="M676.75,402.6a3.42,3.42,0,0,1,3.42-3.42H788.61v-3.42a3.42,3.42,0,1,1,6.84,0v41.08a3.41,3.41,0,0,1-3.42,3.42H683.59v3.42a3.42,3.42,0,1,1-6.84,0Zm111.86-3.42H792a3.42,3.42,0,0,0,3.42-3.42M792,399.18v-3.42a1.71,1.71,0,1,1-3.42,0M680.17,406V402.6a1.71,1.71,0,0,1,3.42,0,3.42,3.42,0,1,1-6.84,0m6.84,0v37.66"/><path d="M697.55,414.85a3.34,3.34,0,0,1,2.66,1.14l-.83.65a2.09,2.09,0,0,0-1.83-.92,2.23,2.23,0,0,0-1.45.47,1.49,1.49,0,0,0-.56,1.24,1.42,1.42,0,0,0,.42,1.06,3.54,3.54,0,0,0,1.31.69,9.36,9.36,0,0,1,2,.84,2.21,2.21,0,0,1,.8.81,2.28,2.28,0,0,1,.28,1.19,2.45,2.45,0,0,1-.94,2,3.3,3.3,0,0,1-2.19.76,3.42,3.42,0,0,1-3-1.39l.86-.62a2.28,2.28,0,0,0,2.14,1.14,2.17,2.17,0,0,0,1.42-.49,1.49,1.49,0,0,0,.61-1.23,1.47,1.47,0,0,0-.47-1.16,3.72,3.72,0,0,0-1.47-.7,9.3,9.3,0,0,1-1.84-.75,2.35,2.35,0,0,1-.8-.83,2.59,2.59,0,0,1-.26-1.2,2.46,2.46,0,0,1,.84-1.92,3.28,3.28,0,0,1,2.22-.75Zm5.08.39a.63.63,0,0,1,.46.2.62.62,0,0,1,.18.44.61.61,0,0,1-.18.45.62.62,0,0,1-.46.19.6.6,0,0,1-.43-.19.59.59,0,0,1,0-.9A.6.6,0,0,1,702.63,415.24Zm.46,3.05v6.23h-.89v-6.23Zm5-.16a2.72,2.72,0,0,1,2.39,1.17h0v-1h.87v6.23a3.13,3.13,0,0,1-.87,2.36,3.39,3.39,0,0,1-2.47.84,3.9,3.9,0,0,1-3-1.25l.66-.7a3,3,0,0,0,2.4,1.16,2.36,2.36,0,0,0,1.78-.64,2.42,2.42,0,0,0,.63-1.77v-1.17h0a2.57,2.57,0,0,1-2.33,1.17,3.23,3.23,0,0,1-2.3-.91,3,3,0,0,1-1-2.26,3.1,3.1,0,0,1,.91-2.3,3.07,3.07,0,0,1,2.26-.92Zm-2.22,3.19a2.35,2.35,0,0,0,.69,1.7,2.2,2.2,0,0,0,1.64.7,2.34,2.34,0,0,0,1.66-.65,2.23,2.23,0,0,0,.7-1.68,2.45,2.45,0,0,0-.66-1.76,2.37,2.37,0,0,0-3.36,0A2.39,2.39,0,0,0,705.83,421.32Zm10.5-3.19a2.27,2.27,0,0,1,1.75.62,2.43,2.43,0,0,1,.6,1.75v4h-.88V421a2.56,2.56,0,0,0-.39-1.56,1.44,1.44,0,0,0-1.25-.51,1.76,1.76,0,0,0-1.39.65,2.72,2.72,0,0,0-.54,1.8v3.14h-.89V419.6a12.18,12.18,0,0,0-.07-1.31h.91a8.56,8.56,0,0,1,.05,1h0a2.14,2.14,0,0,1,.88-.83A2.45,2.45,0,0,1,716.33,418.13Zm7.23,0a2.8,2.8,0,0,1,2.19.91,3.33,3.33,0,0,1,.81,2.34v.26h-5.19a2.54,2.54,0,0,0,.73,1.61,2.14,2.14,0,0,0,1.55.63,2.35,2.35,0,0,0,1.14-.28,2.21,2.21,0,0,0,.86-.8l.69.56a3.32,3.32,0,0,1-2.69,1.32,3.11,3.11,0,0,1-2.3-.93,3.44,3.44,0,0,1,0-4.67,3,3,0,0,1,2.22-.95Zm2,2.8a1.9,1.9,0,0,0-.56-1.46,2,2,0,0,0-1.47-.54,2.16,2.16,0,0,0-1.48.59,1.91,1.91,0,0,0-.7,1.41h4.21Zm8.79-6.49v10.08h-.89v-1h0a2.58,2.58,0,0,1-1.07.89,3.11,3.11,0,0,1-1.35.32,3.21,3.21,0,0,1-3.33-3.29,3.18,3.18,0,0,1,.94-2.31,3.23,3.23,0,0,1,2.39-.95,3,3,0,0,1,1.38.33,2.66,2.66,0,0,1,1,.86h0v-4.88Zm-5.69,6.95a2.5,2.5,0,0,0,.66,1.8,2.27,2.27,0,0,0,1.7.69,2.37,2.37,0,0,0,1.77-.72,2.47,2.47,0,0,0-1.78-4.23,2.23,2.23,0,0,0-1.69.7A2.45,2.45,0,0,0,728.7,421.39Zm12.19-6.95v6.66l2.94-2.81h1.33l-3.11,2.84,3.44,3.39h-1.36l-3.24-3.28v3.28H740V414.44Zm8.35,3.69a2.77,2.77,0,0,1,2.19.91,3.33,3.33,0,0,1,.81,2.34v.26h-5.19a2.55,2.55,0,0,0,.74,1.61,2.11,2.11,0,0,0,1.54.63,2.35,2.35,0,0,0,1.14-.28,2.15,2.15,0,0,0,.86-.8l.69.56a3.31,3.31,0,0,1-2.69,1.32,3.09,3.09,0,0,1-2.29-.93,3.2,3.2,0,0,1-.92-2.36,3.26,3.26,0,0,1,.9-2.31A3,3,0,0,1,749.24,418.13Zm2,2.8a1.94,1.94,0,0,0-.56-1.46,2,2,0,0,0-1.47-.54,2.19,2.19,0,0,0-1.49.59,1.91,1.91,0,0,0-.7,1.41Zm2.91-2.64,2,5.15,1.9-5.15h1.07l-3,7.67a3.5,3.5,0,0,1-.81,1.34,1.77,1.77,0,0,1-1.25.42,3.35,3.35,0,0,1-.79-.09l.09-.86a1.47,1.47,0,0,0,.67.16c.51,0,.89-.33,1.13-1l.51-1.36-2.55-6.31Zm9.41-.16a3.27,3.27,0,0,1,2.36.92,3.39,3.39,0,0,1,0,4.7,3.37,3.37,0,0,1-3.76.61,2.61,2.61,0,0,1-1.05-.89h0v4.89h-.89V418.29h.89v1h0a2.63,2.63,0,0,1,1.05-.86,3.09,3.09,0,0,1,1.39-.33Zm-2.5,3.26a2.43,2.43,0,0,0,2.5,2.49,2.23,2.23,0,0,0,1.7-.7,2.52,2.52,0,0,0,.66-1.79,2.42,2.42,0,0,0-.69-1.78,2.29,2.29,0,0,0-1.69-.68,2.44,2.44,0,0,0-1.78.71,2.41,2.41,0,0,0-.7,1.75Zm9.89-3.26a2.35,2.35,0,0,1,1.69.59,2.15,2.15,0,0,1,.61,1.58v2.89a10.73,10.73,0,0,0,.09,1.33h-.84a4.9,4.9,0,0,1-.08-1h0a2.43,2.43,0,0,1-.92.89,2.65,2.65,0,0,1-1.29.29,2.32,2.32,0,0,1-1.54-.5,1.69,1.69,0,0,1-.6-1.33,1.75,1.75,0,0,1,.94-1.63,6.4,6.4,0,0,1,3-.53h.39v-.12a1.7,1.7,0,0,0-.39-1.25,1.66,1.66,0,0,0-1.21-.39,2.73,2.73,0,0,0-1.9.73l-.53-.62A3.45,3.45,0,0,1,771,418.13Zm-2,4.61a1,1,0,0,0,.4.84,1.76,1.76,0,0,0,1.07.3,1.82,1.82,0,0,0,1.37-.52,2.24,2.24,0,0,0,.52-1.61v-.34h-.61a5,5,0,0,0-2,.33,1,1,0,0,0-.75,1Zm6.91-7.5a.63.63,0,0,1,.46.2.62.62,0,0,1,.18.44.61.61,0,0,1-.18.45.62.62,0,0,1-.46.19.6.6,0,0,1-.43-.19.59.59,0,0,1,0-.9A.6.6,0,0,1,776,415.24Zm.46,3.05v6.23h-.89v-6.23Zm5-.16a2.84,2.84,0,0,1,.66.08l-.18.86a1.44,1.44,0,0,0-.5-.07,1.86,1.86,0,0,0-1.39.58,2.08,2.08,0,0,0-.54,1.47v3.47h-.89v-4.33c0-.75,0-1.38,0-1.9h.86v1.15h0a2,2,0,0,1,2-1.31Z"/><path class="cls-2" d="M534.34,341.64v54.41"/><path class="cls-6" d="M532.69,396.05l1.65,4.54,1.66-4.54Z"/><path class="cls-2" d="M736.1,341.64v51.55"/><path class="cls-6" d="M734.45,393.19l1.65,4.54,1.65-4.54Z"/><path class="cls-4" d="M332.41,392.39H451.12V452.8H332.41Z"/><path d="M345.42,419.31V406h1.78v6.62l6.62-6.62h2.39l-5.59,5.42,5.84,7.94h-2.33l-4.76-6.77-2.17,2.14v4.63Zm18.64,0v-1.43a3.51,3.51,0,0,1-3.06,1.64,4,4,0,0,1-1.61-.32,2.65,2.65,0,0,1-1.09-.83,3,3,0,0,1-.5-1.22,7,7,0,0,1-.11-1.53v-6h1.64V415a8.32,8.32,0,0,0,.11,1.74,1.71,1.71,0,0,0,.65,1,2,2,0,0,0,1.24.38,2.64,2.64,0,0,0,1.37-.38,2.08,2.08,0,0,0,.92-1,5.11,5.11,0,0,0,.27-1.89v-5.19h1.64v9.68Zm5.55,0h-1.52V406h1.64v4.76a3.29,3.29,0,0,1,2.66-1.29,4.07,4.07,0,0,1,1.69.36,3.37,3.37,0,0,1,1.31,1,4.79,4.79,0,0,1,.8,1.56,6.35,6.35,0,0,1,.29,2,5.55,5.55,0,0,1-1.23,3.85,3.84,3.84,0,0,1-2.95,1.36,3.09,3.09,0,0,1-2.69-1.44v1.22Zm0-4.91a5,5,0,0,0,.49,2.52,2.34,2.34,0,0,0,3.95.32,4.25,4.25,0,0,0,.78-2.78,4.31,4.31,0,0,0-.75-2.79,2.28,2.28,0,0,0-1.83-.91,2.4,2.4,0,0,0-1.86.94,4.1,4.1,0,0,0-.78,2.7Zm15.52,1.8,1.69.2a4.2,4.2,0,0,1-1.49,2.31,5,5,0,0,1-6.14-.48,5.17,5.17,0,0,1-1.23-3.67,5.39,5.39,0,0,1,1.25-3.8,4.25,4.25,0,0,1,3.26-1.34,4.09,4.09,0,0,1,3.16,1.32,5.22,5.22,0,0,1,1.23,3.71v.43h-7.21a3.76,3.76,0,0,0,.9,2.46,2.7,2.7,0,0,0,2,.84,2.47,2.47,0,0,0,1.54-.47,3.15,3.15,0,0,0,1-1.51Zm-5.39-2.66h5.41a3.35,3.35,0,0,0-.63-1.83,2.52,2.52,0,0,0-2-.95,2.63,2.63,0,0,0-1.91.77A3,3,0,0,0,379.72,413.54Zm9.13,5.77v-9.68h1.46v1.47a4.13,4.13,0,0,1,1-1.36,1.89,1.89,0,0,1,1.06-.32,3.18,3.18,0,0,1,1.69.53l-.57,1.51a2.34,2.34,0,0,0-1.2-.36,1.52,1.52,0,0,0-1,.33,1.9,1.9,0,0,0-.61.89,6.23,6.23,0,0,0-.28,1.92v5.07Zm6.22,0v-9.68h1.47V411a3.48,3.48,0,0,1,3.08-1.59,4.05,4.05,0,0,1,1.61.31,2.42,2.42,0,0,1,1.09.83,2.85,2.85,0,0,1,.52,1.2,9.41,9.41,0,0,1,.09,1.59v6h-1.64v-5.89a4.25,4.25,0,0,0-.2-1.49,1.63,1.63,0,0,0-.67-.8,2.25,2.25,0,0,0-1.14-.29,2.66,2.66,0,0,0-1.82.67,3.3,3.3,0,0,0-.75,2.52v5.28Zm17-3.11,1.69.2a4.18,4.18,0,0,1-1.48,2.31,5,5,0,0,1-6.14-.48,5.13,5.13,0,0,1-1.24-3.67,5.39,5.39,0,0,1,1.25-3.8,4.28,4.28,0,0,1,3.27-1.34,4.08,4.08,0,0,1,3.15,1.32,5.18,5.18,0,0,1,1.24,3.71v.43h-7.22a3.72,3.72,0,0,0,.91,2.46,2.68,2.68,0,0,0,2,.84,2.5,2.5,0,0,0,1.55-.47,3.14,3.14,0,0,0,1-1.51Zm-5.39-2.66h5.41a3.2,3.2,0,0,0-.63-1.83,2.5,2.5,0,0,0-2-.95,2.61,2.61,0,0,0-1.9.77A3,3,0,0,0,406.68,413.54Zm12.72,4.3.24,1.45a6.53,6.53,0,0,1-1.24.14,2.86,2.86,0,0,1-1.39-.28,1.67,1.67,0,0,1-.69-.73,6.08,6.08,0,0,1-.2-1.94V410.9h-1.2v-1.27h1.2v-2.39l1.63-1v3.37h1.65v1.27h-1.65v5.67a3.26,3.26,0,0,0,.07.89.78.78,0,0,0,.29.33,1.22,1.22,0,0,0,.57.11,5.73,5.73,0,0,0,.72-.06Zm8.23-1.64,1.69.2a4.18,4.18,0,0,1-1.48,2.31,5,5,0,0,1-6.14-.48,5.13,5.13,0,0,1-1.24-3.67,5.39,5.39,0,0,1,1.25-3.8,4.26,4.26,0,0,1,3.27-1.34,4.08,4.08,0,0,1,3.15,1.32,5.18,5.18,0,0,1,1.24,3.71v.43h-7.22a3.72,3.72,0,0,0,.91,2.46,2.68,2.68,0,0,0,2,.84,2.52,2.52,0,0,0,1.55-.47,3.21,3.21,0,0,0,1-1.51Zm-5.39-2.66h5.41a3.2,3.2,0,0,0-.63-1.83,2.5,2.5,0,0,0-2-.95,2.57,2.57,0,0,0-1.9.77,3,3,0,0,0-.85,2Zm8.49,2.88,1.62-.25a2.35,2.35,0,0,0,.75,1.5,2.7,2.7,0,0,0,1.75.51,2.58,2.58,0,0,0,1.67-.45,1.4,1.4,0,0,0,.55-1.1,1,1,0,0,0-.48-.87,6.66,6.66,0,0,0-1.67-.55,17.68,17.68,0,0,1-2.52-.79A2.37,2.37,0,0,1,431,412.2a2.42,2.42,0,0,1,.3-1.19,2.57,2.57,0,0,1,.81-.92,3.09,3.09,0,0,1,1-.47,4.8,4.8,0,0,1,1.43-.2,5.6,5.6,0,0,1,2,.32,2.72,2.72,0,0,1,1.26.89,3.42,3.42,0,0,1,.58,1.5l-1.61.22a1.75,1.75,0,0,0-.64-1.17,2.26,2.26,0,0,0-1.47-.42,2.68,2.68,0,0,0-1.62.37,1.09,1.09,0,0,0-.47.88,1,1,0,0,0,.18.58,1.6,1.6,0,0,0,.64.44q.24.09,1.44.42a18.41,18.41,0,0,1,2.44.75,2.3,2.3,0,0,1,1.47,2.26,2.69,2.69,0,0,1-.49,1.55,3.08,3.08,0,0,1-1.37,1.12,5.13,5.13,0,0,1-2,.39,4.56,4.56,0,0,1-2.87-.78,3.55,3.55,0,0,1-1.25-2.32ZM361,437l1.65-.14a3.92,3.92,0,0,0,.55,1.64,3.09,3.09,0,0,0,1.34,1.05,5.3,5.3,0,0,0,2.07.39,5,5,0,0,0,1.78-.3,2.48,2.48,0,0,0,1.15-.81,2,2,0,0,0,.38-1.16,1.7,1.7,0,0,0-.38-1.09,2.74,2.74,0,0,0-1.18-.8c-.37-.13-1.16-.35-2.39-.64a12.45,12.45,0,0,1-2.57-.84,3.67,3.67,0,0,1-1.43-1.24,3,3,0,0,1-.47-1.67,3.34,3.34,0,0,1,.57-1.87,3.55,3.55,0,0,1,1.68-1.35,6.44,6.44,0,0,1,2.45-.45,6.61,6.61,0,0,1,2.61.48,3.74,3.74,0,0,1,1.75,1.41,4,4,0,0,1,.66,2.09l-1.69.13a2.74,2.74,0,0,0-.94-1.91,3.5,3.5,0,0,0-2.31-.65,3.72,3.72,0,0,0-2.35.59,1.76,1.76,0,0,0-.73,1.42,1.47,1.47,0,0,0,.53,1.17,6.73,6.73,0,0,0,2.66,1,17.41,17.41,0,0,1,2.95.85,3.89,3.89,0,0,1,1.72,1.36,3.32,3.32,0,0,1,.56,1.9,3.67,3.67,0,0,1-.61,2,4.12,4.12,0,0,1-1.75,1.47,6.25,6.25,0,0,1-2.58.51,7.77,7.77,0,0,1-3-.53,4.24,4.24,0,0,1-1.92-1.59A4.52,4.52,0,0,1,361,437Zm19.46,1.19,1.68.2a4.18,4.18,0,0,1-1.48,2.31,5,5,0,0,1-6.14-.48,5.17,5.17,0,0,1-1.24-3.67,5.39,5.39,0,0,1,1.25-3.8,4.29,4.29,0,0,1,3.27-1.34,4.12,4.12,0,0,1,3.16,1.32,5.22,5.22,0,0,1,1.23,3.71v.43H375a3.77,3.77,0,0,0,.91,2.46,2.68,2.68,0,0,0,2,.84,2.5,2.5,0,0,0,1.55-.47,3.15,3.15,0,0,0,1-1.51Zm-5.39-2.66h5.4a3.27,3.27,0,0,0-.62-1.83,2.52,2.52,0,0,0-2-.95,2.63,2.63,0,0,0-1.91.77A3,3,0,0,0,375.06,435.54Zm15.45,2.22,1.61.22a4.25,4.25,0,0,1-1.36,2.61,4,4,0,0,1-2.67.94,4.15,4.15,0,0,1-3.19-1.3,5.3,5.3,0,0,1-1.2-3.72,6.85,6.85,0,0,1,.51-2.75,3.6,3.6,0,0,1,1.58-1.75,4.62,4.62,0,0,1,2.31-.59,4,4,0,0,1,2.58.79,3.66,3.66,0,0,1,1.28,2.27l-1.59.23a2.69,2.69,0,0,0-.81-1.45,2.08,2.08,0,0,0-1.39-.5,2.57,2.57,0,0,0-2,.89,4.19,4.19,0,0,0-.78,2.81,4.42,4.42,0,0,0,.75,2.85,2.45,2.45,0,0,0,1.95.87,2.3,2.3,0,0,0,1.61-.59,3,3,0,0,0,.83-1.83Zm3,3.55v-9.68H395v1.47a4.13,4.13,0,0,1,1-1.36,1.91,1.91,0,0,1,1.06-.32,3.15,3.15,0,0,1,1.69.53l-.56,1.51a2.38,2.38,0,0,0-1.21-.36,1.56,1.56,0,0,0-1,.33,1.81,1.81,0,0,0-.6.89,6.23,6.23,0,0,0-.29,1.92v5.07Zm12.85-3.11,1.69.2a4.24,4.24,0,0,1-1.48,2.31,5,5,0,0,1-6.14-.48,5.13,5.13,0,0,1-1.24-3.67,5.39,5.39,0,0,1,1.25-3.8,4.26,4.26,0,0,1,3.27-1.34,4.08,4.08,0,0,1,3.15,1.32,5.18,5.18,0,0,1,1.24,3.71v.43h-7.22a3.76,3.76,0,0,0,.9,2.46,2.72,2.72,0,0,0,2,.84,2.52,2.52,0,0,0,1.55-.47,3.21,3.21,0,0,0,1-1.51ZM401,435.54h5.41a3.2,3.2,0,0,0-.63-1.83,2.52,2.52,0,0,0-2-.95,2.61,2.61,0,0,0-1.9.77,3,3,0,0,0-.85,2Zm12.72,4.3.24,1.45a6.53,6.53,0,0,1-1.24.14,2.83,2.83,0,0,1-1.39-.28,1.67,1.67,0,0,1-.69-.73,6.08,6.08,0,0,1-.2-1.94V432.9h-1.2v-1.27h1.2v-2.39l1.63-1v3.37h1.65v1.27H412v5.67a3.26,3.26,0,0,0,.07.89.83.83,0,0,0,.28.33,1.3,1.3,0,0,0,.58.11,5.73,5.73,0,0,0,.72-.06Zm.95-1.42,1.63-.25a2.26,2.26,0,0,0,.75,1.5,2.68,2.68,0,0,0,1.75.51,2.6,2.6,0,0,0,1.67-.45,1.41,1.41,0,0,0,.54-1.1,1,1,0,0,0-.48-.87,6.66,6.66,0,0,0-1.67-.55,17.68,17.68,0,0,1-2.52-.79,2.33,2.33,0,0,1-1-.91,2.48,2.48,0,0,1-.36-1.31,2.41,2.41,0,0,1,.29-1.19,2.59,2.59,0,0,1,.82-.92,3,3,0,0,1,1-.47,4.69,4.69,0,0,1,1.42-.2,5.79,5.79,0,0,1,2,.32,2.72,2.72,0,0,1,1.26.89,3.3,3.3,0,0,1,.58,1.5l-1.61.22a1.71,1.71,0,0,0-.64-1.17,2.26,2.26,0,0,0-1.47-.42,2.68,2.68,0,0,0-1.62.37,1.12,1.12,0,0,0-.47.88,1,1,0,0,0,.19.58,1.45,1.45,0,0,0,.64.44q.23.09,1.44.42a18.64,18.64,0,0,1,2.43.75,2.44,2.44,0,0,1,1.08.86,2.38,2.38,0,0,1,.39,1.4,2.75,2.75,0,0,1-.48,1.55,3.11,3.11,0,0,1-1.38,1.12,5.08,5.08,0,0,1-2,.39,4.61,4.61,0,0,1-2.88-.78A3.6,3.6,0,0,1,414.64,438.42Z"/><path class="cls-4" d="M629.43,138.1,630,63.69"/><path class="cls-2" d="M629.43,138.1l-4.11-70.66"/><path class="cls-6" d="M626.35,68.73l2.51-4.13-4.58,1.56Z"/><path class="cls-1" d="M742.29,15h179V63.67h-179Z"/><path class="cls-2" d="M742.29,15h179V63.67h-179Z"/><path d="M797,37.7,799.36,44l2.39-6.33H803l-3,7.48h-1.18l-3-7.48Zm10.76-.2a3.29,3.29,0,0,1,2.61,1.09,4,4,0,0,1,1,2.81v.33h-6.24a3.16,3.16,0,0,0,.89,1.94,2.56,2.56,0,0,0,1.86.75,2.81,2.81,0,0,0,1.36-.35,2.68,2.68,0,0,0,1.05-1l.81.67a4,4,0,0,1-3.22,1.58A3.78,3.78,0,0,1,805,44.26a4.17,4.17,0,0,1,0-5.61A3.54,3.54,0,0,1,807.71,37.5Zm2.44,3.37a2.3,2.3,0,0,0-.67-1.75,2.35,2.35,0,0,0-1.75-.65,2.63,2.63,0,0,0-1.8.71,2.34,2.34,0,0,0-.83,1.69Zm6.68-3.37a2.72,2.72,0,0,1,2.11.76,3,3,0,0,1,.7,2.11v4.81h-1V41a3,3,0,0,0-.47-1.87,1.74,1.74,0,0,0-1.5-.62,2.1,2.1,0,0,0-1.68.78,3.23,3.23,0,0,0-.66,2.15v3.78h-1v-5.9a14.55,14.55,0,0,0-.07-1.58h1.07a9.62,9.62,0,0,1,0,1.2h0a2.79,2.79,0,0,1,1.06-1,3,3,0,0,1,1.46-.39Zm8.39,0a2.75,2.75,0,0,1,2,.73,2.52,2.52,0,0,1,.73,1.88v3.48a11.49,11.49,0,0,0,.12,1.59h-1A7,7,0,0,1,827,44h0A3,3,0,0,1,825.85,45a3.26,3.26,0,0,1-1.53.33,2.8,2.8,0,0,1-1.88-.61,2,2,0,0,1-.7-1.58,2.1,2.1,0,0,1,1.12-2,7.89,7.89,0,0,1,3.58-.62h.49v-.16a2.09,2.09,0,0,0-.47-1.5,2,2,0,0,0-1.45-.47,3.33,3.33,0,0,0-2.29.88l-.64-.75A4.16,4.16,0,0,1,825.22,37.5ZM822.9,43a1.23,1.23,0,0,0,.48,1,2.09,2.09,0,0,0,1.28.36,2.19,2.19,0,0,0,1.64-.63,2.64,2.64,0,0,0,.63-1.93v-.41h-.74a6.13,6.13,0,0,0-2.4.39,1.26,1.26,0,0,0-.89,1.2ZM833.59,32.9a4.2,4.2,0,0,1,.92.11l-.19,1a3,3,0,0,0-.82-.11,1.25,1.25,0,0,0-1,.42,2.34,2.34,0,0,0-.33,1.44v2h1.78v.95h-1.78v6.53h-1V38.65H829.5V37.7h1.59V35.57a2.82,2.82,0,0,1,.63-2,2.36,2.36,0,0,1,1.87-.71ZM836.2,34a.72.72,0,0,1,.53.24.71.71,0,0,1,.24.53.74.74,0,0,1-.24.56.73.73,0,0,1-.53.22.79.79,0,0,1-.77-.78.68.68,0,0,1,.24-.53.71.71,0,0,1,.53-.24Zm.53,3.66v7.48h-1.06V37.7Zm5.86,3.11v1.06h-4.11V40.81Zm3.47-5.22V37.7h2.17v.95h-2.17v4.49a1.73,1.73,0,0,0,.23,1,1,1,0,0,0,.86.33,2.21,2.21,0,0,0,1.09-.3l0,1a3.74,3.74,0,0,1-1.44.26,1.84,1.84,0,0,1-1.36-.5,2,2,0,0,1-.48-1.44V38.65h-1.59V37.7H845V35.59Zm7.61,1.91a3.88,3.88,0,0,1,2.84,1.12,4.06,4.06,0,0,1,0,5.64,3.88,3.88,0,0,1-2.84,1.11A3.83,3.83,0,0,1,852,45a3.33,3.33,0,0,1-1.27-1.07h0v5.86h-1V37.7h1V39h0A3.32,3.32,0,0,1,852,37.89a3.8,3.8,0,0,1,1.68-.39Zm-3,3.93a2.94,2.94,0,0,0,3,3,2.63,2.63,0,0,0,2-.85,3,3,0,0,0,.78-2.14,2.9,2.9,0,0,0-.81-2.14,2.7,2.7,0,0,0-2-.82,2.92,2.92,0,0,0-3,3Zm12.77-3.93a3.89,3.89,0,0,1,2.85,1.12,4.06,4.06,0,0,1,0,5.64,3.89,3.89,0,0,1-2.85,1.11,3.82,3.82,0,0,1-1.65-.37,3.25,3.25,0,0,1-1.27-1.07h0v5.86h-1V37.7h1V39h0a3.24,3.24,0,0,1,1.25-1.06,3.76,3.76,0,0,1,1.67-.39Zm-3,3.93a2.94,2.94,0,0,0,3,3,2.63,2.63,0,0,0,2-.85,3,3,0,0,0,.78-2.14,2.9,2.9,0,0,0-.81-2.14,2.7,2.7,0,0,0-2-.82,2.94,2.94,0,0,0-3,3Z"/><path class="cls-4" d="M629.43,138.1,831.76,63.69"/><path class="cls-2" d="M629.43,138.1,826,65.17"/><path class="cls-6" d="M826.36,66.77l4-2.72-4.8-.48Z"/><path class="cls-9" d="M950.3,16.46h179v48.7h-179Z"/><text class="cls-10" transform="translate(992.37 45.37)">smallstep-prod</text><path class="cls-11" d="M629.43,138.1l409.68-71.79"/></svg>
